/* XPM */
static char * image_name[]={
"14 14 26 2",
"  	c #EBEBEB",
". 	c #FAFAFA",
"X 	c #FCFCFC",
"o 	c #000000",
"O 	c #000001",
"+ 	c #595959",
"@ 	c #FF0000",
"# 	c #DAAA00",
"$ 	c #9E9E9E",
"% 	c #A1A1A1",
"& 	c #575757",
"* 	c #EDEDED",
"= 	c #FFFF00",
"- 	c #7CFC00",
"; 	c #5C5C5C",
": 	c #F2DE0D",
"> 	c #00FFFF",
", 	c #49D4F0",
"< 	c #474747",
"1 	c #454545",
"2 	c #0000FF",
"3 	c #FF4500",
"4 	c #F5280A",
"5 	c #D11619",
"6 	c #383838",
"7 	c #363636",
"  . . . . X . . . . . . . . ",
"  o o o o O o o o o o o O + ",
"  O @ @ # # o o $ % % $ o & ",
"* O @ @ # # o O % % $ % o + ",
"  o = = - - o O % % % $ o ; ",
"  o : = - - o o % % % % o & ",
"  O > > , , o o % % $ % o < ",
"* o > > , , O o % % % % o 1 ",
"* o 2 2 3 4 o o % % % % o < ",
"  o 2 2 4 4 O o % % % % o 1 ",
"  o 5 5 # # o O % % % % o 6 ",
"  o 5 5 # # o O % % $ % o 6 ",
"  O o o O o o o o o O o o 6 ",
"  6 6 6 7 6 6 6 6 6 6 6 6 7 "
};
