/* XPM */
static char * image_name[]={
"14 14 15 2",
"  	c #EBEBEB",
". 	c #FAFAFA",
"X 	c #FCFCFC",
"o 	c #000001",
"O 	c #000000",
"+ 	c #595959",
"@ 	c #EDEDED",
"# 	c #C4C4C4",
"$ 	c #575757",
"% 	c #A1A1A1",
"& 	c #9E9E9E",
"* 	c #454545",
"= 	c #474747",
"- 	c #383838",
"; 	c #363636",
"  . . . . X . . . . . . . . ",
"  o O O O O o O O O O O o + ",
"@ O # # # # # # # # # # O + ",
"  O # # # # # # # # # # o $ ",
"@ O O O O o O O o O O O O + ",
"  o O O o O O O O O O O O $ ",
"@ O % % % % % % % % % & o * ",
"  O % % % % % % % % % % O * ",
"  O % % % % % % % % % % O = ",
"  O & % & % & % % % % % O * ",
"  O & % % % % % % % % % O - ",
"  O % % & % & % % % & % O - ",
"  O O O o O O O O O o O O - ",
"  - - - - - - - - - - - - ; "
};
