/* XPM */
static char * image_name[]={
"14 14 15 2",
"  	c #EBEBEB",
". 	c #FAFAFA",
"X 	c #000001",
"o 	c #000000",
"O 	c #595959",
"+ 	c #FFFFFF",
"@ 	c #9E9E9E",
"# 	c #A1A1A1",
"$ 	c #575757",
"% 	c #5C5C5C",
"& 	c #474747",
"* 	c #454545",
"= 	c #EDEDED",
"- 	c #383838",
"; 	c #363636",
"  . . . . . . . . . . . . . ",
"  X X o o o o o o o o o X O ",
"  o + + + + X o @ # # @ o $ ",
"  o + + + + o o # # @ # o O ",
"  o + + + + o o # # # @ o % ",
"  o + + + + o o # # # # o $ ",
"  o + + + + o o # # @ # o & ",
"  o + + + + o X # # # # o * ",
"  o + + + + o o # # # # o & ",
"  o + + + + o o # # # # o * ",
"= o + + + + o o # # # # o - ",
"= o + + + + o o # # @ # o - ",
"  o o o X o o o o o X o o - ",
"  - - - ; - - - - - - - - ; "
};
