/* XPM */
static char * image_name[]={
"50 50 57 2",
"  	c #91D2A0",
". 	c #62D4A2",
"X 	c #A1A1A1",
"o 	c #9E9E9E",
"O 	c #32D838",
"+ 	c #00FF00",
"@ 	c #9C9C9C",
"# 	c #A3A3A3",
"$ 	c #999999",
"% 	c #BC8F8F",
"& 	c #9B7071",
"* 	c #F5280A",
"= 	c #FF0000",
"- 	c #FF6347",
"; 	c #B7644D",
": 	c #A6A6A6",
"> 	c #D11619",
", 	c #B3B37E",
"< 	c #DA322D",
"1 	c #A52A2A",
"2 	c #A8A8A8",
"3 	c #91535D",
"4 	c #969696",
"5 	c #8F8F8F",
"6 	c #8E2323",
"7 	c #509F69",
"8 	c #FF7256",
"9 	c #41AC41",
"0 	c #78D54B",
"q 	c #949494",
"w 	c #8FBC8F",
"e 	c #4169E1",
"r 	c #919191",
"t 	c #778899",
"y 	c #5470AA",
"u 	c #0000FF",
"i 	c #5773B8",
"p 	c #4955A5",
"a 	c #3232CC",
"s 	c #6A6A8D",
"d 	c #222298",
"f 	c #96522D",
"g 	c #D2691E",
"h 	c #BD52BD",
"j 	c #238E23",
"k 	c #4E125D",
"l 	c #5801B2",
"z 	c #27208B",
"x 	c #55562F",
"c 	c #00562D",
"v 	c #423BAD",
"b 	c #ABABAB",
"n 	c #8A8A8A",
"m 	c #8C8C8C",
"M 	c #4737D5",
"N 	c #00AF14",
"B 	c #91D25D",
"                                      .                                             .               ",
". X X o X X X o X X X X X X X X X X o X X o X X X X O + O X X X X X o X X X X X X o X o X o X X o . ",
"  X o X X o X o X X X X X X X X X X X X X o X X X o + + + @ X X X X X # o o o X o X X o X o o X X   ",
"  o X X o X X X X X X X X X X X o X o o X X o X X @ + + + $ X X X # % & X X X X X X X X o X X o X   ",
"  X X X X X X X X X X X X X X X X X X X X o X o X @ + + + $ # o X @ * = @ X o X o X X X X X o X X   ",
"  X o X X o o X X X X X X X X X X X # # o X o X X @ + + + $ X X # - = ; # X # X X o X o o X o o X   ",
"  X X X X o X X X X X X X X X X X o - & : o X X X o + + + $ X # & = > $ : : X o X X o X X X o X X   ",
"  o o X X X X o X X X X X X X X X $ > > , : X X X X + + + $ X X < = 1 & - < < > ; # X o X o X X X   ",
"  X X X X X X X X X X X o X X o X : & 1 > % # X X o + + + $ : ; = > > = = = > > & # X X X X X o X   ",
"  X X X X X X X X o X X X X o X o X 2 3 > > 4 # X @ + + + $ : 1 = > > > 1 ; 5 X : X X o o X o X X   ",
"  X X X X X X X o X X X o X X # # : X $ 6 = < @ X o + + + $ : & 6 > & # # : # o 7 $ X X X X X X X   ",
"  X X X X X X X X X X # : # @ % 8 < > > = = = ; : o + + + $ X 2 3 1 < : X X # 7 + 9 : X X o X o X   ",
"  X X X X X X X X X o % - < > = = = = = > > > & # o + + + @ X X # 6 > & : o : 9 + O : o X X X X X   ",
"  X X X X X X X X X X > = = = > > > 1 ; > = 1 : X X + + + o X X # @ 1 & # X : O + 0 : X o X X X X   ",
"  X X X X X X X X X # ; 1 1 ; & q X 2 & = > 4 # X X + + + o X o X X # X X X : O + 9 2 X X X X o X   ",
"  X X X X X X X X X X # X # : : # X @ * = ; : X X # + + + @ X X X o X o X o # O + 7 w w X o X X X   ",
"  X X X X X X X X X X X o o X X X # ; = < X X X X # + + + o X X X X X X X o 7 + + + + O : o X X X   ",
"  X X X X X X X X X o X X X X o X # % 1 q # X o X # + + + o X X X o X X 0 + O + + + + 7 X X X X X   ",
"  X X X X X X X o X X X X X X : # o X # X o X X o # + + + @ X X o o X X 7 + + + + + O o o X X X X   ",
"  X X X X X X X X X X o X X 4 e r # X X X X o X X # + + + @ X X X X o X # t + + + O : o X X X X X   ",
"  X X X X X X X X o X o X # y u u i X # X o X X X # + + + o X X o X X X X # $ O O X X # # # X o X   ",
"  X X X X X X X X X X X o X @ p u u a q : X X o X # + + + X X X X o X X X X X : 2 : o & - - X X X   ",
"  X X X X X X X X o o X X X X # s a u u i X # o X # + + + X X X X X X X X X # # 5 - > = = > 4 X X   ",
"  X X X X X X X X X X X X X X X : r d u u a r : X # O + + # X X X X X : # q ; < = = = > f , X X X   ",
"  X o X X X o X X X X X X X X X X # X p u u u i X 2 O + + # X X # # $ & < = = = > 1 & 4 # : X o X   ",
". X X o X o : # X X X X o X X o X X X : s d u u a 4 O + + : # o & g = = = = > 3 5 X : X X o o X X   ",
"  X X o X X i $ # X X o o X X X X X o X : 4 d u u u O + + h - > = = = > 1 & @ 2 X X X o X X X X X   ",
"  o X X X q u a q # X X X o X o X o X o X # # s a u + + + > = = = 1 3 r # 2 $ w # # o o X o X X X   ",
"  X X X X X d u u r 2 @ a p # X X X o o X : # @ 3 1 * j a k > ; & X : # X $ + + O o X X X X X X X   ",
"  X X X # # # d u u s a u s : X X X # : @ & < = = = = l u u a $ 2 X o X X + + + + O @ X X X X X X   ",
"  o X X 4 e e e u u u u z # X # # o & - > = = = = > x c d u u u y # : # O + + + $ 7 @ o o X X o X   ",
"  X o # e u u u u u u d $ 2 X % - > = = = = > 3 & X O + + v u u u a 4 w + + + + X : o X X o X X X   ",
"  o X X $ i i e e e e 4 4 ; < = = = = > 1 & q : : 2 O + + : s a u u u y O 0 + + # X X X X X o X X   ",
"  o o o X # : b 2 @ ; < = = = = = 1 3 n X : X X X : O + + # 2 m d u u u M 7 + + # o o X X X X X X   ",
"  X X X X # @ & g > = = = = > 1 & o 2 : X X X X X : O + + # X # o p u u u u N O : X X X X X X X X   ",
"  X # X 5 - > = = = = > 1 3 4 # o 4 $ @ o X # X X : O + + # X X X : s d u u u a $ # X X X o X X X   ",
"  $ ; > = = = = = 1 3 , X : o a u u u u u a e o X : O + + # X X X X : $ d u u u u i # # X o X X X   ",
". < = = = = > 1 & 4 # : X X a u u u u u u u a @ X : O + + # X X X o X # X s d u u u a 4 : X X X X   ",
". - = > 1 3 5 # : X X X : i u d u u u e 4 r @ X o : O + + : X X X X X X X 2 n d u u u u y # X X X   ",
"  4 3 & X : # X X X X o o a u p y u u u i 2 X X X : O + + # o X X o X X X o : o p u u u u a 4 # X   ",
"  X : # X X X X X X X # e u d o b y u u u i # X X : O + + # X X X X X X X X X X : s d u u u u y #   ",
"  o X X X X X X X o X # i a m # X : y u u u i # o : O + + : X X X X X X X X X X X : 4 d u u u u e B ",
"  X X X X X X X o X X X X X # o X X : y u u u $ X : O + + : X o X X X X X X X X X X # X s d u u a B ",
"  X X X X X o X X o X X o X X X X X X : y u u q X : O + + # X o X X X X X X X X o X o X 2 m d u i   ",
"  X X X X X X X X X X X o X X X X X X X # r r X X : O + + # X X X X X X X X X X X o X o X # X $ X   ",
"  X X X X X X X X X X o X X o X X X o o X # # X o : O + + # X X X X X X X X X X X X X X o X X X o   ",
"  X X X X o X X X o X o X o X X o X X o X X X X o : O + + # o X X X X X X X X X X X X o X o X X X   ",
"  X X o X X X X X X X X X X o o o X X X o X X o X : O + O : X X X X X X X X X X X X X X X X X o X   ",
". o X X X X X X X X X X X X X X X X X X X X X X X # r O 7 # X X X X X X X X X X X X X X X X X X X . ",
"                                                                                                    "
};
