/* XPM */
static char * image_name[]={
"50 50 16 2",
"  	c #8E2323",
". 	c #A52A2A",
"X 	c #A1A1A1",
"o 	c #9E9E9E",
"O 	c #9C9C9C",
"+ 	c #BC8F8F",
"@ 	c #D11619",
"# 	c #B7644D",
"$ 	c #9B7071",
"% 	c #999999",
"& 	c #969696",
"* 	c #919191",
"= 	c #8F8F8F",
"- 	c #949494",
"; 	c #B3B37E",
": 	c #8C8C8C",
"                                                    .       .                                       ",
"  X X o o X X X X X X X X X X X X X X X X X X X X o X X X X X o o X X o o o o X X X X X X X X X X   ",
"  X o o X o X o X X X X X X X X X X X X X X X X X X o X o X X X X o o X X X X X X X X X X X X X X   ",
"  X o X X X X X X X X X X X X X X X X X X X X X X X X o X o X o X X X o X X X X X X X X X X X X X   ",
"  o X X X X X X X X X X X X X X X X X X X X X X X X X o o X o X o X X o X o o X X X X X X X X X X   ",
"  X o X X o X X X X X X X X X X X X X X X X X X X X X X o O o X X X X X o X X o X X X X X X X X X   ",
"  X X X X X o X X X X X X X X X X X X X X X X X X X o X + @ @ @ + X X X o X X X X X X X X X X X X   ",
"  X o X X X X X X X X X X X X X X X X X X X X X X X X X X # @ @ . X X o o X o X X X X X X X X X X   ",
"  X X X X X X X X X X o X X o X X X X X X X X X X X X X X X . @ @ . o X X X X X X o X X X X X X X   ",
"  o X X X o o X X X X o X X o X X X X X X X X X X o X o X X o @ @ @ $ o X o X X X X X X X X o X X   ",
"  X X o X X X X X X X o X o X X X X X X X X X X X o X X X X o $ @ @ @ % o X X X X X o X X X o X X   ",
"  X X X X o X X X o X X X X X X X X X X X X X X X X X X o X X X # @ @ . o X o X X X X X X X X X X   ",
"  o X X X X X o X X + # . . . . . . . . . . . . . . . . . . . @ . @ @ @ . o X X X o X X X X X X X   ",
"  X X X X X X X # . @ @ @ @ @ @ @ @ @ @ @ @ @ @ @ @ @ @ @ @ @ @ @ @ @ @ @ X X o o X X X X o X X X   ",
". X o X X X & . @ @ @ @ @ . . . . . . . . . . . . . . . . . . . . @ @ @ # X X X # . # * X X X X X   ",
"  o X o X $ @ @ @ @ # * X X X X X X X X X X X X X X X X o X X X # @ @ . X X X X X . @ @ # o X X X   ",
"  X X X $ @ @ @ . O X o X o X X X X X X X X X X X X o o X X o $ @ @ . o X X o X X X . @ @ . X X X   ",
"  o X X . @ @ # o X o o X o X X X X X X X X X X X o X X o o O @ @ @ + X X o X o X X X . @ @ # o X   ",
"  X o . @ @ # X X X X X o o X X X X X X X X X X X X X o o X . @ @ # o o X X X X X X o & @ @ @ % X   ",
"  X * @ @ . o X o o X X o X o X X X X X X X X X o X o X X . @ @ . X X X X X o X X X o X $ @ @ . X   ",
"  X # @ @ $ X o X X X o X X X X X X X X X X X X o X X X = . . . X X o X X X o X X X X X X . @ @ X   ",
"  X @ @ . X X X o o X X X o X X X X X X X X X X X o X o X X X X X X X X X X o X X o o X o # @ @ $   ",
". % @ @ . X X X X X X o X X X X X X X X X X X X o X o X X X X X o o X o o o X X X X X X X - @ @ #   ",
"  + @ @ # X X X X X X X X X o X X X X X X X X X X X X X X o X o X X X X X X X X X X X X o X @ @ .   ",
"  + @ @ # X o X X X X X X X X X X X X X X X X X X X X X X X X X X X X X X X X X X o X X X o @ @ .   ",
"  ; @ @ # o o X X X X X X X X X X X o X X X o X X X X X X X X X X X X X X X X X o X X X X X @ @ .   ",
"  - @ @ # o o X X X X X X X X X X o o o X X o X X X X X X X X X X X X X X X X X o X X X X % @ @ .   ",
"  X . @ . X o X X X X X X X X X X o X o X X X X X X X X X X X X X X X X X X X X X o X o o $ @ @ $   ",
"  o . @ @ * X X X X X X X X X X o X X & # # # X X X X X X X X X X X X X X X X X o o X X X . @ @ %   ",
"  X $ @ @ . X X X X X X X X X X X X O . @ @ $ o X X X X X X X X X X X X X X X X X X X o : @ @ . X   ",
"  X o . @ @ $ o X X X X X X X X X X . @ @ $ X X X X X X X X X X X X X X X X X X X X o X . @ @ $ X   ",
"  o X + @ @ @ + X X X X X X X X o . @ @ $ X o X X X X X X X X X X X X X X X X X X o X . @ @ . o X   ",
"  o X X # @ @ @ * X X X o X X X . @ @ $ X X X o X X X X X X X X X X o X X X X X X % . @ @ . X X X   ",
"  o X X o # @ @ @ % X o X X o . @ @ # o o X o X X X X X X X X X X X X X X X o & # @ @ @ @ O X X X   ",
"  X X X X X + . @ . o X X X # @ @ @ # # # # # # # # # # # # # # # # # # # . . @ @ @ @ . o o X X X   ",
"  X X X X X X X o % X o X $ @ @ @ @ @ @ @ @ @ @ @ @ @ @ @ @ @ @ @ @ @ @ @ @ @ @ @ . $ X X X X X X   ",
"  X o X X X X X X o X o o $ @ @ @ @ @ @ @ @ @ @ @ @ @ @ @ @ @ @ @ @ @ @ @ @ . # $ X o X X X X X X   ",
"  o X X o X o X X X X X X X # @ @ @ $ * + = + + + + + + + + + + = + * & % X X o X X o X X o X X X   ",
"  X o X X X X o X o X o X X X # @ @ . o X X X X X X X X X X X X X o X X X X o o X X X o X X X X X   ",
"  X X o X X X X X X o X o X o X # @ @ . X X X X X X X X X X X X X X X X X X X X X X X X X X X X X   ",
"  X X X X X X X X X X X X X X X X . @ @ . X X X X X X X X X X X X X X X X X X X X X X X X X X X X   ",
"  X X X X X X X X X X X X X X X o X . @ @ . X X X X X X X X X X X X X X X X X X X X X X X X X X X   ",
"  X X X X X X X X X X X X X X X X o X . @ @ . X X X X X X X X X X X X X X X X X X X X X X X X X X   ",
"  X X X X X X X X X X X X X X X o X X X $ $ $ X X X X X X X X X X X X X X X X X X X X X X X X X X   ",
"  X X X X X X X X X X X X X X X X X X X X X X X X X X X X X X X X X X X X X X X X X X X X X X X X   ",
"  X X X X X X X X X X X X X X X X o o X X X X X X X X X X X X X X X X X X X X X X X X X X X X X X   ",
"  X X X X X X X X X X X X X X X X X o X o X X X X X X X X X X X X X X X X X X X X X X X X X X X X   ",
"  X X X X X X X X X X X X X X X X o X X X o X o X X X X X X X X X X X X X X X X X X X X X X X X X   ",
"  X X X X X X X X X X X X X X X X X X X X X X X X X X X X X X X X X X X X X X X X X X X X X X X X   ",
"                                                                                                    "
};
