/* XPM */
static char * image_name[]={
"50 50 42 2",
"  	c #A52A2A",
". 	c #A1A1A1",
"X 	c #9E9E9E",
"o 	c #A3A3A3",
"O 	c #A8A8A8",
"+ 	c #A6A6A6",
"@ 	c #B3B37E",
"# 	c #7CFC00",
"$ 	c #509F69",
"% 	c #8FBC8F",
"& 	c #ABABAB",
"* 	c #949494",
"= 	c #78D54B",
"- 	c #999999",
"; 	c #919191",
": 	c #41AC41",
"> 	c #9C9C9C",
", 	c #91535D",
"< 	c #9B7071",
"1 	c #B7644D",
"2 	c #DA322D",
"3 	c #FF0000",
"4 	c #525252",
"5 	c #969696",
"6 	c #6B8E23",
"7 	c #8F8F8F",
"8 	c #D11619",
"9 	c #545454",
"0 	c #828282",
"q 	c #636363",
"w 	c #8A8A8A",
"e 	c #8E2323",
"r 	c #858585",
"t 	c #BD52BD",
"y 	c #96522D",
"u 	c #8C8C8C",
"i 	c #595959",
"p 	c #6B6B6B",
"a 	c #878787",
"s 	c #73234E",
"d 	c #666666",
"f 	c #696969",
"                                                                                                    ",
"  . X . . . X . . . . . . . . . . . . . . . . . . . . . . . . . . . . . . . . . . . . . . . . . .   ",
"  . . X . X . X . . . . . . . . . . . . . . . . . . . . . . . . . . . . . . . . . . . . . . . . .   ",
"  X . . . X . . . . . . . . . . . . . . . . . . . . . . . . . . . . . . . . . . . . . . . . . . .   ",
"  X . . X X X . . . . . . . . . . . . . . . . . . . . . . . . . . . . . . . . . . . . . . . . . .   ",
"  . . X . X . . . . . . . . . . . . . . . . . . . . . . . . . . . . . . . . . . . . . . . . . . .   ",
"  X . . . . X . . . . . . . . . . . . . . . . . . . . . . . . . . . . . . . . . . . . . . . . . .   ",
"  . . . . . . X . . . . . . . . . . . . . . . . . . . . . . . . . . . . . . . . . . . . . . . . .   ",
"  . . . . . . . X . X . . . . X . . . . X . X X . . . . X . . . . . . . . . . . . . . . . . . . .   ",
"  . . . . . . . . . . X . X o O + + o o . . . . . . X . . . . . . . . . . . . . . . . . . . . . .   ",
"  . . . . . . . . X . . X o @ # # $ $ $ % o . . . . X . . X . X . . . . . . . . . . . . . . . . .   ",
"  . . . . . . . X . X . . + # # # # # # # $ o . . . . X X . . . . . . . . . . . . . . . . . . . .   ",
"  . . . . . . . . . X . X o # # # # # # # # X . . . X . . X . . . . . . . . . . . . . . . . . . .   ",
"  . . . . . . . X . . . o @ # # # # $ & X * X . X . X . . X . X . . . . . . . . . . . . . . . . .   ",
"  . . . . . . . X . X . + = # # $ # # X o o X o o + O + + + o . . . . . . . . . . . . . . . . . .   ",
"  . . . . . . . . . . . + # # # & # # # + o + % $ # # # # = $ - + o . X . . . . . . . . . . . . .   ",
"  . X . . . . . . . . . + # # $ & $ # # O % # # # # # # # # # # # % + . . X . X . . . . . . . . .   ",
"  . . + + o . . . . X . o $ # ; o X # # # # # # # : $ $ $ # # # # # # o . X . + - . O + . . . X .   ",
"  . > , < X . X X . . . X . ; > . + # # # # # - O + o + + + + @ # # # # . o ; # # # # $ > + o X .   ",
"  X 1 2 3 4 o . + + + . . . . . . o $ # # : + . . . X . . . . . O @ # # # + 5 6 # # # # # # $ o .   ",
"  -   2 3   - + 7 , < . . X . X . X o . . + . X . . . . . . X . . + - # # # O + O & 6 # # # # + .   ",
"  + , 8 8 9 + - 8 3 8 < + X . . . X . . . X . . X . . X . X X . X . + $ # # @ O 5 # # # # # $ o .   ",
"  . . 0 0 o + ; 8 3 8 q O X X X . X . . . . . X . . . . . X . X . . X O # # # $ # # # # # # . . .   ",
"  . . + + . . o < 8   - o . o . . . X . X . . . X . X . . . . . . . . o X # # # # # % # # # + . .   ",
"  . . . . . . . + > . . + - * + . X . . X . . . . . X . X . . . . . . X + @ # # : + * # # $ + . .   ",
"  . . . . . . . X . . o w 8 8 , o . . X . X . . + O . X . . . . . . X . . o + + o + 6 # # % . . .   ",
"  . . . . . . . . X . + , 3 3 8 > . . . . . . X < < > . . o + + X . . X . . . . X + # # # . . X .   ",
"  . . . . . . . . . X + < 8 8 4 . . . . . . + , 3 3 , + o < e < o . X . . . X . . X @ - + . . . .   ",
"  . . . . . . . . X . X . < < - o . X + + o o   3 3   + * 8 3 8 r + X . . . . . . . . o X . . . .   ",
"  . . . . . . . . . . . . o + o . . o < , 7 + t 8 8 < + * 8 3 8 < + . X . . . . . X . . o + . o X   ",
"  . . . . . . . X X . . . . . + + + < 8 3 8 > + > > + . o <   , . o o . X . . + + o X + w 8   < o   ",
"  . . . . . . . . . X . . . - , < o < 3 3 8 - . o . X . X + o + o 7 < . o . . < , 7 o .   3 2   X   ",
"  . . . . . . . . . . X . o y 3 3 , . 9 8 q o X . . . . . . X o u 8 8 , o + < 8 3 8 X .   3 2   >   ",
"  . . . . . . . . X . . . X 8 3 3 i O . > o . . . . . . . . . + , 3 3 8 5 & p 3 3 8 5 + r   8 < o   ",
"  . . . . . . . . . X X . + < 8   ; o . o . . . . . . . . . . o a 8 8 , o o - s 8 < + . + . X + .   ",
"  . . . . . . . . . . . X . + u , ; o . . . . . . . X . . . . . o w < . + o . . > o . . . . . X .   ",
"  . . . . . . . . . X . . o - 8 3 8 w + X X . X . . . . . . . . . + X , e < o . . . X . . X . . .   ",
"  . . . . . . . X X . X . o < 8 3 3 < + . . X . . . . . . . . . . + d 3 3 8 X . . . . . X X . . .   ",
"  . . . . . . . X . . . . . > e 8   - o . . . X . . . . . . . . . + f 3 3 8 > . . . . . . . . . .   ",
"  . . . . . . . . . X . . . . > a > o . . . . . . . . . . . . . . . X ,   r o . . . . . . . . X .   ",
"  . . . . . . . . . . . . . . . o . . X . . . . . . . . . . . . . . . + + o . . . . . . . . . . .   ",
"  . . . . . . . . . . . . . . . . . . . . . . . . . . . . . . . . . . . . . . . . . . . . . . . .   ",
"  . . . . . . . . . . . . . . . . . . . . . . . . . . . . . . . . . . . . . . . . . . . . . . . .   ",
"  . . . . . . . . . . . . . . . . . . . . . . . . . . . . . . . . . . . . . . . . . . . . . . . .   ",
"  . . . . . . . . . . . . . . . . . . . . . . . . . . . . . . . . . . . . . . . . . . . . . . . .   ",
"  . . . . . . . . . . . . . . . . . . . . . . . . . . . . . . . . . . . . . . . . . . . . . . . .   ",
"  . . . . . . . . . . . . . . . . . . . . . . . . . . . . . . . . . . . . . . . . . . . . . . . .   ",
"  . . . . . . . . . . . . . . . . . . . . . . . . . . . . . . . . . . . . . . . . . . . . . . . .   ",
"  . . . . . . . . . . . . . . . . . . . . . . . . . . . . . . . . . . . . . . . . . . . . . . . .   ",
"                                                                                                    "
};
