/* XPM */
static char * image_name[]={
"50 50 54 2",
"  	c #D7EB31",
". 	c #CED85A",
"X 	c #F3E64B",
"o 	c #CDCD1D",
"O 	c #A3A3A3",
"+ 	c #9E9E9E",
"@ 	c #A1A1A1",
"# 	c #A6A6A6",
"$ 	c #ABABAB",
"% 	c #91D2A0",
"& 	c #62D4A2",
"* 	c #529584",
"= 	c #757575",
"- 	c #737373",
"; 	c #707070",
": 	c #509F69",
"> 	c #A8A8A8",
", 	c #B5B5B5",
"< 	c #EEE8AA",
"1 	c #9BEEB4",
"2 	c #6E6E6E",
"3 	c #7A7A7A",
"4 	c #5F929E",
"5 	c #ADADAD",
"6 	c #D7F46E",
"7 	c #778899",
"8 	c #708090",
"9 	c #EFDF84",
"0 	c #D1C166",
"q 	c #B3B37E",
"w 	c #787878",
"e 	c #B3B3B3",
"r 	c #BDB76B",
"t 	c #F4A460",
"y 	c #9BEE70",
"u 	c #B0B0B0",
"i 	c #DEB887",
"p 	c #F2DE0D",
"a 	c #B6E191",
"s 	c #8A8A8A",
"d 	c #B6E24D",
"f 	c #B8860B",
"g 	c #E9967A",
"h 	c #DAAA00",
"j 	c #9B7071",
"k 	c #8C8C8C",
"l 	c #CD853F",
"z 	c #FFFF00",
"x 	c #91D25D",
"c 	c #878787",
"v 	c #8FBC8F",
"b 	c #ADFF2F",
"n 	c #73DE78",
"m 	c #7D7D7D",
"      . X X X X X   X X   X X   X       . X X .   o o o o o o o o   . X X   X       X X X   X .   X ",
"  O + @ + @ + @ @ @ @ + @ + @ @ @ @ @ # $ % & * = - ; ; ; ; = : & & & & > O @ @ @ @ @ @ @ @ @ @ @   ",
"  + + @ @ @ @ @ @ + @ @ @ @ @ @ + # , < 1 & : = - 2 ; ; - 3 4 & 4 : : & & > @ + @ @ @ + @ @ + @ @   ",
"  @ @ + @ + @ + @ @ @ @ + @ @ O 5 < X 6 & 7 = 2 ; ; ; = 8 & & 8 = ; - : & & $ @ @ + @ @ @ @ @ @ @   ",
"  + @ @ + @ @ @ + + @ @ @ @ # < 9 X 0 q & & : - ; - 3 4 & 4 w - ; 2 ; = 8 & % > @ @ @ + @ @ @ @ @   ",
"  @ @ + @ @ + @ + @ + @ O e < X X r q = : & & : w 8 & & 8 = ; ; ; ; - = 7 & & % > @ @ @ @ @ @ @ @   ",
"  + @ @ @ + @ + @ + @ $ < 6 X t q w - 2 - : & & & & * w - ; 2 ; ; - : 4 & 7 7 & % # @ @ + @ @ @ @   ",
"  @ @ + @ @ + @ @ # e 9 X X r q = ; ; ; = q 0 y & 8 = - ; 2 - - w 4 & & : - - 8 & % # @ + @ @ + @   ",
"  @ @ @ + @ @ @ 5 < X X t q w ; ; ; ; q q 0 X y & 4 = ; ; ; = : 4 & 4 w - ; ; = 7 & % # @ @ @ @ @   ",
"  + @ + @ @ # < 9 X 0 q : - ; ; ; = q t X 0 q q 4 & 7 - ; = 7 & & : - ; ; ; ; ; 3 4 & % # @ + @ +   ",
"  @ + @ O u < X X r q = ; ; ; - q q X X r q = ; w 4 & 8 : & & 7 w - ; ; ; ; - 3 4 & & & % O @ @ @   ",
"  + @ # i 6 X t q w ; ; ; ; w q t X 0 q w ; ; ; ; : % 1 & & : - ; ; 2 ; ; = 8 & & 8 3 * & . p . @   ",
"  @ # % a . q q - ; ; ; = q r X X r q - ; ; ; - 3 q . y % = - ; ; ; - - w 4 & 4 w - ; w o p p . @   ",
"  $ % & & & s - ; ; ; w q 0 X 0 q w - ; ; ; = q t X 6 & 7 - ; 2 ; ; o p d & 8 = ; 2 f p p p & u O   ",
". & 4 : 8 & & : - - q r X X q q - ; 2 ; - : q 0 X g & & 3 2 ; ; - q p p d w - 2 - o p p h 7 & & 5   ",
"  8 w ; - : & & q q 0 X t q w ; ; 2 ; - q t X 0 q s & 4 = ; ; = : d p p - - ; f p p p q 4 & 7 4 & X ",
"o - ; ; ; = 7 & a X X q q - ; ; ; - q q X X r q w 4 & 8 ; - w 4 & p p h ; - o p p h 8 & & 8 = 3 & . ",
"o 2 ; ; ; - 8 & a 0 q = ; ; ; ; = q t X 0 q j ; 3 & & w = : & & q p p q f p p p f 4 & 4 w - ; ; 3   ",
"o ; ; ; w 7 & & & & : = ; ; ; q q 0 X r q = 2 - 8 & 4 : 4 & 4 3 h p p h p p o : & & 8 = - ; ; ; - o ",
"o - - 8 & & 7 w : & & 3 ; = q t X 0 q 3 ; ; ; = 4 & k & & 8 = - p p p p p l 4 & 4 : - ; 2 ; ; ; - o ",
"o w 4 & 4 3 - ; - 8 & 4 q q 0 X r q w - - - - : & & & 4 : - ; f p z p p r x & 7 w - ; ; ; 2 ; = 8   ",
"o & & 8 = - 2 ; ; - 7 & a X 6 % 7 7 4 4 4 4 4 & & & 7 = ; ; ; h p p p p p p p p p p o l ; - w 4 &   ",
"  4 3 - ; ; ; ; ; = 8 & 1 a & & & & & & & & & & 6 0 q ; ; ; ; ; r l o p p p p p p z p h = : & & 8 o ",
"o = - ; ; ; ; - w * & 4 c : 3 3 3 w 3 : 8 4 & v 0   r j ; ; ; - : & & : = = q r f h h f 7 & 4 3 - o ",
"o ; ; ; ; ; = : & & 7 = ; ; ; 2 ; ; = 8 & & : w q X X q w ; = 4 & 4 w - ; ; ; ; ; ; w 4 & 4 w - ; o ",
"o 2 ; ; - w 4 & 4 : - ; ; ; - ; - 3 4 & 4 w - ; = q X X q : 4 & 7 = - ; ; ; ; ; - : & & 8 - ; ; ; o ",
"o ; ; = : & & 8 = - f r r q ; - 8 & & 8 - ; 2 ; ; w q X X & & 3 - ; ; ; ; ; ; = 7 & 4 w - ; 2 ; ; o ",
"o - w 4 & 4 3 - ; - p p p p p p p o l r q 2 - ; ; - q a X 6 q - 2 - ; ; ; - w 4 & 7 = - ; ; ; - w   ",
"o : & & 8 = - ; ; ; p p p p p p p p p p p p ; - = : & & 0   0 q ; ; ; ; = 8 & & : = ; ; ; ; - : &   ",
"  & 4 3 = ; ; ; ; 2 - 3 q x x f f h p z z p ; w 4 & 4 3 q X   r w - - w * & 4 w - 2 ; 2 ; - 8 & 4 o ",
"b 7 = ; 2 ; 2 ; ; = : & & 8 = - h p p p p l : & & 8 = - - q X X q 3 : & & 8 = ; 2 - ; - w 4 & 4 w o ",
". 4 - ; ; ; ; - w 4 & 4 3 - j p p p l p p q & 4 3 - ; ; ; = q X X v & 4 : - ; ; ; ; - : & & 8 = - o ",
". & : - ; ; - : & & 7 = - l p p p q h z o & 4 w ; ; ; ; ; ; w q X 1 4 w ; ; 2 l p p 8 & 4 w - ; ; o ",
"X & & 3 - w 4 & 4 : - - o p p h - = p p d : - ; ; ; ; ; - - : & & q = - ; ; ; p z p n 4 w - ; ; ; o ",
"  u & 4 : & & 7 w ; f p p p r - w d p p : - - ; ; 2 - ; = 7 & 4 3 - ; ; ; - - p z p 8 - ; ; ; ; ; o ",
"  O % & & & : - ; h p p h ; - : & p z o ; ; ; ; 2 ; - w 4 & 4 = ; ; 2 ; ; = q p z p - ; ; ; 2 ; ; o ",
"  @ > & & 8 = j p p p r - = 7 & 4 p p f ; ; ; ; ; - : & & : - - ; ; ; - w 4 d p p h ; ; ; ; ; ; = o ",
"  @ @ 5 & 4 h p p o ; - : 4 & 7 = ; j ; ; ; ; - = 4 & 4 3 - ; ; p p o h x & l p p r ; - ; ; ; w 4   ",
"  @ @ O % & p p f ; = 8 & & : - ; ; ; 2 ; ; - 3 4 & 8 = ; ; ; r p z z p p p p z p f q ; ; - 3 & & . ",
"  @ + @ > % & : - w 4 & 4 w - ; ; ; ; ; ; = 8 & & : - ; ; ; ; - o p p p p z z z z p p p p o d & u   ",
"  + @ @ @ $ & & 8 & & 8 - ; ; ; ; 2 ; - w * & 4 = - ; ; 2 ; - m 4 & q r l o p z p p z z z z p $ O   ",
"  @ @ @ @ @ u & & 4 w - ; ; ; ; 2 ; - : & & 8 - ; ; ; ; - = 8 & & 3 - ; - r p p h l h p p p p @ @   ",
"  + + @ @ + # % & 8 - ; ; ; 2 ; ; = 7 & 4 m - ; ; ; ; - w * & 4 w - ; 2 2 f p p f 8 & & % g t @ @   ",
"  @ @ @ @ @ @ > & & m ; ; ; ; ; w 4 & 4 = ; ; ; ; - ; : 4 & 8 - - ; ; ; ; h z p q & & 5 O + + @ @   ",
"  + @ + @ @ + O u & 4 w ; ; = 8 & & : = ; ; ; ; - - 8 & 4 : - ; ; ; ; ; ; p z p & & $ @ @ @ @ @ @   ",
"  @ @ @ @ @ @ @ O % & 7 = w 7 & 4 w - ; ; ; ; - = 4 & 4 = - ; ; 2 ; ; ; - p z p % > @ @ @ @ @ + @   ",
"  @ @ @ @ + @ + @ > & & 8 4 & 7 = - - 2 ; ; - 3 & & 8 - ; ; ; ; ; 2 ; - q p p   # @ @ + @ @ @ @ @   ",
"  @ @ @ @ @ @ @ + O $ & & & : - ; ; ; ; ; = 8 & 4 : - ; ; ; ; - ; - = 7 & p p . @ @ @ @ @ + @ @ @   ",
"  @ + @ @ @ @ @ @ @ O % & 7 = ; ; ; ; ; = 4 & 4 w - ; ; ; ; ; ; - w 4 & % > @ @ @ @ @ @ @ @ @ @ @   ",
"X X X X X   X X X X   X .   o o o o o o     o o o o o o o o o o o   . X X X X   X X X X X X X X X X "
};
