/* XPM */
static char * image_name[]={
"50 50 88 2",
"  	c #3EDD89",
". 	c #3CDC86",
"X 	c #37DD87",
"o 	c #3ADD8A",
"O 	c #3EDC87",
"+ 	c #3CDB87",
"@ 	c #3ADC86",
"# 	c #3ADC87",
"$ 	c #3ADC89",
"% 	c #3ADE87",
"& 	c #3DDA89",
"* 	c #38DC83",
"= 	c #3EDC88",
"- 	c #3DDC88",
"; 	c #39DB86",
": 	c #3BDD88",
"> 	c #3CDB89",
", 	c #3BDE85",
"< 	c #3FDE8C",
"1 	c #9E9E9E",
"2 	c #A1A1A1",
"3 	c #3DDB87",
"4 	c #2CEC85",
"5 	c #62D4A2",
"6 	c #8FBC8F",
"7 	c #A3A3A3",
"8 	c #34E688",
"9 	c #1FF585",
"0 	c #73DE78",
"q 	c #91D2A0",
"w 	c #5DF370",
"e 	c #1CF685",
"r 	c #28C671",
"t 	c #696969",
"y 	c #6B6B6B",
"u 	c #B8860B",
"i 	c #CDCD1D",
"p 	c #ADFF2F",
"a 	c #529584",
"s 	c #2AC975",
"d 	c #6E6E6E",
"f 	c #DAAA00",
"g 	c #9BEE70",
"h 	c #29C874",
"j 	c #91D25D",
"k 	c #27CA71",
"l 	c #27C973",
"z 	c #27C974",
"x 	c #27C976",
"c 	c #28CA75",
"v 	c #2AC776",
"b 	c #2AC874",
"n 	c #1DE57B",
"m 	c #509F69",
"M 	c #7CFC00",
"N 	c #1CE479",
"B 	c #12CE6D",
"V 	c #347766",
"C 	c #2F4F4F",
"Z 	c #32814B",
"A 	c #78D54B",
"S 	c #14D26E",
"D 	c #3BE18B",
"F 	c #A6A6A6",
"G 	c #3BDF86",
"H 	c #3CDC84",
"J 	c #39DD87",
"K 	c #3AE08C",
"L 	c #A8A8A8",
"P 	c #3CE08A",
"I 	c #19D16F",
"U 	c #1BD373",
"Y 	c #18DC76",
"T 	c #29CB76",
"R 	c #707070",
"E 	c #737373",
"W 	c #26C873",
"Q 	c #29C973",
"! 	c #2AC873",
"~ 	c #2AC577",
"^ 	c #666666",
"/ 	c #29C773",
"( 	c #21E17C",
") 	c #22E07C",
"_ 	c #1CFA81",
"` 	c #1FF988",
"' 	c #2DE98A",
"] 	c #2FE988",
"  . X . . o O + @ # $ + % & * # + + + + + + + + # # # # # # # # @ = @ - ; - & @ # : # > , + # @ # + ",
"< 1 2 2 2 1 2 2 2 2 1 2 1 2 2 2 2 2 2 2 2 2 2 2 2 2 2 2 2 2 2 2 2 2 2 1 2 1 2 2 2 1 1 2 2 2 2 2 2 3 ",
"4 5 5 5 5 5 6 2 2 2 2 2 2 2 2 2 2 2 2 2 2 2 2 2 2 2 2 2 2 2 2 2 1 2 2 2 2 2 2 2 2 2 2 1 7 6 6 6 6 8 ",
"9 5 5 5 5 0 5 6 2 2 2 1 2 2 2 2 2 2 2 2 2 2 2 2 2 2 2 2 2 2 2 2 2 2 2 2 1 2 2 2 1 7 q 5 w 5 5 5 5 e ",
"r t t y 0 u i p 0 5 6 2 1 2 2 2 2 2 2 2 2 2 2 2 2 2 2 2 2 2 2 2 2 1 1 2 2 2 7 6 q 0 p u u a t t y r ",
"s d d y 0 f f f f p p 5 5 6 2 2 2 2 2 2 2 2 2 2 2 2 2 2 2 2 2 2 2 2 2 2 6 q g p i f f f u 5 y d d h ",
"h y d d 0 f f f f f f f p j 5 2 2 2 2 2 2 2 2 2 2 2 2 2 2 2 2 2 2 2 2 5 p i u f f f f f u 5 d d y h ",
"k y d d 0 f f f f f f f f f p q 2 2 2 2 2 2 2 2 2 2 2 2 2 2 2 2 2 2 5 p f f f f f f f f u 5 t d d l ",
"l d d d 5 u f f f f f f f f p 6 1 2 1 2 2 6 2 1 2 2 2 2 2 6 2 2 1 2 5 p f f f f f f f f u 5 y y d h ",
"l d d d 5 u f f f f f f f f p 6 2 1 2 2 5 5 1 2 2 1 2 1 2 5 5 2 2 2 5 p f f f f f f f f u 5 y y d h ",
"l d d d 5 u f f f f f f f f p 6 2 2 2 6 5 6 2 2 2 2 2 2 2 6 5 5 2 1 5 p f f f f f f f f u 5 d d d h ",
"z d d d 5 u f f f f f f f f p 6 2 2 1 5 5 5 5 5 5 5 5 5 5 5 5 5 6 2 5 p f f f f f f f f u 5 d d d h ",
"x d d d 5 u f f f f f f f f p 6 1 1 6 5 5 5 5 5 5 5 5 5 5 5 5 5 6 2 5 p f f f f f f f f u 5 y d d h ",
"l d y d 5 u f f f f f f f f p 6 2 2 2 5 5 1 2 2 2 1 1 1 2 2 5 5 2 2 5 p f f f f f f f f u 5 y y d h ",
"z d y d 5 u f f f f f f f f p 6 2 2 2 2 5 5 1 2 2 2 2 2 2 5 5 2 2 2 5 p f f f f f f f f u 5 y d d h ",
"c d y d 5 u f f f f f f f f p 6 2 2 1 2 2 2 2 2 1 1 1 2 1 2 2 1 2 1 5 p f f f f f f f f u 5 y y d h ",
"v d d d 0 f f f f f f f f f p 6 2 2 2 2 2 2 2 2 2 2 2 2 2 2 2 2 2 2 5 p f f f f f f f f u a y d d b ",
"n m a a 5 p p p i f f f f f p 6 2 2 2 2 2 2 2 2 2 2 2 2 2 2 2 2 2 2 5 p f f f f u u p p M 5 a a a N ",
"B V V V C V Z Z w w w w w A 0 2 2 2 2 2 2 2 2 2 2 2 2 2 2 2 2 2 1 2 6 0 A w 5 5 5 w Z Z V C V V V S ",
"D F F F F 7 7 6 6 2 7 6 F 6 7 1 2 2 2 2 2 2 2 2 2 2 2 2 2 2 2 2 2 1 1 7 6 7 7 2 2 6 6 2 F F F 7 F G ",
"H 2 2 2 2 2 1 6 2 2 2 2 2 2 2 2 2 2 2 2 2 2 2 2 2 2 2 2 2 2 2 2 2 7 1 2 2 2 2 2 1 2 5 2 1 2 2 2 2 + ",
"J 2 2 2 2 1 6 5 2 1 2 1 1 2 1 2 2 2 2 2 2 2 2 2 2 2 2 2 2 2 2 2 1 2 2 1 1 2 2 2 2 6 5 1 2 1 1 1 2 @ ",
"+ 2 2 1 2 2 6 5 1 2 2 7 1 1 2 2 2 2 2 2 2 2 2 2 2 2 2 2 2 2 2 2 2 2 2 2 2 2 2 1 1 2 5 2 2 1 2 2 2 @ ",
"@ 2 2 1 1 2 6 5 2 2 2 1 2 2 2 2 2 2 2 2 2 2 2 2 2 2 2 2 2 2 2 2 2 2 1 2 2 2 2 2 1 2 5 2 2 1 1 2 2 + ",
"+ 1 1 2 1 2 6 5 2 1 2 2 2 2 2 1 2 2 1 2 2 2 2 2 2 2 2 2 2 2 1 2 2 2 2 1 2 2 2 1 2 2 5 2 2 2 6 2 2 # ",
"@ 1 2 6 1 2 6 5 2 2 5 5 1 2 1 2 2 2 2 1 2 2 1 2 1 2 2 1 2 1 2 1 2 2 1 2 2 2 5 6 2 2 5 2 1 5 5 1 2 # ",
": 1 1 5 5 2 6 5 2 5 5 6 2 1 2 2 2 2 2 2 2 2 2 2 2 2 2 2 2 2 1 2 1 2 1 2 2 2 5 5 5 2 5 2 5 5 2 2 2 # ",
"$ 2 2 2 5 5 5 5 5 5 2 2 2 2 1 1 1 1 2 1 1 1 1 2 2 2 1 1 1 1 1 2 1 2 2 2 2 2 2 6 5 5 5 5 5 2 2 2 2 @ ",
"@ 2 2 2 1 5 5 5 5 1 2 2 2 2 2 2 2 1 2 2 2 2 2 2 2 2 2 2 2 2 2 2 2 2 2 7 1 1 2 2 2 5 5 5 1 2 2 2 2 # ",
"K F L F F F q 5 F F F F F 6 F F F F F 7 F F L F 7 F F F F F 7 F F F L F F F F F F F 5 F F F F F F P ",
"I V V V V V V V V V V V V 5 m V V V Z 5 V V V V a m V V V V 5 Z V V V Z m V V V V V V V V V V V V U ",
"Y m m m m m m m m m m m 5 5 m m m m 5 0 m m m m 5 5 m m m m 5 5 m m m m 5 5 m m m m m m m m m m m Y ",
"T R R E R R R R R R E R 5 E R E E E 5 d R E R R 5 a R R R R E 5 R R R d a 5 R E R R R R R R R R R T ",
"W d d d d d d d d d d y 5 E d d y d 5 y d d d y a m y d d d R 5 y d d y m 5 y d d d d d d d d d d z ",
"h d d d d d d d d d d y 5 E d y y d 5 d d d d y a m y d d y R 5 y d d y m 5 y d d d d d d d d d d s ",
"s d d d d d d d d d d y 5 E d d y d 5 y d d d y a m y d d d R 5 y d d y m 5 y d d d d d d d d d d h ",
"h d d d d d d d d d d y 5 E d d y d 5 d d d d y a m y d d d R 5 y d d y m 5 y d d d d d d d d d d z ",
"h d d d d d d d d d d y 5 E d d y d 5 d d d d y a m y d d y R 5 y d d y m 5 y d d d d d d d d d d z ",
"h d d d d d d d d d d y 5 E d d y d 5 d d d d y a m y d d y R 5 y d d y m 5 y d d d d d d d d d d z ",
"h d d d d d d d d d d y 5 E d d y d 5 d d d d y a m y d d y R 5 y d d y m 5 y d d d d d d d d d d s ",
"Q d y d d d y d d y y y 5 E y d y d 5 y y d d y a m y d d d R 5 y y d y a 5 t d d d d d d d d d d l ",
"! y d y y d d d d d d y 5 E y d d d 5 d d d d y a m y d d y R 5 y d d y a 5 t d d d d d d d d d d z ",
"l d d y d d y d y d y y 5 R d d d d 5 d d d d t a m y d d d R 5 y y d y m 5 y d d d d d d d d d d z ",
"c y d d d d d d d d d d 5 E y d y d 5 d y d d t a m y d y y R 5 y d y y m 5 y d d d d d d d d d y h ",
"~ t y d y y y t y y t t 5 R t y y y 5 t y y y t a m t y y y d 5 t y y t m 5 ^ y y y y y y y y y y / ",
"( a a a a a a a a a a m 5 5 a a a a 5 a a a a m 5 5 a a a a a 5 m a a a 5 5 m a a a a a a a a a a ) ",
"_ 5 5 5 5 5 5 5 5 5 5 5 5 5 5 5 5 5 5 5 5 5 5 5 5 5 5 5 5 5 5 5 5 5 5 5 5 5 5 5 5 5 5 5 5 5 5 5 5 ` ",
"' 5 5 5 5 5 5 5 5 5 5 q 5 5 5 5 5 5 5 5 5 5 5 5 5 5 5 5 5 5 5 5 5 5 5 5 5 5 5 5 5 5 5 5 5 5 5 5 5 ] ",
". 2 2 2 2 2 2 2 2 2 2 2 2 2 2 2 2 2 2 2 2 2 2 2 2 2 2 2 2 2 2 2 2 2 2 2 2 2 2 2 2 2 2 2 2 2 2 2 2 # ",
"# # + # # @ @ . + + + + + + + + + + + + + + + + - - + + + + + + + + + + + + + + + + + + + + + + # # "
};
