/* XPM */
static char * image_name[]={
"50 50 418 2",
"  	c #00938F",
". 	c #A1A1A1",
"X 	c #9E9E9E",
"o 	c #9C9C9C",
"O 	c #949494",
"+ 	c #8FBC8F",
"@ 	c #8F8F8F",
"# 	c #778899",
"$ 	c #999999",
"% 	c #509F69",
"& 	c #41AC41",
"* 	c #32814B",
"= 	c #238E23",
"- 	c #7E88AB",
"; 	c #8A8A8A",
": 	c #919191",
"> 	c #969696",
", 	c #32D838",
"< 	c #3AC174",
"1 	c #8CAEC7",
"2 	c #8F98C3",
"3 	c #8C98C2",
"4 	c #8C98C0",
"5 	c #529584",
"6 	c #2FC041",
"7 	c #3AC574",
"8 	c #8DAECF",
"9 	c #919AD3",
"0 	c #919BD6",
"q 	c #8F9CD3",
"w 	c #909ACF",
"e 	c #8E9ACC",
"r 	c #8E99C7",
"t 	c #8B96C3",
"y 	c #00FF00",
"u 	c #36C971",
"i 	c #8AACD1",
"p 	c #8F9AD8",
"a 	c #919BD8",
"s 	c #909AD5",
"d 	c #909BD3",
"f 	c #909BD1",
"g 	c #8F9AC8",
"h 	c #8C8C8C",
"j 	c #34CF74",
"k 	c #8AABD4",
"l 	c #8F9DDE",
"z 	c #909BDD",
"x 	c #919BD9",
"c 	c #8E9CDB",
"v 	c #909AD8",
"b 	c #919CD4",
"n 	c #8F9BCF",
"m 	c #909BC8",
"M 	c #78D54B",
"N 	c #2DD36D",
"B 	c #8CA8DA",
"V 	c #909AE1",
"C 	c #929BE0",
"Z 	c #919CDC",
"A 	c #919BE0",
"S 	c #919CDE",
"D 	c #919ADD",
"F 	c #909AD7",
"G 	c #8F9AD0",
"H 	c #909ACB",
"J 	c #2BD66C",
"K 	c #8BA6DD",
"L 	c #9099E4",
"P 	c #919BE3",
"I 	c #919BE2",
"U 	c #909ADF",
"Y 	c #909BDB",
"T 	c #909BD9",
"R 	c #8F9BD7",
"E 	c #8E99D1",
"W 	c #9099C2",
"Q 	c #00AF14",
"! 	c #00562D",
"~ 	c #25DC68",
"^ 	c #8DA3DF",
"/ 	c #8E9AE4",
"( 	c #919AE5",
") 	c #8F9BE5",
"_ 	c #929AE3",
"` 	c #22E062",
"' 	c #8FA0E5",
"] 	c #8E9AE6",
"[ 	c #8F9BE7",
"{ 	c #929BE6",
"} 	c #929AE5",
"| 	c #8F9BE3",
" .	c #909AE2",
"..	c #909CD8",
"X.	c #1FE460",
"o.	c #939CEB",
"O.	c #8E99E8",
"+.	c #909CE8",
"@.	c #8E9CE7",
"#.	c #919AE7",
"$.	c #8C99C6",
"%.	c #1AE75A",
"&.	c #9399ED",
"*.	c #8F9AE9",
"=.	c #909BEA",
"-.	c #929AD8",
";.	c #8E9BD2",
":.	c #8D96C1",
">.	c #2CC745",
",.	c #1AEA58",
"<.	c #9399F1",
"1.	c #8F9CEA",
"2.	c #919DE9",
"3.	c #939CE7",
"4.	c #909CE6",
"5.	c #929CE3",
"6.	c #929CD9",
"7.	c #17EB58",
"8.	c #9398F6",
"9.	c #909CEE",
"0.	c #919CEC",
"q.	c #919CEE",
"w.	c #939BEE",
"e.	c #929DEF",
"r.	c #929DED",
"t.	c #919CEB",
"y.	c #919EE4",
"u.	c #919CDA",
"i.	c #929CD7",
"p.	c #8F98CF",
"a.	c #1AEB59",
"s.	c #9699F6",
"d.	c #909CF0",
"f.	c #919DF3",
"g.	c #949EF3",
"h.	c #929EF4",
"j.	c #939FF5",
"k.	c #90A0F5",
"l.	c #94A0F2",
"z.	c #949FEF",
"x.	c #939FF3",
"c.	c #939FEB",
"v.	c #929EEA",
"b.	c #949EE5",
"n.	c #929CE1",
"m.	c #2CC642",
"M.	c #13F053",
"N.	c #9593F4",
"B.	c #939BF0",
"V.	c #929CF1",
"C.	c #919DF1",
"Z.	c #939DF6",
"A.	c #91A1F8",
"S.	c #959FF8",
"D.	c #92A0F9",
"F.	c #96A1FB",
"G.	c #97A0FD",
"H.	c #97A1F8",
"J.	c #97A1F6",
"K.	c #92A1F2",
"L.	c #93A0EF",
"P.	c #939FE9",
"I.	c #929DDD",
"U.	c #10F34E",
"Y.	c #9691F5",
"T.	c #919BF0",
"R.	c #929CF5",
"E.	c #949FF9",
"W.	c #93A0FC",
"Q.	c #96A1FD",
"!.	c #96A3FF",
"~.	c #95A4FF",
"^.	c #97A6FF",
"/.	c #96A4FD",
"(.	c #96A4FC",
").	c #98A0F3",
"_.	c #93A0EE",
"`.	c #939FE7",
"'.	c #939DE2",
"].	c #8F9BCD",
"[.	c #11F44F",
"{.	c #9994FA",
"}.	c #929DF7",
"|.	c #95A0FA",
" X	c #97A1FF",
".X	c #96A5FF",
"XX	c #99A4FD",
"oX	c #9BA7FD",
"OX	c #9DA7FF",
"+X	c #99A7FF",
"@X	c #9AA3FE",
"#X	c #98A2F9",
"$X	c #93A2F5",
"%X	c #95A1ED",
"&X	c #939EDE",
"*X	c #11F354",
"=X	c #9994FB",
"-X	c #959CF6",
";X	c #949FFB",
":X	c #98A5FF",
">X	c #9AA8FF",
",X	c #9CABFF",
"<X	c #9DAEFF",
"1X	c #9EAAFC",
"2X	c #9FABFF",
"3X	c #9BABFF",
"4X	c #9BA9FF",
"5X	c #9BA5FE",
"6X	c #95A2F1",
"7X	c #959EE9",
"8X	c #939EE0",
"9X	c #8D95C3",
"0X	c #11F353",
"qX	c #9794FB",
"wX	c #949DF8",
"eX	c #94A1FF",
"rX	c #95A2FF",
"tX	c #98A6FF",
"yX	c #9CA5FF",
"uX	c #A2A1FF",
"iX	c #A49CFF",
"pX	c #A599FF",
"aX	c #A59DFF",
"sX	c #A59BFC",
"dX	c #A59BFE",
"fX	c #A2A1FE",
"gX	c #9CA6FF",
"hX	c #9BA6FF",
"jX	c #97A3F7",
"kX	c #96A2EE",
"lX	c #949EE3",
"zX	c #929EDA",
"xX	c #8D95C4",
"cX	c #10F74F",
"vX	c #9A94FE",
"bX	c #96A0FF",
"nX	c #97A4FF",
"mX	c #9FA4FF",
"MX	c #4169E1",
"NX	c #0000FF",
"BX	c #4735FD",
"VX	c #A6A1FF",
"CX	c #9DA8FF",
"ZX	c #95A2F0",
"AX	c #949EE6",
"SX	c #939DDA",
"DX	c #08FB47",
"FX	c #9B92FF",
"GX	c #969FFA",
"HX	c #9AA5FF",
"JX	c #9CA8FE",
"KX	c #A3AAFF",
"LX	c #A4A4FE",
"PX	c #A69CFF",
"IX	c #A79BFF",
"UX	c #A39BFE",
"YX	c #4734FF",
"TX	c #A2A6FF",
"RX	c #9DA9FF",
"EX	c #98A6FE",
"WX	c #929EE6",
"QX	c #939DDB",
"!X	c #8F97C5",
"~X	c #1BEE61",
"^X	c #919BFD",
"/X	c #9EAAFE",
"(X	c #A1AEFD",
")X	c #A4B4FF",
"_X	c #AAB4FC",
"`X	c #A7A7FF",
"'X	c #4F3EFE",
"]X	c #A7A3FF",
"[X	c #98A3F3",
"{X	c #959FE4",
"}X	c #949EDC",
"|X	c #8D97C8",
" o	c #96522D",
".o	c #DA322D",
"Xo	c #D11619",
"oo	c #F5280A",
"Oo	c #FF0000",
"+o	c #729FFF",
"@o	c #969EFF",
"#o	c #9CADFF",
"$o	c #9FB0FF",
"%o	c #A4B1FF",
"&o	c #A6A7FF",
"*o	c #A5B2FF",
"=o	c #A0AFFF",
"-o	c #9EAAFF",
";o	c #97A2F4",
":o	c #959FE6",
">o	c #8C97C5",
",o	c #A52A2A",
"<o	c #959EF9",
"1o	c #97A2FC",
"2o	c #A5A4FF",
"3o	c #AAAAFF",
"4o	c #A8B6FF",
"5o	c #A5B6FE",
"6o	c #9FAFFC",
"7o	c #9BAAFF",
"8o	c #95A1F3",
"9o	c #93A0E6",
"0o	c #8E97C2",
"qo	c #91A0FF",
"wo	c #A4A5FF",
"eo	c #A59AFF",
"ro	c #A99AFF",
"to	c #A3A2FF",
"yo	c #A1A8FF",
"uo	c #93A0E4",
"io	c #B7644D",
"po	c #D52079",
"ao	c #949EFD",
"so	c #97A7FF",
"do	c #3232CC",
"fo	c #4635FF",
"go	c #98A4FA",
"ho	c #92A0E1",
"jo	c #91A0FB",
"ko	c #A59FFF",
"lo	c #A39BFF",
"zo	c #A49FFF",
"xo	c #9FA5FB",
"co	c #9AA5FE",
"vo	c #94A0E8",
"bo	c #9B7071",
"no	c #8E2323",
"mo	c #6B3939",
"Mo	c #919CF6",
"No	c #929FFD",
"Bo	c #99A4FE",
"Vo	c #9EA8FF",
"Co	c #9EADFF",
"Zo	c #9CABFC",
"Ao	c #95A0EF",
"So	c #8F9DF6",
"Do	c #93A2FD",
"Fo	c #98A3FF",
"Go	c #96A7FF",
"Ho	c #99A8FD",
"Jo	c #95A5FD",
"Ko	c #95A4F9",
"Lo	c #94A1EF",
"Po	c #94A0EC",
"Io	c #909CD6",
"Uo	c #8C95C0",
"Yo	c #8D9FF5",
"To	c #949EF5",
"Ro	c #929FFB",
"Eo	c #97A5FE",
"Wo	c #99A4FF",
"Qo	c #98A2FF",
"!o	c #96A2F8",
"~o	c #95A0F2",
"^o	c #949FEE",
"/o	c #929CDA",
"(o	c #8F99CE",
")o	c #8D9DF2",
"_o	c #929CF3",
"`o	c #919FF7",
"'o	c #939EF8",
"]o	c #949FF8",
"[o	c #96A1FA",
"{o	c #95A1F5",
"}o	c #929DDF",
"|o	c #8C94C2",
" O	c #8D9CEF",
".O	c #939DF2",
"XO	c #94A0F6",
"oO	c #959FF4",
"OO	c #949FF1",
"+O	c #939EED",
"@O	c #929EE8",
"#O	c #8E99CF",
"$O	c #8E9AEC",
"%O	c #909DEC",
"&O	c #939BEC",
"*O	c #919DEF",
"=O	c #919EED",
"-O	c #929DEC",
";O	c #919DE7",
":O	c #919DE5",
">O	c #FF6347",
",O	c #7C98D3",
"<O	c #8D99EB",
"1O	c #929BEA",
"2O	c #909BEB",
"3O	c #929CE4",
"4O	c #8C96C7",
"5O	c #91535D",
"6O	c #FF7256",
"7O	c #8D9AE9",
"8O	c #929BE8",
"9O	c #9099DA",
"0O	c #8D97CA",
"qO	c #C5489B",
"wO	c #8F99D4",
"eO	c #8E98C9",
"rO	c #8F9ADA",
"tO	c #8E98CB",
"yO	c #8D9BE2",
"uO	c #8E9DE0",
"iO	c #8F9AD2",
"pO	c #8F96CA",
"aO	c #BD52BD",
"sO	c #919ADF",
"dO	c #919ADB",
"fO	c #8E99D7",
"gO	c #8E9CDD",
"hO	c #8E96C7",
"jO	c #89B0E7",
"kO	c #8F99D6",
"lO	c #8D9ACF",
"zO	c #8D99CD",
"xO	c #89A8D6",
"cO	c #8A97C4",
"                                                                                                    ",
"  . . . X . X X . . . . . X . . . X X . . X . . X X X X . . . . . . X X . . X . . . . . . . . . .   ",
"  . X . . . X . . . . . . X . . X . . o O + @ # # @ $ $ o o o X X . X . . X . X . . . . . . . . .   ",
"  . . X . X . . . X . . . . X X $ O # % & * * = = % - # # ; @ : $ o o X X . . . . . . . . . . . .   ",
"  X . . . X . . . . . X X o > # % * , , , , , , , < 1 2 3 4 o O # ; O $ o X X . . X . . . . . . .   ",
"  . . X X . X X X X X X o 5 % 6 , , , , , , , , , 7 8 9 0 q w e r t - ; O o X X . . . . . . . . .   ",
"  X X . . X . X . o o + % * , , , y y y y , , , , u i p a 0 s a d f g X @ h $ o X . . . . . . . X   ",
"  X . . . X X X X o # & , , y y y y y y y y y y , j k l z x c a v s b n m $ ; O o X . . . . . . .   ",
"  . . . . . X X $ # M , , y y y y y y y y y y y y N B V C Z A S D x F d G H . # : o X . X X . . .   ",
"  . X . . X . o # M , , y y y y y y y y y y y y y J K L P I P I U S Y T R E H W # : X X . . . . .   ",
"  . . . . . X + & , , y y Q ! Q y y Q ! Q y y y y ~ ^ / ( P ) _ V I A z Z T d w W # : o X X . . .   ",
"  . . . . . $ % , , y y Q Q y Q Q Q Q y Q Q y y y ` ' ] [ { [ } |  .P U z Y ..s e . # > X . . X .   ",
"  . . . X o # * , , y y y Q y y = ! y y = y y y y X.o.O.[ +.@.#.+.#.( P A z Y T s $.$ @ o . . . .   ",
"  . . . . + % , , y y y y y ! y y y y = y y y y y %.&.*.[ =.=.[ ) +.(  .V V A z -.;.:.# O o X . .   ",
"  X . . X 5 >., , y y y y y Q Q y y Q Q y y y y y ,.<.1.+.=.=.=.2.+.+.3.4.4.5.A Y 6.b X ; $ X . .   ",
"  . X . + % , , , y y y y y y = y y ! y y y y y y 7.8.9.0.q.w.9.9.q.e.r.r.t.4.y.5.u.i.p.@ O X . .   ",
"  . . . + * , , , y y y y y y ! y y ! y y y y y y a.s.9.9.d.f.g.h.j.k.l.z.x.c.v.b.n.a f X h o . .   ",
"  X . o % m., , , y y y y y y ! y y = y y y y y y M.N.B.V.C.Z.A.S.D.F.G.H.J.K.L.P.b.I.a 2 @ > X .   ",
"  . X > % , , , , y y y y y y Q ! = y y y y y y y U.Y.T.R.j.E.W.Q.!.~.~.^./.(.)._.`.'.I.].O : X .   ",
"  . . + * , , , , y y y y y y y y y y y y y y y y [.{.f.}.|.W. X.XXXoXOXoX+X@X#X$X%Xb.&XG o h o .   ",
"  . . # , , , , , y y y y y y y y y y y y y y y y *X=X-X;XW.!.:X>X,X<X1X2X3X4X5X(.6X7X8Xq 9X; o .   ",
"  X . # , , , , , , , y y y y y y y y y y y y y y 0XqXwXeXrXtXyXuXiXpXaXsXdXfXgXhXjXkXlXzXxXh o .   ",
"  . . # , , , , , , y y y y y y y y y y y y y y y cXvXD.bXnX>XmXMXNXNXNXNXNXBXVXCXXXZXAXSXxX@ $ .   ",
"  X X % , , , , , y y y y y y y y y y y y y y y y DXFXGXbXHXJXKXLXPXIXUXYXNXMXTXRXEX6XWXQX!Xh $ X   ",
"  X X % = , , , , , , , , , , , , , , , , , y , , ~X^X;X X^./X(X)X_X`X'XNXMX]X(X2XhX[X{X}X|X: $ X   ",
"  X . ;  o.oXoooooooOoOoOoOoOoOoOoOoOoOoOoOoOoOoOo.o+o@o XnX#o$o%o&oMXNXMX`X*o=o-oHX;o:oQX>o@ $ X   ",
"  X . h ,oooOoOoOoOoOoOoOoOoOoOoOoOoOoOoOoOoOoOoOo.o+o<o1oyX-o<X2oMXNXMX3o4o5o6o7oHX8o9ou.0o@ $ .   ",
"  . X @  oooOoOoOoOoOoOoOoOoOoOoOoOoOoOoOoOoOoOoOo.o+oqo XHX7owoMXNXMXiXeorotoyo>XXXZXuo..X @ $ .   ",
"  . X O ioXoOoOoOoOoOoOoOoOoOoOoOoOoOoOoOoOoOoOoOopo+oao XsoRXaXdoNXNXNXNXNXfofX+Xgo%Xho0 o : o .   ",
"  . . O ioXoOoOoOoOoOoOoOoXoXoXoXoXoXoXoXoOoOoOoOopo+ojoeX!.EXmXkoloUXloPXsXzoxoco;ovo&XG > : o .   ",
"  X X $ bo.oOoOoOoOoOoOoXonomomonoXonomonoXoOoOoOopo+oMoNorXBotXVo,XCoCoZo,X+XEXjXAo:ou.|X: O X .   ",
"  . . X bo.oooOoOoOoOoXo,omoOoXomononoOo,onoOoOoOopo+oSoE.W.DoFoGoHoHohXhXEXJoKoLoPo'.IoUo: $ . .   ",
"  . . . O ioXoOoOoOoOoXoXononoOonomoOoOomo,oXoOoOopo+oYoToRo;XF.!./.EoWoQo1o!o~o^ob./o(o$ : $ . .   ",
"  . . X o bo.oooOoOoOoXoXoXomoXoOo,oOomonoXoXoOoOopo+o)o_o`o'o]oW.F.[o[o[o{oz.c.y.}oa |oO > X . .   ",
"  X . . X : ioXoXoOoXoXoXo,ononoOoOoXomo,oXoXoOoOopo+o Oq.C..Oj.j.XOoOg.OO+O@OWX}ou.#O$ O o . X .   ",
"  . . . X o bo oXoXoXoXoXo,omoXoOonoOononoXoXoOoOopo+o$O9.%O&O*O=Or.r.-O2.;O:O5.S IoX O > X . X .   ",
"  . . . X X > bo,oXoXoXoXomo,oOonomoOoOomo,oXoOoOo>O,O<O%O=.1O0.t.2O=.+.4.3OA z v 4O> O o . . . .   ",
"  . . . . X X : 5O,oXoXononoOo,omonomoOoXomoXoOoOo6O+o7O=.[ 8O+.4.4.( P I V 9Os 0O$ O $ X . . . .   ",
"  . . . . . X o ; 5O,oXo,omomomo,o,omomomo,oOoOoOoqO+o] ) [ ( ) I I I S U D wOeO$ O > X . . . X .   ",
"  . X . . . . o $ ; 5O,oXoXoXoXoXoXoXoXoXoXoOoOoOoqO+o[ ( { ( | P  .U Y rOa tOo : > X . . . . X .   ",
"  . . . . . . . X o h 5O,oXoXoXoXoXoXoXoOoOoOoOoOoqO+oyO_ | uO_ U A Y IoiOpO$ O O o . . . . . . .   ",
"  . . . . . . . X X $ h bo o,oXoXoXoXoOoOoOoOoOoOoaO+oU S sOdOD T rOfOG X > O > o . . . . . . . .   ",
"  . . . . . . . X X X o O bo5O,oXoXoXoOoOoOoOoOoOoaO+ogOc dOx T R iOhOo O : $ X . . . . . . . . .   ",
"  . . . . . . . . X X X X $ h boio,oXoXoooOoOoOoOoaOjOkOwOa lOzO4OX > : > o X . . . . . . . . . .   ",
"  . . . . . . . . X . . X X o $ h boio o.o.oXoXoXoaOxOcOX . $ > : : O o X X X . . . . . . . . . .   ",
"  . . . . . . . X . . . . . X X X $ O h boboioioioaO> @ : : O : $ o X . . X . . . . . . . . . . .   ",
"  . . . . . . . . . X X . . X . . . . X o o $ > > $ $ $ o o X X X . . . . . . . . . . . . . X . .   ",
"  . . . . . . . . . . X X . X . . X . . X X . . X X X . . . . X . X . . . . . . . . . . . . . . .   ",
"  . . . . . X . . . . . . . . . . . . . . . . . . . . . . . . . . . . . . . . . . . . . . . . . .   ",
"                                                                                                    "
};
