/* XPM */
static char * image_name[]={
"50 50 131 2",
"  	c #8E2323",
". 	c #A1A1A1",
"X 	c #9E9E9E",
"o 	c #A3A3A3",
"O 	c #A6A6A6",
"+ 	c #B0B0B0",
"@ 	c #B3B3B3",
"# 	c #A8A8A8",
"$ 	c #ADADAD",
"% 	c #A52A2A",
"& 	c #6A6A8D",
"* 	c #4955A5",
"= 	c #222298",
"- 	c #999999",
"; 	c #ABABAB",
": 	c #DEB887",
"> 	c #27208B",
", 	c #0000FF",
"< 	c #969696",
"1 	c #91535D",
"2 	c #9C9C9C",
"3 	c #BD52BD",
"4 	c #919191",
"5 	c #B8B8B8",
"6 	c #B5B5B5",
"7 	c #232375",
"8 	c #3232CC",
"9 	c #8A8A8A",
"0 	c #5C5C5C",
"q 	c #6B3939",
"w 	c #9B7071",
"e 	c #696969",
"r 	c #403FFD",
"t 	c #4169E1",
"y 	c #DA322D",
"u 	c #B6E2CE",
"i 	c #141414",
"p 	c #FF7256",
"a 	c #FF6347",
"s 	c #CCCCCC",
"d 	c #2F2F64",
"f 	c #8484FE",
"g 	c #8988FF",
"h 	c #708090",
"j 	c #0F0F0F",
"k 	c #F08080",
"l 	c #8C8BFF",
"z 	c #918EFF",
"x 	c #8484FF",
"c 	c #474747",
"v 	c #0D0D0D",
"b 	c #1A1A1A",
"n 	c #080808",
"m 	c #787878",
"M 	c #949494",
"N 	c #D2691E",
"B 	c #757575",
"V 	c #8383FF",
"C 	c #8886FF",
"Z 	c #171717",
"A 	c #000000",
"S 	c #030303",
"D 	c #050505",
"F 	c #666666",
"G 	c #0A0A0A",
"H 	c #121212",
"J 	c #878787",
"K 	c #D11619",
"L 	c #B3B37E",
"P 	c #3F41F8",
"I 	c #5E5E5E",
"U 	c #858585",
"Y 	c #D52079",
"T 	c #545454",
"R 	c #96522D",
"E 	c #6E6E6E",
"W 	c #575757",
"Q 	c #2F4F4F",
"! 	c #000001",
"~ 	c #333333",
"^ 	c #636363",
"/ 	c #6B6B6B",
"( 	c #BC8F8F",
") 	c #D4D4D4",
"_ 	c #509F69",
"` 	c #8FBC8F",
"' 	c #8C8C8C",
"] 	c #212121",
"[ 	c #238E23",
"{ 	c #00AF14",
"} 	c #00562D",
"| 	c #41AC41",
" .	c #BEB1C5",
"..	c #525252",
"X.	c #32D838",
"o.	c #4A4A4A",
"O.	c #91D2A0",
"+.	c #00FF00",
"@.	c #262626",
"#.	c #454545",
"$.	c #1F1F1F",
"%.	c #616161",
"&.	c #BABABA",
"*.	c #D8BFD8",
"=.	c #BDBDBD",
"-.	c #B1B9C4",
";.	c #1C1C1C",
":.	c #8F8F8F",
">.	c #595959",
",.	c #7D7D7D",
"<.	c #B7644D",
"1.	c #F5280A",
"2.	c #BCA3C0",
"3.	c #F5DEB3",
"4.	c #737373",
"5.	c #73234E",
"6.	c #908DFF",
"7.	c #9492FD",
"8.	c #FF4500",
"9.	c #413FD0",
"0.	c #735694",
"q.	c #9A9DFE",
"w.	c #8482FF",
"e.	c #7A7A7A",
"r.	c #9EA1FE",
"t.	c #9090FF",
"y.	c #778899",
"u.	c #8B8CFF",
"i.	c #3D40DD",
"p.	c #707070",
"a.	c #8D8FFF",
"                                                                                                    ",
"  . . . X X . . . . . . . X . . . . . . . X . X X . . . . X . . . . . . . X . X . . . . . . . X .   ",
"  . . . . X X X . . . . . . . . . . . . . . X . . X . X . . . . X X . . X . . . . X X X . X . . .   ",
"  X X . . X . X . X . . X . . X . . . X . X . . X . X . . . X . . X . . o o o . X . . . . . . . .   ",
"  X . . X . . . . . X . . . . . . . X . . . . X . . . X X . . . X O + @ # o o $ @ # . X X X . . .   ",
"% . X . . X . . . X . . . X . . X . X X X . . . . . . X o . X . @ # & * = = = = & - @ # X . . X .   ",
"  . . . . . . . X X # + . X . X . . X . X . $ ; X . . . . X O : & > = = = = , = = = * ; $ X . . .   ",
"  . . o . . . X . + < 1 2 o . . X . O O $ @ 3 4 5 O . . X O 6 & 7 = = 8 8 8 8 8 8 , = = O ; X . X   ",
"  . X o @ 6 @ 6 $ 9 %   4 $ . . X o # O - 0   q w $ + # X : e 7 = = 8 8 8 r t t t 8 8 = > $ o X .   ",
"  $ w   1 1 w w 1 % y % w u @ ; O 1 %   q q   q i q   w u 9 7 = = = 8 8 t t t t t t 8 8 = & 6 X .   ",
"  # . q q q q   % p a   q 1 w 9 @ 1     q q q q i q q 1 s d 7 = = 8 8 8 t t f g t t t 8 = = . O .   ",
"  X 5 h j q q q   k a q q q q q u 3 % y   q q q q     - - 7 > = = 8 8 t t t l z x t t 8 8 = & + .   ",
"  X . u c v q q q % q q q b n m u M N a y q q q q     ; B 7 > = = 8 8 8 t t V C t t t 8 8 = * 6 .   ",
"  . . @ 4 q q Z j A S D v j q ; ; < a a % q   q q     # F 7 7 = = = 8 8 t t t t t t 8 8 = = * @ .   ",
"  X X # . q v G n n i H q q 0 5 ; J % K     %   q     L e i 7 > = = 8 8 8 t t t t P 8 8 = > I 6 .   ",
"  . . + U q q H n G % Y q q T 6 @ 1   q i H q H S j q R E j 7 > = = = 8 8 8 8 8 8 8 8 = = 7 & 5 .   ",
"  . . 5 q q   q j Z   a %   q 4 u w T W Q G ! ~ ^ / F ( m G 7 7 > = = = = 8 8 8 8 8 = = = 7 J + .   ",
"  . . ; w q q q q q q % %   q q @ o + s ) M I _ ` ' M + # ] 7 7 7 = = = = = = = = = = = 7 d $ . .   ",
"  . . X $ 6 w q q q q q q q q q 3 + $ 4 I [ [ { } { } } | } v 7 7 7 > > = = = = = = = 7 7 & 6 X .   ",
"  . . . X + # q q q T M < M ' w '  ._ } } { { { { { { { { { } b 7 7 7 7 > > = > > 7 7 7 ..5 . X .   ",
"  . . . . O O q q / u @ # # + @ O $ } } { { { { X.X.{ { { { { } G 7 7 7 7 7 7 7 7 7 j o.@ # X . .   ",
"  . . X . o # T e O.O X . . . X + J } { X.X.X.X.X.X.X.+.+.+.+.{ @.S D j 7 7 7 H v Z F 5 ; 2 . . .   ",
"% . X . . 2 . # + . 2 . . X . . 5 ^ } { +.X.X.X.X.X.X.+.+.+.+.{ _ M #.$.i Z b ~ %.- &.O X . . . .   ",
"  . . . . . X o . . X . . . . . @ } } { +.X.X.X.X.X.X.+.+.+.+.{ | *.&.. M < - $ =.$ X X . . . . .   ",
"  . . X . . . . X . . . X . . o # } } { +.+.X.X.X.X.X.+.+.+.{ { [ O O O ; ; ; o . . . . X . . . .   ",
"  . . . . X X # 5 6 6 6 6 5 6 u -.} } { +.+.+.X.X.X.+.+.X.{ { { [ # . . X . X . . . . X . . X . .   ",
"  . X X X X 6 - 1 1 1 1 1 1 1 1 1 } } { +.+.+.+.X.+.+.+.{ { { { [ O o X X . . X . X . . . . . . .   ",
"  . . X o u 4 q q q q q q q q q q ;.} { +.{ +.+.+.+.{ { { { { { [ $ . . X . X o $ ; . X X . . X .   ",
"  . 2 O u w q q q q q q q q q q q j } { { { { { { { { { { { { { _ 6 X . @ 6 &.O 9 :.+ $ X . . . .   ",
"  . O O >.q q q q q q q q q q q H v } { { { { { { { { { { { { { J $ # + ,.& B d 7 7 d - @ 2 . X .   ",
"  . $ <.    %   % %   % % % % q D H v { { { { { { { { { { { { [ # O @ W 7 7 H 7 = = > 7 X ; X . .   ",
"  . . a 1.Y y Y y y y y y a a q S v @.} { { { { { { { { { { } _ 2.3.4.j = = Z > 8 t t = >.6 . . .   ",
"  X # p 1.y y y y y y y y y y q S D 5._ { { { { { { { { [ [ | - *.9 d 7 7 7 7 7 8 6.7.8 d : X . .   ",
"  . # p 1.y y y y y y y y y 8.  S S q *.. _ _ _ _ _ _ _ ` o @ + X d 7 = = = = 7 > 9.t = 7 - $ X .   ",
"  . O w y y y y y y y y y y y % S n @.o + $ *.: & I 0.3 M : $ @ B i = 8 t 8 = 7 7 = > = = > + . .   ",
"  . O ( y y y y y y y y y y y % n D H M $ # ; d 7 7 7 7 7 d . 3.4.i > 8 q.t = 7 7 > 7 * t > 2 O .   ",
"  . o . a y y y y y y y y y y y v A ~ $ o 6 W 7 = 8 = = = 7 d 5 . ;.7 = t 8 = 7 7 > = 7 = > o o .   ",
"  X . o a y y y y y y y y y y y j ! B =.o O 7 > t w.= = 8 = 7 B 3.e.Z 7 7 7 7 7 = 8 t = 7 & 6 . .   ",
"  . . O p 1.y y y y y y y y y y G b # # O O d = 8 = = t t 8 7 I 5 3.W j 7 = d 7 = t r.t 7 M ; . .   ",
"  . . # p 1.y y y y y y y y y y H T u X O O d 7 = = 8 t t.8 7 / @ + 4 i = t d 7 = t t 8 7 X O X .   ",
"  . . # ( 1.1.1.1.1.1.1.y y 1.1.q y.; . O ; d 7 8 t u.i.= > 7 E 5 X 5 p.7 = 7 j 7 = = 7 & @ X . .   ",
"  X . o 2 p a p a a a a a a a a w ; 2 X . 6 ^ 7 = t a.t 7 7 7 9 + X . @ 9 >.& & d 7 d & + o . . .   ",
"  . . X o O # # O O O o O o O O ; . . . . O + d 7 = 8 = 7 7 * @ . . . X + 5 6 5 $ 2 # 6 . X X . .   ",
"% . . . . . . . . . . . . . . X . . . . X 2 $ # ..7 7 7 7 %.$ # X . X . . . . X o # o X . . . . .   ",
"  . . . X X X X . . . . . . . . . . . . . . X ; @ 4 9 < . @ O X . . . . . X X . . . . X X . . . .   ",
"  . . X . . . . . . X . . . . . . X X . . X . X . ; $ # # . X . X X . X . . . . X . . . . . . X .   ",
"  . . X X . X . . . . . X . . . . . . . X . X . X . . . . . . . . . . . X . . . . X . . X . . X .   ",
"  . . X . . . . . . . . . X X . X X . . X . . X . . . X . . X X . . . X . . . X . . . . . . . . .   ",
"  . . . . . . X . . . . . . . . . . . . . . . . . . . . . . . . . . . . . . . . . . . . . . . . .   ",
"                                                                                                    "
};
