/* XPM */
static char * image_name[]={
"50 50 89 2",
"  	c #8E2323",
". 	c #6B3939",
"X 	c #8C8C8C",
"o 	c #8A8A8A",
"O 	c #6A6A8D",
"+ 	c #5470AA",
"@ 	c #91535D",
"# 	c #A22E61",
"$ 	c #D52079",
"% 	c #B7644D",
"& 	c #DA322D",
"* 	c #3232CC",
"= 	c #3F49CC",
"- 	c #878787",
"; 	c #858585",
": 	c #BD52BD",
"> 	c #3B42AD",
", 	c #4955A5",
"< 	c #708090",
"1 	c #735694",
"2 	c #509F69",
"3 	c #595959",
"4 	c #737373",
"5 	c #D11619",
"6 	c #787878",
"7 	c #575757",
"8 	c #00562D",
"9 	c #238E23",
"0 	c #6E6E6E",
"q 	c #4D4D4D",
"w 	c #32D838",
"e 	c #5DF370",
"r 	c #545454",
"t 	c #778899",
"y 	c #5773B8",
"u 	c #4169E1",
"i 	c #171717",
"p 	c #78D54B",
"a 	c #00AF14",
"s 	c #3E4DC2",
"d 	c #3D49C3",
"f 	c #3342C3",
"g 	c #3544C1",
"h 	c #7CFC00",
"j 	c #696969",
"k 	c #3E4AC0",
"l 	c #3C4BC0",
"z 	c #3B4ABF",
"x 	c #3E4EBD",
"c 	c #3F4BBB",
"v 	c #2D41C6",
"b 	c #62D4A2",
"n 	c #3A49C0",
"m 	c #757575",
"M 	c #3C4AC7",
"N 	c #3B42D1",
"B 	c #3440D2",
"V 	c #3142D0",
"C 	c #3742D0",
"Z 	c #3447C7",
"A 	c #3B4AC7",
"S 	c #FF0000",
"D 	c #3A43CE",
"F 	c #3542CF",
"G 	c #3140D1",
"H 	c #3D45CC",
"J 	c #3241CE",
"K 	c #3443D2",
"L 	c #3DC642",
"P 	c #3B43C8",
"I 	c #3D47CB",
"U 	c #3140CD",
"Y 	c #3640D5",
"T 	c #55562F",
"R 	c #0000FF",
"E 	c #27208B",
"W 	c #616161",
"Q 	c #707070",
"! 	c #5C5C5C",
"~ 	c #828282",
"^ 	c #141414",
"/ 	c #666666",
"( 	c #3541D3",
") 	c #8F0052",
"_ 	c #3744D0",
"` 	c #7D7D7D",
"' 	c #1A1A1A",
"] 	c #525252",
"[ 	c #A52A2A",
"                                                        . . . . .                                   ",
"  X X o o o o o o o o o o o o o o o o o X X o o o o O + O O O O + o X o o o X o o o o o o o o o o   ",
"  X o o o o o o o o o o o o o o o X X o X o X o O O O O O O O O O o o o X o o o o o o o o o o o o   ",
"  o o X o o X o o o o o o o o o o X X o o o O O O O O O O O O O X o X o o X o o o o o o o o o o o   ",
"  o o o o X o o o o o o o o o o o X X O O O O O O O O O + O o o o o X o o o X o o o o o o o o o o   ",
"  o o o X o X o o o o o o o o o o o o @ # # @ O O O O O X X o o o X o o o o o o o o o o o o o o X   ",
"  o o X o X o X o o o o o o o o o X X $ $ $ # O O O o X o X o X o o X o X o o X o o o o o o o o o   ",
"  X o o o o X o o o o o o o o o X o o $ $ $ @ O X o o o o o X X o X o o o o X X o o o o o o o o o   ",
"  o o o o o o o o o o o o X o o X X o % & % o X o o o o o o o o o o o o o o o o o X o o o o o o o   ",
"  o o X o o o o X X o o X o X X X X X o o o X o o o o o o o o o X X X o o o o X X o o o o o o o o   ",
"  o o o o o o o o o o o o X X X o o o o o X o o o o o o o o o o o o o o X o o X o o o o o o o o o   ",
"  o o o o o o X o X X o X o o o o o o o o o X o o o o o o o o o X o o o o o o o o X X X o o X o o   ",
"  o X o o o o X o o o X o O + * = o X o o o o o o o o o o o o o o X X o X o X X X o o o o o o X o   ",
"  o o o X o o X X o O O O O O O + o X X o o o o o o o o o o o o o o o o o o o o o o o o X o O O O   ",
"  o X o o o o o O O O O O O O O O o o X X o o o o o o o o o o o X o o o X o X o o o O O O O O O O . ",
"  o X o o o O O O O O O O O O O O - - o o o o X o o o o o o o o X o o X o o o O O + O O O O O O O . ",
"  o o @ # $ @ O O O O O O + O - - o o ; - X o o o o o o o X o o X o X @ # @ O O O O O O O O O O O . ",
"  o X # # # # O O O O + O o o X - - - - ; O - o X X o X o o X X o X o $ $ $ @ O O O O O O O O O o   ",
"  o - # # # # O O O - o o - - o X o ; : - ; O O o X X o X o X o o o - $ & # # O O O O O o o o o o   ",
"  X o @ # # @ O o X o o - o o - - - o - O O o O O O o o o o X o o o o @ $ # @ O O o o o X o o o o   ",
"  o o X - - o o o o o X o - - o o O O o o O O O O > , + + + o o X o o X - - o o X o X o o o o X o   ",
"  o X o X X o X o o o ; o o - < ; X ; O O O + , , + , , , + o X o X o X o o o o o o X o X X o X o   ",
"  o o o o o X X o X o o ; - o X : 1 + + , , , + , , , + + , o o o X o o X o o X X o o X o o o o o   ",
"  X o o o o X o o X 2 3 4 - O # 5 5 # , + + , , + + + + , + ; - o X o o o o o X o o o X o o X o o   ",
"  o X o o o X 6 7 8 8 9 8 4 - 5 5 5 5 1 , , + + + O o - ; - o - O ; o o o o o X o X o o o X o o o   ",
"  X o - 0 q 8 8 9 w e e 9 r o 5 5 5 5 , + + , O o o - o o - O t o O , , y u u o o o X o o o X X o   ",
"  o i 8 8 9 p e e e e e a 8 o @ 5 5 # O O O o < ; - o t + , , s d , , f g , , X o o o o o X o X o   ",
"  3 9 h e e e p 9 9 9 9 8 j X o o - X o o O O % 5 5 # , , k l , , z x , c v , o o X X o o o X o o   ",
"  2 8 9 e b b p 9 8 8 3 4 X o X o o X o X X - 5 5 5 5 c n , , , , , , d u , , O - o o o X X o X o   ",
"  X m 8 e b e e e e w 9 8 8 0 o o o o X o X o 5 5 5 5 , , M , , , u u y , * N B * V C u o X o o o   ",
"  X o 8 9 e p 9 e e e p w 9 8 8 r 2 X X o o o % 5 5 # Z A # 5 S # D F * * G * * H J * K - - o o o   ",
"  o X 0 8 e e 8 8 9 w w L 9 9 a 9 8 8 j ; o o o o - o o < S S S S P u I U * P * * * * * * * Y - o   ",
"  X o o 8 h e 9 T r 8 8 9 a a 9 9 a a 8 i 8 4 o o X o X o S S S S S S # * * * * * * * * * * * R R E ",
"  o X o W 8 e e 8 Q o 4 q 8 8 9 a a 9 9 a 8 8 8 ! < o X o # S S S S S S S S # * * * * R * R R R R R ",
"  X o X ~ 8 p e 9 8 X o o o 6 r 8 8 8 9 9 8 9 a 8 8 8 Q o X o : 5 S S S S S S R R R R R R R R R R E ",
"  X X o X q 9 e e 8 W X X o o o o 4 q ^ 8 8 9 9 a a a 8 8 ! 2 / T 5 S S S S S R R R R R R R R R (   ",
"  o o o o 2 8 e e w ^ o o o o o o o X o 0 T i 8 a a a w a 9 8 8 8 9   S S S ) R R R _ O O O O o o   ",
"  X o o o o 8 9 h 9 i o X X o X X o o X o X - / 8 8 8 9 w w w 9 8 a 8 ` : - o o o o o X X o o X o   ",
"  o o X o o 4 8 8 T 2 o X o o o X o o o o o o o X ; 0 8 ' 8 9 w p p 9 3 o o o X o X X X o X o o o   ",
"  X X o o o o 6 j o X o X X o o o o o o o X o o o X o o - j 8 i 9 h 9 ] X o o o o o o X o o o o X   ",
"  o X o o o X o o o o o X o X o o o o o X o o X X o X o o o i 9 w 9 8 ~ o o o o o o o o o o o o o   ",
"  X o o X X o o X X o o o o o o X o o o o o o X o o o o o o i 9 8 7 o o o o X o o o o o o o o o o   ",
"  o o X X X o o o X o o X o o o X X o X X X o o o - - o o o < ] / o o o - - X o o o o o o o o o o   ",
"  X X X o X X o X o o X o o X X o o o o X o X o @ $ $ @ O O O O O O O O O O O O o o o o o o o o o   ",
"  o o o X X X o o o X o X o X o o o X X X o o o $ $ # [ O O O O O O O O O O O O o o o o o o o o o   ",
"  o o X o X @ # # @ O O O o o o o o o o o X o X @ $ $ # O O O O O O O O O O O O o o o o o o o o o   ",
"  X o o o o # $ $ # O O O O O O O O O O O o o o X @ # @ O O O O O O O O O O O O o o o o o o o o o   ",
"  o X o X o # $ & & O O O O O O O O O O O o X o o X o o o o o X o X o o o o o X o o o o o o o o o   ",
"  o X o o o @ $ $ @ O O O O O O O O O O O o o o o o o o o o o o o o o o o o o o o o o o o o o o o   ",
"                      . . . . . . . . . .                                                           "
};
