/* XPM */
static char * image_name[]={
"50 50 77 2",
"  	c #49D4F0",
". 	c #19CCDF",
"X 	c #A1A1A1",
"o 	c #9E9E9E",
"O 	c #A3A3A3",
"+ 	c #8A8A8A",
"@ 	c #616161",
"# 	c #636363",
"$ 	c #858585",
"% 	c #9C9C9C",
"& 	c #4D4D4D",
"* 	c #4F4F4F",
"= 	c #A6A6A6",
"- 	c #757575",
"; 	c #363636",
": 	c #424242",
"> 	c #3B3B3B",
", 	c #303030",
"< 	c #999999",
"1 	c #878787",
"2 	c #2E2E2E",
"3 	c #575757",
"4 	c #7F7F7F",
"5 	c #787878",
"6 	c #383838",
"7 	c #333333",
"8 	c #4A4A4A",
"9 	c #696969",
"0 	c #919191",
"q 	c #8F8F8F",
"w 	c #666666",
"e 	c #3D3D3D",
"r 	c #454545",
"t 	c #474747",
"y 	c #5E5E5E",
"u 	c #595959",
"i 	c #A8A8A8",
"p 	c #7E7E7E",
"a 	c #545454",
"s 	c #5C5C5C",
"d 	c #525252",
"f 	c #828282",
"g 	c #7A7A7A",
"h 	c #529584",
"j 	c #00938F",
"k 	c #00A6A6",
"l 	c #6B6B6B",
"z 	c #6E6E6E",
"x 	c #00BFFF",
"c 	c #20B2AA",
"v 	c #212121",
"b 	c #404040",
"n 	c #778899",
"m 	c #292929",
"M 	c #121212",
"N 	c #1A1A1A",
"B 	c #2B2B2B",
"V 	c #262626",
"C 	c #949494",
"Z 	c #1C1C1C",
"A 	c #1F1F1F",
"S 	c #5F929E",
"D 	c #32BFC1",
"F 	c #141414",
"G 	c #171717",
"H 	c #7D7D7D",
"J 	c #080808",
"K 	c #8C8C8C",
"L 	c #969696",
"P 	c #050505",
"I 	c #ABABAB",
"U 	c #00D2D2",
"Y 	c #242424",
"T 	c #0D0D0D",
"R 	c #0F0F0F",
"E 	c #707070",
"W 	c #737373",
"  . . . . . . . . . . . . . . . . . . . . . . . . . . . . . . . . . . . . . . . . . . . . . . . .   ",
". X o X o X o o X X X X X X X X X X X X X X X X X O + @ # $ O X X X X o X X X X X X X X X X X X X . ",
". X o X X X o X X X X X X X X X X X X X X X X X X % & * * * % X X X o X X X X X X X X X X X X X X . ",
". X X o X o X X X X X X X X X X X X X X X X X X = - ; : > > % X X X X o X X o X X X X X X X X X X . ",
". o X X X o X X X X X X X X X X X X X X X X X X % : ; ; , > < = X X X X X X X X X X X X X X X X X . ",
". X X o o o X X X X X X X X X X X X X X X X X O 1 , ; ; 2 2 3 4 O O O O O X X X X X X X X X X X X . ",
". o o X X X X X X X X X X X X X X X X X X X X = 5 , > 6 7 , & 8 9 0 q + - w 1 O X X X X X X X X o . ",
". o X X X X X X X X X X X X X X X X X X X X X = - e r : r : t 3 8 r 3 y u e $ i O O O X X o X X X . ",
". X X X X X X X X X o X X X X o X X o X X X X = p * 3 a u # u * * & s # r d f g 5 5 f < X X X X X . ",
". X X X X X X X X X X X o X X X X X X o X X X X f @ # # w w s d & d u @ a # @ @ # w w 9 % X X X X . ",
". X X X X X X X o h j j j j j j k h 0 X X X X O $ 9 l 9 9 @ 3 & t t t > 8 z w w # @ & # O o X X X . ",
". X X X X X X X 0 k . . . . . . . x c X X X o = 1 9 l l w y d t e ; v 2 @ @ 3 & b 7 y % X X o X X . ",
". X X X X X X X n k . k k k k k k k 0 o X X o O 1 9 9 l w s & > m M N & & > B V V 8 O X X X X X X . ",
". X X X X X X X n k . k n n n n n C o X o X X O $ w 9 9 # 3 t , Z A 8 s d m 2 * z % O X X o X X X . ",
". X X X X X X X n k . k o X X X O o X o o o X O f @ w # @ 3 8 > e & @ w l s s p C % O O X X o X X . ",
". X X X X X X X n k . k o o o X o X X X X X o O f y @ @ s a * * 3 y # w w l 9 w # w - + o X X X X . ",
". X X o o X X X n k . k o X o X X o X X X X X O f s y s s 3 a 3 u u u u s s @ # w l w s l C X X X . ",
". X X X X o X o S k . k % X C S n o X X o X o O f 3 u u u 3 a a & t r : : r r 8 & * * a u z = X X . ",
". X o X X X o X S D . k % C k D k n X X X X X O f a a a a d & r 6 V N M F F G N N A m ; e H O X X . ",
". X o X X o o X S D . k < k k x D S X X X o o = f 8 & * & 8 : ; V M J F 7 y 9 y u s @ l K O X X X . ",
". X X X 0 k k C L k . k n k x x k C X X o X o = $ : r : b e 6 2 N P A 8 s 9 K I I i i = O X X o X . ",
". X o C k x x k k j . x h k . x k % o X X X X O + 6 6 ; 7 2 V M V r > b & u u z % X X o X X o X X . ",
". o X L k D . x k k D . j U . k n o X X X o X O C 7 V Y N T T e C I % $ 9 u & t f O X X X X X X X . ",
". X X o C k x . . x k . D . x k o o X X X X o X O 7 P R Z 8 H = O X X = = X 0 + % X X X X X X X X . ",
". X X o X L h k x . . . . . k n X X o X X X X o = - # $ < i = X X X X X X X O O X X X o X X X o X . ",
". X o X o X o n c k x . . x c X X X X X X X o O = = i = O O O X X o o X o X o X X X X X X X X X X . ",
". o X X X o X o o n c k x k n X O X X = O X O K 4 o O O O $ + X X O = X X X X X X X X X X X X X X . ",
"  o X X X X X X o X X n c n o < + o O g $ O % & : # C L l & & C = K f X o L X X X X X X X X X X X . ",
". X o X X X o X X o X X o X = g & l g 8 & # @ > e e r e 6 r : H l u * z 9 3 C O X X X X X X X X X . ",
". X X o o O X X X X o X X o X L * 3 * d a 6 e & & * t 8 & : > > r d 3 @ a y X X X X X X X X X X X . ",
". X X X X X o X X X X o X O = I 1 8 r s # * > > e > e s # 8 & b 2 : y a 3 % O X X X o X X X X X X . ",
". X X X X X X o X o X X o K + K L u 2 e 8 & r r 8 ; e 8 t 6 d * b , r a < X < L o X X o X X X X X . ",
". X X X X o X X X X X = E * u u d e t , 7 e r a @ r > 6 7 m * u & ; , * 9 # # @ w $ O o X X o X X . ",
". o X X X X o X = O X = f t * 3 t t & , 2 > : d y 8 e ; , m r u 3 : V 8 s w w # & 9 = o X o X X X . ",
". X o X X X O < H E 9 w w d t 8 t b b & r r 8 a 3 d t r r * 8 b 8 * : b 8 & & b y < O X X X X X X . ",
". X X X X X 0 w # w w w @ s a d * a @ 9 # u u s y s u u y 9 y r e r * u 3 u 3 3 @ w p X X X X X X . ",
". X X X X O $ a # 9 z l @ # # s s y @ 9 9 9 w w w w w w 9 # s a d a u 3 w 9 9 9 l l y $ O X o X X . ",
". X o o X X X f # 3 * d * @ s 3 3 3 s # 9 l 9 9 9 9 9 l w @ a & & a @ @ u w @ @ s 3 s 0 O o X o X . ",
". X X X X X X = I z b b b > b e : & a y w 9 l 9 l 9 l 9 w s * r : : r t r 8 : > r t z % X X o X X . ",
". X o o X X O C W d 3 a * 3 u t 2 2 : 3 @ w 9 9 9 9 9 9 # 3 t ; V B e a & > a d & a a y % X X X X . ",
". X o X X X C s u s s @ l E l w 3 : e & s @ w w 9 9 w w @ 3 t 6 > d # 9 l u d s # y 3 & + O X o X . ",
". X X X X O f a w l z z l w # @ y u * & a s @ @ # # # @ s 3 * d s @ # # 9 z 9 y 3 # l # 9 o o X X . ",
". X X o X O 0 u # @ u a & 8 : e e : & * d 3 s s y @ y s u 3 3 3 a d & d 3 @ w l z w y s d < X X X . ",
". o X X o X o E u u 3 s # z 9 @ E 3 ; r & a 3 3 s s s u 3 a d 8 7 ; 3 * r : t & u @ 3 s + X X o X . ",
". X X o X o X O X X X = = = = i i = # B e 8 * d a a a a d 8 r B 2 1 = o L + 5 @ a a z X O X o X X . ",
". o X X X X X X X X X X X X X X X X = W 7 , e r t 8 t r b ; m t C = X X X O = = O X = X X X X X X . ",
". X o X o X X X X o X X X X X X X X X = C s > 2 2 2 2 B , r W X = X X X X X X X X X o X X X X X X . ",
". X X X X X X X X o X o X X X X X X X X O = % 1 - W W H 0 O = X X X X X X X X X X o X X X X X X X . ",
". X X X X X o X X X X X X X X X X X X X X X X = = = = = O X X X X X X X X X X X X X X X X X X X X . ",
"  . . . . . . . . . . . . . . . . . . . . . . . . . . . . . . . . . . . . . . . . . . . . . . . .   "
};
