/* XPM */
static char * image_name[]={
"50 50 158 2",
"  	c #B7644D",
". 	c #32D838",
"X 	c #238E23",
"o 	c #8E2323",
"O 	c #6B3939",
"+ 	c #00FF00",
"@ 	c #A1A1A1",
"# 	c #9E9E9E",
"$ 	c #A3A3A3",
"% 	c #41AC41",
"& 	c #6B6B6B",
"* 	c #6E6E6E",
"= 	c #707070",
"- 	c #8FBC8F",
"; 	c #3FDC43",
": 	c #73DE78",
"> 	c #509F69",
", 	c #36CA40",
"< 	c #78D54B",
"1 	c #34CB40",
"2 	c #32814B",
"3 	c #529584",
"4 	c #737373",
"5 	c #3CC342",
"6 	c #3DC149",
"7 	c #696969",
"8 	c #5E5E5E",
"9 	c #545454",
"0 	c #575757",
"q 	c #4F4F4F",
"w 	c #5C5C5C",
"e 	c #A52A2A",
"r 	c #3BC845",
"t 	c #616161",
"y 	c #73234E",
"u 	c #91535D",
"i 	c #1F1F1F",
"p 	c #2E2E2E",
"a 	c #00562D",
"s 	c #2F4F4F",
"d 	c #383838",
"f 	c #292929",
"g 	c #171717",
"h 	c #141414",
"j 	c #363636",
"k 	c #778899",
"l 	c #8F8F8F",
"z 	c #858585",
"x 	c #34D440",
"c 	c #3EC046",
"v 	c #666666",
"b 	c #4D4D4D",
"n 	c #262626",
"m 	c #242424",
"M 	c #5DF370",
"N 	c #9C9C9C",
"B 	c #39C443",
"V 	c #34DF43",
"C 	c #ABABAB",
"Z 	c #91D2A0",
"A 	c #37C147",
"S 	c #38C346",
"D 	c #4A4A4A",
"F 	c #A6A6A6",
"G 	c #828282",
"H 	c #787878",
"J 	c #525252",
"K 	c #3FD74E",
"L 	c #949494",
"P 	c #999999",
"I 	c #39D242",
"U 	c #757575",
"Y 	c #2B2B2B",
"T 	c #34C441",
"R 	c #3CCF4D",
"E 	c #3FD84C",
"W 	c #708090",
"Q 	c #7A7A7A",
"! 	c #38CF44",
"~ 	c #212121",
"^ 	c #595959",
"/ 	c #A22E61",
"( 	c #636363",
") 	c #7CFC00",
"_ 	c #878787",
"` 	c #9B7071",
"' 	c #3AC842",
"] 	c #7D7D7D",
"[ 	c #3CC046",
"{ 	c #55562F",
"} 	c #8C8C8C",
"| 	c #62D4A2",
" .	c #3FE14D",
"..	c #3BC249",
"X.	c #39C644",
"o.	c #3BD947",
"O.	c #37C741",
"+.	c #919191",
"@.	c #38DB44",
"#.	c #3FC049",
"$.	c #3DC14A",
"%.	c #3AC246",
"&.	c #38C543",
"*.	c #38E146",
"=.	c #3BC146",
"-.	c #3BC144",
";.	c #3CC841",
":.	c #39DC45",
">.	c #3FC04C",
",.	c #36C640",
"<.	c #3DC549",
"1.	c #3CC245",
"2.	c #35D142",
"3.	c #38C845",
"4.	c #39C143",
"5.	c #8A8A8A",
"6.	c #3DCE4B",
"7.	c #3ECA4D",
"8.	c #969696",
"9.	c #A8A8A8",
"0.	c #3CE34B",
"q.	c #7E7E7E",
"w.	c #3BDB47",
"e.	c #454545",
"r.	c #36D147",
"t.	c #3AE348",
"y.	c #3FC44D",
"u.	c #3BCE49",
"i.	c #3AC244",
"p.	c #38DB4A",
"a.	c #39DE42",
"s.	c #3CC049",
"d.	c #3CE240",
"f.	c #3BC345",
"g.	c #36D642",
"h.	c #34D642",
"j.	c #38CF42",
"k.	c #3BCB45",
"l.	c #3BD446",
"z.	c #36CE47",
"x.	c #3DC346",
"c.	c #3BC649",
"v.	c #B3B37E",
"b.	c #3FCC4A",
"n.	c #3BC744",
"m.	c #37C441",
"M.	c #96522D",
"N.	c #CD853F",
"B.	c #BDB76B",
"V.	c #3B3B3B",
"C.	c #35CC41",
"Z.	c #F4A460",
"A.	c #B8860B",
"S.	c #36C643",
"D.	c #39C643",
"F.	c #39C542",
"G.	c #D2691E",
"H.	c #37C940",
"                                              . X o o o o O +                                       ",
"  @ @ @ # @ @ # @ @ @ @ # @ # @ @ @ @ @ @ $ + % & * = * * = * . - # @ @ @ @ @ @ @ @ @ @ @ @ @ @ @   ",
"  @ @ @ @ @ @ @ @ @ @ @ # @ @ @ # @ @ $ ; . . & * * = * = * * & + : @ @ @ @ # # @ @ @ @ @ @ @ @ @   ",
"  @ @ # # @ @ # # @ @ @ @ @ # # @ @ $ + % & > , * * = * * * = % % . : @ # @ @ @ @ @ @ @ @ @ @ @ @   ",
"  # @ # @ @ # @ @ @ # @ # @ # @ $ < . > * * * > . * * * * > 1 > & & . < $ @ # @ @ @ @ @ @ @ @ @ #   ",
"  @ @ @ @ @ @ @ @ @ # @ # @ @ @ . % * * = * = * > . * * > 2 = * * * & . . @ @ @ @ @ @ @ @ @ @ @ @   ",
"  @ @ @ # @ @ @ # @ @ # @ @ 3 + % & * * = 4 = = * > . . % = = = * * * & 5 . @ @ @ @ @ @ @ @ @ @ @   ",
"  # @ # @ @ @ @ @ @ @ @ $ . 6 * . > 4 = 7 8 9 O O O 0 0 q w 7 = = * * * & 2 + @ @ @ @ @ @ @ @ @ @   ",
"  @ # @ @ @ @ @ @ @ @ @ . > * * > . 8 O o e               e o O 8 = = * > 2 2 . @ @ @ @ @ @ @ # @   ",
"  @ @ # @ # @ @ @ $ . r & * = = 8 O e     e O O O O O O O e     e O t % 2 * & > + $ # @ # @ # @ @   ",
"  @ # @ @ # @ @ $ + > * * 4 & y o   u O O i p O a s O d f g g O u   o 9 = = * * > + $ @ @ # @ @ @   ",
"  # @ @ # @ $ < . . = * = & O e   O h j 2 k l z > x . c = v b n h O   e O & = * * > + $ # # @ @ @   ",
"  @ # @ @ @ . > & > . > v O   e O m > M : M N l > % . > * = 4 B 2 i O u e O * = * * * . $ @ @ @ @   ",
"  @ @ @ : . * * * * > . O   o h a V : $ C Z M k < > 4 . > * A > > . p O e e O = = * * S + @ @ @ @   ",
"  @ $ . > * * * * = = O e e h D M . - C F @ M + G H 4 * . . > * 4 > . a O u o J 4 > . > * . k @ @   ",
"  - + & * * = * * 4 w o u O s K L # M $ P M k > I U = > % . > U H H . . Y O   O & . = * * * . : @   ",
". > T > & * * * = * O   O f R l N $ @ . E W Q H > . % > = = ! > > < > > . ~ o e O * = * = * & . M   ",
"O & * . > * * * = ^ o e g 8 E : @ $ : < . Q U 4 > . . * = 4 4 . . z Q U > 9 O / O ( = = * = * & . ) ",
"o = & * . * = * = O e O O > _ M : : k ` > . 4 > 2 4 > ' = = < > < > G ] > [ m o e { = = = * * = & { ",
"o * * = > . * * & O e O J > } | + - z ] 4 > + > = 4 * % . 2 > Q _ M k > < > O O e O = * * * * * = { ",
"o = * * * > . % > o e ~ > G M | F  .W U > ..% X.= * = > + % * H G l + o.Q U w O e O ( = * = * > O.O ",
"o = * * * = + . y o o f . . N F @ +.@.% % 4 * > . = #.% * $.% 4 > M k M > U & O e O 8 4 = * > %.= o ",
"o = * * > &.* . q e O { < *.$ F # } . . 4 = = * =.+ > * = = -.;.% > l l :.> > O o o t > * % % * * o ",
"o * = 2 % = * > { e O O _ P M F - M > > . 4 4 > % >.2 = * = > + > ` } +._ + . O o o 9 . . > = * * o ",
"o > ,.> * * * = O e O O l P Z . : l G H > <.> % = * 1.% * 2 > = 2.> _ l < > 3.O o o 0 . . > & * * o ",
"{ 4.= * * * * 4 O o o O 5.N : M : +.z Q H + . * 4 = * . . > = = U 6.> M > H * O e O v > = . > * * o ",
"{ * * * = * * = 9 o o O > M - F M : 5.> 7.H <.> = = > % . > * = U > + > ` H 8 O e O t = * = . > * o ",
"X 7 = * = * * 4 t O e O > } 8.F 9.M 0.> q.H U . > % % = = . > 4 > > _ w.> U e.O e O * * * * * . > o ",
"+ % & * * * = = & O e O J > _ 8.F : . l G q.U > + % 4 4 = 4 . r.> _ _ W . > O o o O 4 * * = * * . { ",
"  + > * * * = * > q o e O . > k M @ N t.k Q > y.> . > U 4 H u.. _ _ G H > > O e O 8 = * = * * * = X ",
"  - + & * * * % i.( O e O O + < 5.L L } p.> < > H > . U > < z _ a.z H > s.O o o O * * = * * * = * o ",
"  @ d.. 7 = f.> * = O o o O > . ] G G ` g.+ H H H U > + > z _ 5.> h.> . O O e O 0 4 * * = * * * & . ",
"  # @ + . % > * = = v O e o O > j.U > y.> > k.U H Q > l.< _ _ z ` z.+ O O e o O . = * = * * * * . ) ",
"  @ @ $ + > & = * * 4 J o   o O % . x.> = = c.% H < > ` : M v.Q < > { O e o O 7 > . = * * * * + :   ",
"  @ @ @ @ + * * * 4 * v O e   o O 0 > U 4 = = . . Q ] G G < b.j.v O O e e O t = * > . = & > + - @   ",
"  @ @ @ @ < . * * t t & w O o e e O O b v 4 % n.. > ] > > > . { O o e o O w 4 = * * > m.% + $ @ @   ",
"  @ @ # @ @ + % ^ 8 t ^ b = 0 O o e o O O O J ^ t % v w O O O o e e O O ( 4 * * = * 7 . + @ @ @ @   ",
"  @ @ # @ $ +.M.N.B.( V.& 3 U 8 O O e e e o O O O O O O o o e e o O y * 4 * = * * * C.+ @ @ @ @ @   ",
"  @ @ @ $ +.M.N.Z.N.{ s 2 = * 4 = 0 O O o e e e e e / e e e O O O 2 > = = * * * & . . $ # @ @ # @   ",
"  # @ $ v.M.N.Z.N.{ { > * * = * * = 4 8 D O O O O O O O O O J v = > . = * * * * . M @ @ # @ # @ @   ",
"  @ $ v.M.N.Z.A.{ { S.* * = * * * = = = 4 = . > > t ( 7 * 4 4 = * * > . * * * + : @ @ @ @ # @ @ @   ",
"  $ v.M.N.Z.A.{ { # + > * * = * * * * * * * % + > = = = * * * * = * & > -.> + - @ @ @ @ # @ @ @ @   ",
"  v.M.N.N.A.{ { # $ $ + = * = * * * * * * % % > . & * = * * = * * * * & . + $ @ @ @ @ @ # @ @ @ @   ",
"e M.N.N.A.{ q # F # @ k . * * * * * * * % > * * % D.* * * * * = = * & % + @ @ @ # @ # @ @ @ @ # @   ",
"e A.Z.A.{ 9 @ $ # @ @ @ . . * = = * * =.> * * * * . % * * = = * * & F.+ $ @ @ # @ @ @ @ @ @ @ @ @   ",
"G.Z.M.{ 9 @ $ @ @ # # @ $ + > * * > D.* * * = * * * . > * * = * & . . @ # @ # @ # @ @ @ @ @ # @ @   ",
"G.M.{ 8 F @ @ # @ @ @ @ @ $ + * > 2 = * * * * = * * = . > * * * . < @ @ @ # @ @ @ @ @ @ @ # @ @ @   ",
"e { v F @ @ # @ @ # @ @ @ @ $ + % * * * * * * * * * * > . * & . : @ @ @ @ @ @ # # @ @ @ @ @ @ # @   ",
"O = F @ @ @ @ @ @ @ @ @ # @ @ M H.& * * * * * * * = * * > . + # @ @ @ @ @ @ @ @ @ @ @ @ @ @ @ @ @   ",
"o                               + { o o o o o o o o o o O +                                         "
};
