/* XPM */
static char * image_name[]={
"50 50 65 2",
"  	c #A52A2A",
". 	c #8E2323",
"X 	c #A1A1A1",
"o 	c #9E9E9E",
"O 	c #8FBC8F",
"+ 	c #A6A6A6",
"@ 	c #62D4A2",
"# 	c #529584",
"$ 	c #A3A3A3",
"% 	c #5F929E",
"& 	c #616161",
"* 	c #595959",
"= 	c #509F69",
"- 	c #666666",
"; 	c #5C5C5C",
": 	c #4A4A4A",
"> 	c #424242",
", 	c #474747",
"< 	c #4D4D4D",
"1 	c #5E5E5E",
"2 	c #525252",
"3 	c #4F4F4F",
"4 	c #454545",
"5 	c #A8A8A8",
"6 	c #575757",
"7 	c #91D2A0",
"8 	c #545454",
"9 	c #636363",
"0 	c #696969",
"q 	c #347766",
"w 	c #592F71",
"e 	c #6B6B6B",
"r 	c #2F4F4F",
"t 	c #6E6E6E",
"y 	c #73234E",
"u 	c #737373",
"i 	c #32814B",
"p 	c #707070",
"a 	c #6B3939",
"s 	c #4E125D",
"d 	c #383838",
"f 	c #3D3D3D",
"g 	c #363636",
"h 	c #404040",
"j 	c #ABABAB",
"k 	c #333333",
"l 	c #3B3B3B",
"z 	c #303030",
"x 	c #2B2B2B",
"c 	c #55562F",
"v 	c #292929",
"b 	c #2F2F64",
"n 	c #00562D",
"m 	c #3AC17F",
"M 	c #212121",
"N 	c #2E2E2E",
"B 	c #242424",
"V 	c #1C1C1C",
"C 	c #20B2AA",
"Z 	c #0F0F0F",
"A 	c #141414",
"S 	c #1F1F1F",
"D 	c #1A1A1A",
"F 	c #262626",
"G 	c #3FDE8E",
"                                                                                                    ",
". X X o o X X X o X X X X X X o o o X o o o o O O O o o o o o o X o X X X X o X X X X X X o X X X . ",
". X X o X o X o X X X o X X X X + @ @ @ @ @ @ @ @ # @ @ @ @ @ @ @ + X X o X X X X X X X X X X o X . ",
". X o X X X X X X X X X o X $ O % & * & = = = = @ @ # - = = = ; * = @ + X o X X o X X X X X X X X . ",
". o X X o X X X o X X o X $ @ = : > , < < < - = - 1 = = 2 < 3 : 4 4 = @ 5 X o X X X X X X X X X X . ",
". X o X X o X X o X o X + @ = 4 : 3 2 2 6 = = & ; ; ; = # 1 2 2 3 < 4 2 # 7 $ o X X X X X X X X X . ",
". X X X X X o X X o $ @ # 3 : 3 8 8 6 - # = 1 ; 1 1 1 ; - # = 6 8 8 2 : , = @ $ X o X X o X X X X . ",
". X o X X X X X X O @ @ < 3 8 6 6 ; = # - 1 1 & & 1 & 1 1 1 = # 9 6 6 8 2 < = @ @ X o X X o X X X . ",
". X X X X X o $ % @ = - # = = - 0 # = & & & & & & & & & & & 1 = # = 9 0 = # = = @ @ $ X X o X X X . ",
". o X X X o $ % q = : < 6 & = @ @ = 9 9 9 9 9 9 9 9 9 9 9 9 9 & = @ @ # 0 * 2 w 9 q # $ X X X X X . ",
". X X X X X O = ; 1 < 6 * * & = = # = = - 9 - - - 9 - - - 9 e = # = = = ; * * 2 < = r @ + X X o X . ",
". X X X X $ # r = : 8 6 ; 9 # = & 9 # # = t - - - 0 0 - 0 = # # e 1 t # = ; * 8 3 & & & @ X X X X . ",
". X X o + @ r = 2 2 8 * ; = # 9 - - 9 t # # = e 0 0 0 = # @ = 9 - - & = # 9 * 6 8 : = r = O X X X . ",
". X X X @ = = = y 8 * * = # 0 9 - - 0 - - = @ # u e = @ # e - 0 0 0 - & = = & * 6 < 3 # i @ $ X X . ",
"  X X 5 # r @ = = 6 8 9 # = 9 0 - 0 0 e e 0 t # @ @ # = 0 0 e 0 0 - - 9 - # = 6 8 = = @ = = 7 o X . ",
". X o 7 ; = 8 = @ # = = = & 9 - 0 0 e e e t e = @ @ # 0 e t t e e 0 - - & e # = # @ = 3 = r @ + X . ",
". o 5 @ r = : < * # @ @ 0 1 - - 0 0 e t e e # @ = p # # u 0 t e e e 0 - & 1 @ @ # = 3 : * = = 7 o . ",
". X 7 9 i < < 3 8 ; @ @ @ # - 9 0 e t 0 t # # = e t p # # = 0 t e e - 9 = @ # @ - 8 2 3 , = r @ + . ",
". + @ q & 4 < 8 6 0 # ; = @ @ # - 0 0 u # # p t p p p t = @ = 0 0 - = @ @ # & = = ; 8 < , 3 i # 5 . ",
". X @ i , : < 2 * # e ; & 0 # @ @ = p # # p p p p p p p t = # = e @ @ # = & 1 & @ 1 8 3 < > i @ + . ",
". X @ # a , 3 2 & # ; & 9 & 9 = # @ @ = 0 t p p u p p u p 0 p @ @ @ = - & 9 9 * = = 8 3 : a * @ $ . ",
". $ @ # = , < 8 = = * 1 & - - - - # @ @ # 0 e p p p p t 0 = @ @ @ p 9 - - 9 1 1 1 # * 3 , 2 i @ + . ",
". $ @ r = = : * = * ; & 1 & 9 - 0 # # = @ @ = 0 t t e t @ @ # = # = - - 9 & 1 1 6 = = : 6 = r # O . ",
". + @ r s = = - = 6 ; ; 1 & 9 - e # = 0 t # @ @ u 0 # @ @ p 0 t # = & 9 & & 1 ; * 1 = 1 # < d = 7 . ",
". 5 # r f 4 = @ ; 8 ; 1 1 & & & = # p 0 e e t # @ @ @ = 0 e 0 0 # # 9 9 & 1 ; ; 6 8 @ @ 2 a g = 7   ",
". 5 # d f > 2 @ @ = * 6 ; & & & = # e - 0 0 0 0 # @ 0 e e 0 0 - # # & & & 1 ; 6 = @ @ = 4 h g = @   ",
". j = k l 4 8 = 8 # @ = 1 ; & 1 = # - - 0 - 0 0 # @ - e 0 0 0 9 = # 9 & 1 ; 0 @ @ & ; = 4 s z q @   ",
"  j = z d a 6 = < 3 & @ @ = & ; # = 9 - - - 0 - # @ - 0 0 - - 9 = # 0 & - # @ = 2 < * = > l z q @   ",
". 7 = x g a 6 = : 3 8 2 0 @ @ = # = & - - - - - # @ - - 0 - - & e # = # @ = 8 2 8 3 8 = c d x r @   ",
". j = v k l * 9 : 3 2 8 8 8 = @ @ = - & 9 9 - - # @ 9 - 9 9 9 9 e @ @ # ; 8 8 8 3 < < = a d v q @   ",
". $ @ q z d 1 6 4 < < 2 8 6 8 9 @ @ = = = - 9 & # @ & 9 - t = = # @ = 2 6 6 2 3 3 , : = b k n @ + . ",
". o 5 @ n k = 3 , : < 3 2 6 8 9 # e 0 # # # = t = @ - = = # # = & = = 8 6 8 2 < : , 4 = n z i @ X . ",
". X X @ i k i : 4 , < < 3 8 2 - # e 6 * 1 = # = @ @ = # = 0 ; * * = = 2 8 3 3 : : , s = l r @ + o . ",
". o X + @ r = 4 > , , : < 2 3 - # 0 * ; ; * ; 0 @ @ = 1 ; ; ; ; 6 = = 3 2 3 < : , > a = r i @ X X . ",
". o X X @ i = d a > , : < 3 < 9 # 9 6 * ; 1 ; ; = @ 6 1 ; ; * * 6 = = < 3 < : : 4 h a i i @ + o X . ",
". X o X + = m & r a > , : : , 9 = ; 2 6 * 6 * * = @ 6 ; * 6 6 8 2 = = < < : : 4 a s r i i % $ X X . ",
". X X X X % i i i & 4 s 4 : : = = * 2 8 8 6 * 6 = @ 6 6 6 6 8 8 3 = = : : , a s q i = i = 5 o X X . ",
". X o o X + # i r i = = , s y = = * 3 8 8 8 8 8 = @ 2 8 8 8 2 2 3 = = w s > ; = i r r i O X X X X . ",
". o X X X X O @ n z r q = = 4 ; = 3 < 3 2 3 2 3 = @ 3 2 2 2 3 3 : = = y = = = q d x i @ + X X X X . ",
". X X X X o $ @ i M N g r q = @ = < : : , : : : = @ : < : : : : , = @ = = r l k B r @ $ X X o X X . ",
". X X X X X X $ @ n M z k l r = @ = = = = = = 6 = @ 2 - = = = = = @ @ < f g N x V @ O X X X o X X . ",
". X X X X X o X O C Z B N k z r = = : 2 8 ; - & # @ & = 1 * 8 < < = i k g z x A r @ + X o X X X X . ",
". X X X X X X o $ % q S D F k k = = d a f f > s * # s > h s b d r i r x x S D n # $ X X X o X X X . ",
". X X X X X X X X X O @ i F S B i i d g d l l l 2 = d f l l d z i i N M M n # @ $ X X X X o X X X . ",
". X X X X X X X X X X $ O @ = v n q d N k g g k r i k g k k k z i i S q # 7 + X X o X X o X X X X . ",
". X X X X X X X X o X X X $ O @ i i r x k z z z r i x z z k N g i i # @ + X X X o X X X X o X X X . ",
". X X X X X X X o X o o X o X + O @ @ q r r q r i G r q q r r i @ @ + X X X o X X X X X X X X X X . ",
". X X X X X X X X X X o X X X X X $ 7 = ; q q r q i n r q ; = @ + X o X o X X X X X X o X X X X X . ",
". X X X X X X X X X X X X X X X X o X $ O 7 @ @ @ @ @ @ 7 7 + X o X X X X X X X X X X X X X X X X . ",
". . . . . . . . . . . . . . . . . .           . . . .             . . . . . . . . . . . . . . . . . "
};
