/* XPM */
static char * image_name[]={
"50 50 26 2",
"  	c #6B3939",
". 	c #707070",
"X 	c #509F69",
"o 	c #737373",
"O 	c #6E6E6E",
"+ 	c #529584",
"@ 	c #6B6B6B",
"# 	c #696969",
"$ 	c #708090",
"% 	c #F4A460",
"& 	c #CD853F",
"* 	c #757575",
"= 	c #D1C166",
"- 	c #CED85A",
"; 	c #787878",
": 	c #BDB76B",
"> 	c #D7EB31",
", 	c #CDCD1D",
"< 	c #DAAA00",
"1 	c #8FBC8F",
"2 	c #EEDD82",
"3 	c #B3B37E",
"4 	c #778899",
"5 	c #E9967A",
"6 	c #FF8C00",
"7 	c #FF8700",
"                                                                                                    ",
"  . X . X o X o X . X O X . X . X X X o X o X o X o X O X . X O X X X o X X X o X X X . X . X . X   ",
"  X + X X X + X X X + X X X X X X X + X + X + X + X + X X X + X X X + X X X X X + X + X X X X X X   ",
"  o X X X X X X X X X . X . X o X X X O X O X @ X O X # . @ o @ X X X X X X X X X X X . X o X . X   ",
"  X X X + X X X + X $ X X X X X X X % & % & & & % % % & & % % & X + + X + X + X $ X + X $ X X X X   ",
"  o X o X X X * X * X . X o X o X X = % % - - % % = - & % % = & X X X ; X X X * X X X . X o X . X   ",
"  X + X X X X X + X + X X X : % & - > , - , - , , - > , , , - < & % % : + X + X + X + X X X X X X   ",
"  X X X X o X X X X X . X . & & < < , < & < , < < < , < < < & < < < < % X X X X X X X . X . X o X   ",
"  X + X + X + X + X + X : & < & < , , < % , , < < , , < < < % < < < < % & : + X $ X + X X X X X X   ",
"  o X * X X X X X X X o - < % % & - - % = - - , - = - < & = = < & & % = - & X * X X X . X . X . X   ",
"  $ + X + X $ X + X 1 % = = = = - - - = = - - - = = - = = = = = = = % 2 = % % 3 $ X 4 X $ X X X X   ",
"  O X . X . X . X o % < < < < < < < , < < < , < < < , < < < & < < < < & < < < & X . X O X O X O .   ",
"  X X X X X X X : & % < , < < % < , , < , , , < , , , < < , - < < < < % < < < & % : + . X X X X X   ",
"  . X o X . X . , < % , , < , - , , > , , , > , , > > < , , - < < < & % , < < & % & X O X . X . X   ",
"  X X X X X : % - % = - - , - = , - - - - - - , - - - , , - = & , , % = - & & % = % % : X X X X X   ",
"  o X . X O & % % % % % % & % % & = - % % % = % % % = % % % = & & & % % % & & % 5 & & % X O X . o   ",
"  X X X + X < < , < % < , < , < , , , , X O X . X . X O X X , < < < < % , < < < % < < < X X X X X   ",
"  X X X X @ < < , < % < , < < < < , , : + X X X X X + X X X = < < < < % , < < & % < < < : O X X X   ",
"  X + X : < < < , < % < , < < < , , + X + X + X X X + X + X X X & < < % , < < < % < < < & & X X X   ",
"  o X X % % & - - % % - - , - - > - X o X X X X X * X . X o X . : % % = - & & % = & & & % % o X X   ",
"  X $ X 5 % = = = % = = - = = = X X X X $ X $ X $ X X X $ X $ X $ X % = = % % = 2 % % % % 5 X X X   ",
"  . X X & < < < < < & < < < < & X X X X X X X X X X X O X . X . X X < & < < < < % < < < & & X X X   ",
"  X + X & < < < , < % < , < < % X X + X + X + X + X + X X X X X X X & = , < < & % < < < & & X X X   ",
"  o X X % < < , , < % , , < , - X X X X X X X X X X X . X . X . X X & = , < < & % < < < % % X X X   ",
"  X + X = % = = - % = - - , - = X X + X + X + X + X X X X X X X X X % = - < , = = % % % % % X X X   ",
"  o X X % & < < & & % < < < < & X X X X X X X X X X X . X . X o X . & % < < < & % < < < % % X . X   ",
"  X + X & < < < < < % < , < < & X X X X X X + X X X + X X X X X X X & % < < < & % < < < & & X X X   ",
"  . X . & < < < , & % < , < < & X . X . X . X . X . X O X O X O X O & % , < < & % < < < & & O O .   ",
"  X X X % < < , , & % , , < , - X X X X + X X X X X X X X X X X X X & = , < < % = < < < % % X X X   ",
"  . X . % & < < < & % < < < < & X X X . X . X . X . X O X O X . X . & % < < < % % < & & % % . O o   ",
"  X X X % & & & % % % < < < < & % : X X X X X X X X + X X X X X : & % % % & & % % & & & % % X X X   ",
"  . X . % < < < < < % < < < < < < , X O X . X . X o X O X . X X < < & % , < < & % < < < & % . . X   ",
"  X + X X X & < , & % < , < < < < , , & X X X X X X X X X o : & < < & % , < < % % < < & X o X X X   ",
"  X X X X . < < < < & < < < < < < < < < X X X X X X + o X X & < < < & % < < < & % < < & X . X X X   ",
"  . X . X O & & & % % & & < & & < < < & % % % & % % % & % % % < < < & % & & & % % & & & X O X O o   ",
"  X X X + * : % % % % % % & % & & & & & % < & < & % & < < & % & & & % % % & % % 5 % % : X * X X X   ",
"  X + X X X + X & < < < < < < < < < < < < < < < < < < < < < % < < < & % < < < & % & + X X X X X X   ",
"  . X X X X X X : & & < < < < & < < , < & < , < < & , < < & % < < < & % & < < % % & X @ X . X . X   ",
"  X X X + X + X + X % < , < < & < , , < % , , < & - - < < & % < < < & % - < < % X X + X X X X X X   ",
"  o X X X X X X X o : & & < & & < < < & & < < < & & < < < & % < < < & % & & & % X . X . X . X . X   ",
"  X + X + X + X + X $ X % & % & & & & & & & & < & % & < & & % & & & % 5 % & X X $ X + X X X $ X X   ",
"  o X X X X X X X X X . : < < & < & < & & < & < < & < < < & % < < < & % & & X X X X X . X . X . X   ",
"  X + X + X + X + X + X X X % & < , - & & < - < & % , < < % % < < < % % + X X X + X + X X X + X X   ",
"  . X . X . X . X . X O . O & & & & < 6 < < < 6 < & < 7 6 < & 7 6 & & % X @ X . X . X O X O X O .   ",
"  X X X X X X X X X $ X X X X O o X & & & < & < & & & < < & % < . X X o X X X X X X X X X X X X X   ",
"  . X . X . X . X o X O X O X o X X : % : % % & % % % & & % % & o X X o X o X . X . X O X . X . o   ",
"  X X X X X X X X X X X X X X X X X X X X X X X X X X X X X X X X X X X X X X X X X X X X X X X X   ",
"  . X . X . X . X . X @ X O X . X X X o X O X X X . X O X O X O X X X o X . X . X . X O X . X O X   ",
"  X X X X X X X X X X . X o X o X X X X X X X X X X X . X o X X X X X X X X X X X X X o X o X X X   ",
"                                                                                                    "
};
