/* XPM */
static char * image_name[]={
"50 50 22 2",
"  	c #A52A2A",
". 	c #F5280A",
"X 	c #D11619",
"o 	c #6B3939",
"O 	c #8B4513",
"+ 	c #FF4500",
"@ 	c #FF8C00",
"# 	c #DAAA00",
"$ 	c #509F69",
"% 	c #636363",
"& 	c #616161",
"* 	c #707070",
"= 	c #6E6E6E",
"- 	c #6B6B6B",
"; 	c #CDCD1D",
": 	c #F2DE0D",
"> 	c #D7EB31",
", 	c #ADFF2F",
"< 	c #529584",
"1 	c #D2691E",
"2 	c #CD853F",
"3 	c #B8860B",
"  . X X   o o o o o o o o o o o o o o o o o o o o O + + + O o o o o o O + + + O o o o o o o o o o o ",
"X @ @ @ # $ % % & * $ & & % = $ % & & = $ & & % - ; : : : : $ & % & = ; : : : ; $ % & & = $ % % & o ",
"X @ @ @ # $ & % % $ $ % % & $ $ % % & $ $ & % % - ; : : : ; $ & % % $ ; : : : ; $ & % & $ $ & % & o ",
"X @ @ @ # $ & % & = $ & & % $ $ % & % = $ & % % = ; : : : : $ & & & * ; : : : ; $ & & & = $ & % & o ",
"  # # # # $ = $ = $ $ = $ * $ $ = $ = $ $ $ = $ $ ; : ; : ; $ $ = = $ > : : : ; $ = = = $ $ = = = o ",
"  # # # ; $ $ $ $ $ , ; ; ; ; $ $ $ $ $ > ; ; ; ; $ $ $ $ $ < $ $ $ $ $ $ $ $ $ $ $ $ $ $ $ $ $ $ o ",
". @ @ @ # $ & & % - ; # # # ; * & & & = ; : : : : $ & % & = $ % % & = $ & % % $ $ % % & = $ & & & o ",
"X @ @ @ # $ & % & = ; # # # ; $ % % % $ ; : : : : $ & % % $ $ & % & $ $ & % % $ $ % % % $ $ & % & o ",
"X @ @ @ # $ % & & = ; # # # ; $ & & & * ; : : : : $ & % & $ $ & % % = $ & % % = $ % & % = $ & % & o ",
"  # # # ; $ = $ = $ ; ; ; ; ; $ = $ = $ > ; ; ; ; $ = = $ $ $ = $ = $ $ = * * $ $ = $ = $ $ = $ = o ",
"  # # # ; < $ $ $ $ , ; ; ; , $ $ $ $ $ < $ $ $ $ $ $ $ $ $ < $ $ $ $ , ; ; ; , $ $ $ $ $ $ $ $ $ o ",
". @ @ @ # $ & & & = ; # # # ; * % & % = $ & & & - $ & % & = $ % % & = ; : : : ; $ & & & = $ & % & o ",
"X @ @ @ # $ % % & = ; # # # ; $ & % & $ $ & % % $ $ % % & $ $ & % % $ ; : : : ; $ & & & $ $ & % % o ",
"X @ @ @ # $ & & & = ; # # # ; * & % % = $ & % & = $ & & & = $ % % & * ; : : : ; $ & & & = $ & % & o ",
"  # # # ; $ $ $ $ $ ; ; ; ; ; $ $ $ $ $ $ $ $ $ $ $ $ $ $ $ $ $ $ $ $ , ; ; ; > $ $ $ $ $ $ $ $ $ o ",
"o $ $ $ $ $ $ $ $ $ , ; ; ; ; $ $ $ $ $ , ; ; ; > $ $ $ $ $ $ $ $ $ $ $ $ $ $ $ $ $ $ $ $ $ $ $ $ o ",
"o & & & = $ & & % - ; # # # ; * % & & $ ; : : : : $ & % & = $ & % % = $ & & & = $ & % % = $ & % & o ",
"o % & % = $ % & % = ; # # # ; $ & % & $ ; : : : : $ & % % $ $ % % & $ $ & % & $ $ & % % $ $ & % & o ",
"o % & & - $ & % & = ; # # # ; $ & % % $ ; : : : : $ & & % = $ & & % = $ & % % $ $ & % % = $ & & & o ",
"o = * * $ $ * $ * $ ; ; ; ; ; $ $ $ $ $ > ; ; ; > $ $ $ $ $ $ = * * $ $ $ $ $ $ $ $ $ $ $ $ $ $ $ o ",
"  # # # ; ; # ; ; ; < $ $ $ $ $ $ $ $ $ $ $ $ $ $ $ $ $ $ $ > ; ; ; > < $ $ $ $ $ $ $ $ $ $ $ $ $ o ",
"X @ @ @ # # @ # # ; $ & & & = $ & % & $ $ & & & - $ & % & = ; : : : : $ & % % = $ & % & = $ & & & o ",
"X @ @ @ # # @ @ # ; $ % % % $ $ & % % $ $ & % % = $ & & & $ ; : : : ; $ % % % $ $ & % % $ $ & % & o ",
"X @ @ @ # # # @ # ; $ & % % = $ % % & = $ & & % = $ & % & $ ; : : : : $ & % & $ $ & & % = $ & % & o ",
"  # # # ; ; # # # ; $ $ $ $ $ $ $ $ $ $ $ $ $ $ $ $ $ $ $ $ > : : ; > $ $ $ $ $ $ $ $ $ $ $ $ $ $ o ",
"o = = = $ $ - = = $ $ = = - $ $ = = = $ $ = = = $ $ - = = $ > : : : ; $ - = = $ > ; ; ; ; $ = = = o ",
"o & & % = $ % % & = $ % & % $ $ & % % $ $ & % % = $ & % & $ ; : : : ; $ & % & $ ; : : : ; $ % & & o ",
"o & & % $ $ % & % $ $ % % % $ $ % % & $ $ & % % = $ % & % $ ; : : : ; $ & & & $ ; : : : ; $ & % & o ",
"o % % & - $ & & % = $ & & % $ $ & % & $ $ & % % = $ & & & = ; : : : : $ & % & $ ; : : # ; $ % & & o ",
"o $ $ $ $ $ $ $ $ $ $ $ $ $ $ $ $ $ $ $ $ $ $ $ $ $ $ $ = $ ; ; ; ; ; $ = $ $ $ ; ; ; ; ; $ $ $ $ o ",
"  # # # ; $ $ $ $ $ , # ; ; ; $ $ $ $ $ $ $ $ $ $ $ $ $ $ $ $ $ $ $ $ < $ $ $ $ $ $ $ $ $ ; ; ; ; 1 ",
"X @ @ @ # $ & & & = # @ # # ; * & & & = $ & & & - $ % & & = $ % & & = $ % % % $ $ & % & = ; # # # . ",
"X @ @ @ # $ & % % = # @ # # ; $ & % % $ $ % % % = $ & % & $ $ % % & $ $ & % % $ $ & % % * ; # # # . ",
"X @ @ @ # $ & % & - # @ @ @ # * & % & $ $ & % & = $ & & % = $ & & & = $ & & & $ $ & & & = ; # # # . ",
"  # # # # $ - = = $ ; # # # ; $ $ $ $ $ $ = $ $ $ $ = = = $ $ $ $ $ $ $ $ $ = $ $ = = = $ ; # ; # X ",
"  # # # 2 2 # # # # < $ $ $ $ < $ $ $ $ $ $ $ $ $ ; ; ; ; ; $ $ $ $ $ < $ $ $ $ , ; ; ; ; $ $ $ $ o ",
"X @ @ @ # # @ @ @ # $ & & & = $ & & % = $ % & & - ; # # # : $ % & % = $ & & % $ ; # # # # $ & & & o ",
"X @ @ @ # # @ @ @ # $ % % % $ $ & % & $ $ & % & = ; # # # ; $ % % & $ $ & % & $ ; # # # # $ & & % o ",
"X @ @ @ # # @ @ @ # $ & % % = $ & & & $ $ & & & - ; # # # # $ & % & = $ & % & $ ; # @ @ # $ & & & o ",
"  # # # 2 2 # # # # $ $ $ $ $ $ $ $ $ $ $ $ $ $ $ ; ; # # ; $ $ $ $ $ $ $ $ $ $ ; # # # ; $ $ $ $ o ",
"  # # # 2 2 # # # # 3 # # # ; ; # # # ; , # # # ; ; # # # ; ; ; ; ; ; , ; ; # ; ; # # # ; ; # # # X ",
"X @ @ @ # # @ @ @ # # @ @ @ # # @ @ @ # # @ @ @ # # @ @ @ # # # @ @ # # @ @ @ # # @ @ @ # # @ @ @ . ",
"X @ @ @ # # @ @ @ # # @ @ @ # # @ @ @ # # @ @ @ # # @ @ @ # # @ @ @ # # @ @ @ # # @ @ @ # # @ @ @ . ",
"X @ @ @ # # @ @ @ # # @ @ @ # # @ @ @ # # @ @ @ # # @ @ @ # # @ @ @ # # @ @ @ # # @ @ @ # # @ @ @ . ",
"  # # # 2 2 # # # # 2 # # # 2 # # # # # ; # # # # ; # # # ; ; # # # ; ; # # # ; ; # # # # 2 # # # X ",
"o $ $ $ $ $ $ $ $ $ $ $ $ $ $ $ $ $ $ < , # # # # ; # # # # ; # # # ; , # # # , ; # # # # 2 # # # X ",
"o & & % = $ & & & - $ & & & = $ & & & = # @ @ @ # # @ @ @ # # @ @ @ # # @ @ @ # # @ @ @ # # @ @ @ . ",
"o & % % = $ % & & $ $ % % & $ $ % % & $ # @ @ @ # # @ @ @ # # @ @ @ # # @ @ @ # # @ @ @ # # @ @ @ X ",
"o & & & = $ & & & = $ % & & = $ & & & $ # @ @ @ # # @ @ @ # # @ @ @ # # @ @ @ # # @ @ @ # # @ @ @ . ",
"o o o o o o o o o o o o o o o o o o o o   X . X X X X X . X   . . . X   X X X     X X X X X X X X X "
};
