/* XPM */
static char * image_name[]={
"50 50 87 2",
"  	c #3953DE",
". 	c #3B52DC",
"X 	c #3B52E0",
"o 	c #3E51DC",
"O 	c #3A54DC",
"+ 	c #3B51DB",
"@ 	c #3B51DA",
"# 	c #3A51DB",
"$ 	c #3C53DD",
"% 	c #3C52DC",
"& 	c #9E9E9E",
"* 	c #A1A1A1",
"= 	c #3B53DB",
"- 	c #A3A3A3",
"; 	c #9C9C9C",
": 	c #999999",
"> 	c #8C8C8C",
", 	c #707070",
"< 	c #616161",
"1 	c #5C5C5C",
"2 	c #5E5E5E",
"3 	c #696969",
"4 	c #3953DB",
"5 	c #575757",
"6 	c #545454",
"7 	c #4D4D4D",
"8 	c #595959",
"9 	c #969696",
"0 	c #A6A6A6",
"q 	c #636363",
"w 	c #666666",
"e 	c #6B6B6B",
"r 	c #4A4A4A",
"t 	c #8F8F8F",
"y 	c #6E6E6E",
"u 	c #474747",
"i 	c #424242",
"p 	c #3B52DE",
"a 	c #7D7D7D",
"s 	c #4F4F4F",
"d 	c #525252",
"f 	c #3B3B3B",
"g 	c #8A8A8A",
"h 	c #878787",
"j 	c #333333",
"k 	c #919191",
"l 	c #858585",
"z 	c #3D3D3D",
"x 	c #828282",
"c 	c #404040",
"v 	c #454545",
"b 	c #363636",
"n 	c #2E2E2E",
"m 	c #2F2F64",
"M 	c #303030",
"N 	c #242424",
"B 	c #292929",
"V 	c #5773B8",
"C 	c #383838",
"Z 	c #1C1C1C",
"A 	c #BD52BD",
"S 	c #949494",
"D 	c #0D0D0D",
"F 	c #8380C3",
"G 	c #171717",
"H 	c #1F1F1F",
"J 	c #2B2B2B",
"K 	c #080808",
"L 	c #A8A8A8",
"P 	c #6A6A8D",
"I 	c #262626",
"U 	c #121212",
"Y 	c #212121",
"T 	c #1A1A1A",
"R 	c #0A0A0A",
"E 	c #0F0F0F",
"W 	c #ABABAB",
"Q 	c #9370DB",
"! 	c #5470AA",
"~ 	c #141414",
"^ 	c #787878",
"/ 	c #737373",
"( 	c #3A50DA",
") 	c #8681C1",
"_ 	c #55562F",
"` 	c #B3B37E",
"' 	c #757575",
"  . X o O + . @ . . . . . . . # . . . . . . . . . . . . . . . . . . . # $ # . . . . . . . . . . . % ",
". & * & * * & * * * * * * * * * * & * * & * * * * * * * * * * * * * & * & * * * * * * * * * * * * = ",
"X * * & * & * - - ; : : ; - - * * * * * * * * * * * * * * * * * & * & * * * & * * * * * * * * * * # ",
"o & & * * * * > , < 1 1 2 3 > * - * & * * * * * * * * * * * * * * & * * * * * & * * * * * * * * * . ",
"4 * * * - ; 3 5 1 < < < 1 6 7 8 9 0 * * & * * * * * * * * * * * * * * & * * * * * * * * * * * * & . ",
"% * & - 9 q 8 w 3 3 e 3 w < 1 r 7 t 0 * * * * * * * * * * * * * & * * * * * * * * * * * * * * * * % ",
"# * * & 1 6 q e y y y 3 3 w 2 5 u i t - & * * * * * * * * * * * * * - * - * & * * * * * * * * * & p ",
"= * 0 a s < 3 e y y y y 3 w < 1 d f d 0 * * * * * * * * * * * * * 0 g q h - - * * * * * * * * * * . ",
". * & 5 5 q 3 y y y y y e 3 < 1 6 u j a 0 & * * & & & * * & * 0 ; y 6 8 5 y : 0 * * * * * * & * * . ",
". - k r 5 < w 3 e e y e 3 w < 8 d u j r 0 * * * * * * * * * - g 5 6 < w < 1 1 l 0 * & * * * * * * . ",
". - g u 5 < q 3 3 3 3 3 w q 2 8 d u j z - * * * * * & * * 0 g 7 5 q 3 3 3 w 1 s x 0 * * * * * & * . ",
". 0 x c 6 1 < w w 3 3 w q < 1 5 s v b n 9 - & * & & * * - > v d < w e y y 3 w 1 r g 0 * * & * * * . ",
". 0 x z s 5 1 < < q q < 2 1 5 d r m M N k - * * * & * * 0 5 v 1 q 3 e y y e 3 < d 1 * * * * * * * . ",
". - k f u d 5 8 1 2 2 1 8 5 d 7 v f B B V 9 9 ; & * * - l C d 2 q e y y , y 3 w 1 v x 0 * * * * * . ",
". * * v f r s d 6 5 5 5 6 s r v f j Z M V V V V A S 9 * 2 z 6 2 w 3 y y y y 3 w 1 r 1 0 * * * * * . ",
"# * 0 e B z u r 7 s s 7 r u i z j B D 6 F V V V V V V V u i d 2 q 3 e y y e 3 q 1 7 r ; * * * * * . ",
"# * * & f B f c v i v v i z C j B G H S ; 9 S V V V V V b v 6 1 q 3 e e e e 3 q 1 s c k - * * & * . ",
". * & 0 g N N j b C C b b M J N G K , L * * * & ; : : P n i d 1 < w 3 3 3 3 w < 8 7 z g - * * * * . ",
". * * * 0 x I U Y I B B N Y T K U 3 L * * * & * * * - l n i s 5 2 q w w w w q 2 5 r f g - * * * * . ",
". & * & * L S 7 H D D D R K E f h W * & * * * * & * - t B z r 6 1 < q q w q < 1 6 u C k - * * * * . ",
". * & * * * - W S w s i 7 2 l L 0 * * * & & & * & * - 9 j C r 6 8 2 q q q < 2 8 d c f ; * * & * * . ",
". * * * * * & * - L L 0 L L - * * * & * * * * * * * ; Q m I i s 5 5 1 1 1 1 5 6 r M s - * * * * * . ",
". * * * * * * * * * * * * * * * & * * * & * * * * & V V ! r ~ D U U G G G ~ D D H < ; * * * * * * . ",
". & * * * * * * * * * & * * * * * * * * * * & * * k V V A - t < J U D D D ~ j 3 k L * * * * * * * . ",
". * * * * * * * * * & * * * * * & * * & * & * * 9 V V V ; * 0 W * S h h g 9 - L - * * * * * * * * . ",
". * * * * * * * * * * & * & * * * * * * * * * : V V V : * * * & * - 0 0 - - * * * * * * * * * * * . ",
". * * * * * * * * * * * * * * & & * & * * * : V V V S * * * * * * * * * & * * * * * * * * * * * * . ",
". * * * * * * * * * & * * & * 0 * & * * * & V V V k & * * * * * * * & * * * * * * * * * * * * * * . ",
". * * * * * * * & * * * & * & x * * * & & S V V A ; * & & * * & * & * * * * - * * * * * * * * * * . ",
". * * * * * * * * * * & * 0 a 5 l - * * S V V V ; * * & * & * * * * & * & - h ; * * * * * * * * * . ",
". * * * * * * * * * * * - > < w d k 0 9 V V V : * * * & * * * * * * * * - 9 5 h - * * * * * * * * . ",
". * * * * * * * * * * - : 8 w 3 5 s S V V V 9 * * * * * * * * * * * * * * 3 < y * * * * * * * * * . ",
". * * * * * * * * * * * q 8 e e q v d V V S * * * * * * * * * * * * & - t 7 y 2 g 0 * * * * * * * . ",
". * * * * * * * * * 0 ^ s w y e w 8 f P 9 ; * * * & & * * * * * * * * - < 5 y w w * * * & * * * * . ",
". * * * * * * * * * : d 1 3 y y w < r m 9 - * * * * * * * * * * * * - t i q y y 6 h 0 & * * & * * . ",
". * * * * * * * * 0 / 7 w e y y 3 < 5 b 3 L & * & & & * * * * * * * 0 8 7 3 , y 1 q * * & * * * * . ",
". * * * * * * * * ; 6 5 w y y y e q 8 v C ; - & * * * * * * & & & 0 h C 8 w y y w 7 h 0 * * & * * + ",
". * * * * * * * - g v 2 3 y y , e w 1 7 n ^ 0 & & * * * * * * * * 0 s i 2 3 y , 3 6 < - * * * * * ( ",
". * * * * * * * 0 / u < 3 y , y e w 1 s j d ) V S S S S 9 9 9 : & P C d < 3 y y 3 < u t 0 * * * * ( ",
". * * * * * * * - 2 s < 3 y y y e w 2 6 z b V V V V V V V V V V V m _ 5 w e y y e q s q - * * & * ( ",
". * * * * * * * : r 6 q e y y y e w < 5 v J P 9 V V V V V V V V P j 7 1 w y y y e w 1 v t - * * * + ",
". * * * * * * - h i 8 q 3 y y y e w < 5 r I e 0 & & ; & ; ; ; & u f 6 1 w y e , y 3 2 r < - & * * ( ",
". * * * * * * 0 a v 5 q 3 e y y 3 w 1 6 u i ` 0 * * * * & * 0 ^ M r 5 < w y y y y 3 < 5 i t - & * ( ",
". * * * * * * * ; h ^ , ' ' / / ' / ' x g & - * & * * * * * 0 8 j 7 5 < 3 e y y y 3 q 1 i < 0 * * + ",
"# * * * * * * * * - - * & * ; & & * - - 0 * * & * & * & * * * 9 ' < < w w e 3 e 3 3 w 2 q l - * * . ",
". * * * & * * * * * * * * * * * - * * * & & * & & & * * * * & * 0 * ; S t h h h h t k : * - * * * . ",
". * * * * * * * * * * & * * * * & * & * * * & & * * * * & * * & * * - * - - - - - - * * & * & * * . ",
"# * & * * * * * * * * * * * * * * * * * * & * * & * * * * * * * * & * * * * * * * * * * * & * & * . ",
". * * * & * & * * * * * * * * * * * * * * * * * * * * * * * * * * * * * * * * * * * * * * * * * * % ",
"% = # . . % p . . . . . . . . . . . . . . . . . . . . . . . . . . . . . . . . . . . . . . . . . % % "
};
