/* XPM */
static char * image_name[]={
"50 50 21 2",
"  	c #A52A2A",
". 	c #D11619",
"X 	c #8E2323",
"o 	c #1A1A1A",
"O 	c #1F1F1F",
"+ 	c #212121",
"@ 	c #1C1C1C",
"# 	c #171717",
"$ 	c #D2691E",
"% 	c #DAAA00",
"& 	c #B8860B",
"* 	c #238E23",
"= 	c #6B6B6B",
"- 	c #6E6E6E",
"; 	c #6B8E23",
": 	c #696969",
"> 	c #FF8700",
", 	c #FF8C00",
"< 	c #CDCD1D",
"1 	c #6B3939",
"2 	c #242424",
"  .   .     .   .     .   . X o O O O +   . . .     . . .     . . .     . .     O O O O @ # O O O @ ",
"  $ $ $ % % $ $ $ % % $ $ $ & * = - = ; % $ $ $ % % $ $ $ % % $ $ $ % % $ $ $ % * = = = * * = = = + ",
"  $ $ $ % % $ $ $ % % $ $ $ & * = - = ; % $ $ $ % % $ $ $ % % $ $ $ % % $ $ $ % * = = - * * = - = + ",
"  $ $ $ % % $ $ $ % % $ $ $ & * = - - ; % $ $ $ % % $ $ $ % % $ $ $ % % $ $ $ % * = - = * * = = = + ",
"  % % % % % % % % % % % % % & * * * * * & % % % % % % % % % % % % % % % % % % & * * * * * * * * * O ",
"  % % % % % % % % % % % % % & * * * * * * * * * ; & % % % % & % % % % & % % % & * * * * * * * * * @ ",
"  $ $ $ % % $ $ $ % % $ $ $ & * = - = * * = = = ; % $ $ $ % % $ $ $ % % $ $ $ % * - = = * * = - = + ",
"  $ $ $ % % $ $ $ % % $ $ $ & * = = = * * = - = ; % $ $ $ % % $ $ $ % % $ $ $ % * = - = * * = = = + ",
"  $ $ $ % % $ $ $ % % $ $ $ % * = - = * * = = : ; % $ $ $ % % $ $ $ % % $ $ $ % * = - = * * = = = + ",
"  % % % % & % % % & & % % % & * * * * * * * * * ; & % % % % % % % % % & % % % & * * * * * * * * * @ ",
"X % % % % ; * * * * * * * * * * * * * * & & & & & & % % % % & % % % & & % % % & * * * * * * * * * o ",
"  $ $ $ % ; = = = * * = = = * * = = = ; % $ $ > % % > > > % % > > > % % $ $ $ % * - = - * * = = = + ",
"  $ $ $ % ; - - = * * - = - * * = = = ; % $ > > % % > > > % % > > > % % $ $ $ % * = - = * * = = = + ",
"  $ $ $ % ; = = = * * = = = * * = = = ; % > > > % % , , , % % , > > % % > > $ % * = = = * * = = = + ",
"  % % % % ; * * * * * * * * * * * * * ; & % % % % % % % % % % % % % % & % % % & * * * * * * * * * O ",
"X % % % & * * * * * & & & & & & & & & & & % % % % & % % % % & % % % & & % % % & * * * * * * * * * o ",
"  $ $ $ % ; = = = * & $ $ $ % % > > > % % , , , % % , , % % % , , , % % , > > % * : = = * * - = = + ",
"  $ $ $ % ; = - = * & $ $ $ % % > > > % % , , , % % % % % % % % % , % % , , > % * = - = * * = - = + ",
"  $ $ $ % ; = = = * & $ $ $ % % > > , % % , % % % % % % % % % % % % % % , , , % * = = = * * = = = + ",
"  % % % % ; * * * * & % % % % % % % % % % % % % % % % % % % % % % % % & % % % & * * * * * * * * * O ",
"X % % % % * * * * * & % % % % & % % % % % % % % % & % % % % & % % % & & % % % & * * * * * * * * * o ",
"  $ $ $ % ; = = = * & $ $ $ % % , , , % % % % % % % % % % % % % % % % % , , , % * = - = * * = - = + ",
"  $ $ $ % ; = - = * & $ $ > % % , , , % % % % % % % % % % % % % % % % % % , , % * = = = * * = = = + ",
"  $ $ $ % ; = = = * & $ $ > % % , , , % % % % % % % % % % < % % % % % % % % , % * = = = * * = = = + ",
"  % % % % * * * * * & % % % % % % % % % % % % % % % < < < % % % % % % & % % % & * * * * * * * * * @ ",
"  % % % % ; * * * * & % % % % % % % % % % % % % % % < < < % % % % % % ; ; ; ; * * * * * * * * * * O ",
"  $ $ $ % ; = = = * & $ $ > % % , , % % % % % % % % % % % < % % % % % * = - = * * = = = * * = = = + ",
"  $ $ $ % ; = - = * & $ $ > % % , , , % % % % % % % % % % < % % % % % * = = - * * = - = * * - - = + ",
"  $ $ $ % ; - = = * & $ $ > % % , , , % % % % % % % % % % % % % % % % * = - = * * = = = * * = - = + ",
"  % % % % ; * * * * & % % % % % % % % % % % % % % % % % < % % % % % & * * * * * * * * * * * * * * O ",
"  % % % % ; * * * * * ; ; ; ; % % % % % % % % % % % % % % % % % % % & * * * * * * * * * * * * * * @ ",
"  $ $ $ % ; = = = * * = = - ; % , , , % % % % % % % % % % % % % % % % * = = = * * = = = * * = = = + ",
"  $ $ $ % ; - - = * * = - = ; % > , , % % % % % % % % % % % % % % % % * = = = * * = = = * * = - = + ",
"  $ $ $ % ; = - = * * - = = ; % > , , % % % % % % % % % % % % % % % % * = - - * * = = = * * = = = + ",
"  % % % % ; * * * * * * * * * % % % % % % % % % % % % % % % % % % % & * * * * * * * * * * * * * * @ ",
"  % % % % & & & & & * * * * * & % % % % % % % % % % % % % % % % % % & * * * * * * * * * * * * * * o ",
"  $ $ $ % % $ $ $ % ; - = = ; % > > > % % , , , % % , , % % % , , , % * = - = * * = - - * * = = = + ",
"  $ $ $ % % $ $ $ % ; = - = ; % $ > > % % , , , % % , , % % % , , , % * : - = * * - - = * * - - = + ",
"  $ $ $ % % $ $ $ % ; = = = ; % $ $ $ % % > > , % % , , , % % , , , % * - = = * * = - = * * = = = + ",
"  % % % % % % % % % ; * * * * % % % % % % % % % % % % % % % % % % % & * * * * * * * * * * * * * * O ",
"  % % % % % % % % % ; * * * * & % % % % % % % % % % % % % % % % % % & * * * * * * * * * * * * * * o ",
"  $ $ $ % % $ $ $ % ; = - = ; % $ $ $ % % $ $ $ % % > > > % % > > $ % * = = = * * = = = * * = = = + ",
"  $ $ $ % % $ $ $ % ; = = = ; % $ $ $ % % $ $ $ % % $ $ $ % % $ $ $ % * = - : * * = = = * * - = = + ",
"  $ $ $ % % $ $ $ % ; = = = ; % $ $ $ % % $ $ $ % % $ $ $ % % $ $ $ % * = = - * * = = - * * = = = + ",
"  % % % % % % % % % ; * * * * & % % % & % % % % % % % % % % % % % % & * * * * * * * * * * * * * * @ ",
"  % % % % % % % % % * * * * * * * * * * & % % % % % % % % % % % % % & * * * * * * * * * * * * * * o ",
"  $ $ $ % % $ $ $ % ; = = = * * = = = ; % $ $ $ % % $ $ $ % % $ $ $ % * = = = * * = = = * * = - = + ",
"  $ $ $ % % $ $ $ % ; = - = * * = = = ; % $ $ $ % % $ $ $ % % $ $ $ % * = = - * * = - = * * - = = + ",
"  $ $ $ % % $ $ $ % ; = = = * * = = = ; % $ $ $ % % $ $ $ % % $ $ $ % * = = = * * = = = * * = = : O ",
"X                   1 + + + O o + + + 2 X                   X       X O + + + O o + + + O o + + + O "
};
