/* XPM */
static char * image_name[]={
"50 50 96 2",
"  	c #8E2323",
". 	c #A52A2A",
"X 	c #6B3939",
"o 	c #A1A1A1",
"O 	c #9E9E9E",
"+ 	c #A6A6A6",
"@ 	c #6E6E6E",
"# 	c #595959",
"$ 	c #5E5E5E",
"% 	c #4A4A4A",
"& 	c #454545",
"* 	c #4F4F4F",
"= 	c #545454",
"- 	c #55562F",
"; 	c #4D4D4D",
": 	c #424242",
"> 	c #575757",
", 	c #616161",
"< 	c #5C5C5C",
"1 	c #A3A3A3",
"2 	c #A8A8A8",
"3 	c #757575",
"4 	c #363636",
"5 	c #525252",
"6 	c #2F4F4F",
"7 	c #666666",
"8 	c #707070",
"9 	c #6B6B6B",
"0 	c #2F2F64",
"q 	c #3B3B3B",
"w 	c #787878",
"e 	c #333333",
"r 	c #474747",
"t 	c #636363",
"y 	c #292929",
"u 	c #8F8F8F",
"i 	c #3D3D3D",
"p 	c #00562D",
"a 	c #7D7D7D",
"s 	c #ABABAB",
"d 	c #737373",
"f 	c #696969",
"g 	c #2E2E2E",
"h 	c #9C9C9C",
"j 	c #383838",
"k 	c #999999",
"l 	c #7E7E7E",
"z 	c #404040",
"x 	c #919191",
"c 	c #303030",
"v 	c #91535D",
"b 	c #BDB76B",
"n 	c #B8860B",
"m 	c #CD853F",
"M 	c #DAAA00",
"N 	c #B7644D",
"B 	c #FF8C00",
"V 	c #96522D",
"C 	c #8C8C8C",
"Z 	c #878787",
"A 	c #FF8700",
"S 	c #D2691E",
"D 	c #F4A460",
"F 	c #E9967A",
"G 	c #D1C166",
"H 	c #F2DE0D",
"J 	c #BC8F8F",
"K 	c #CED85A",
"L 	c #D7EB31",
"P 	c #F3E64B",
"I 	c #CDCD1D",
"U 	c #B3B37E",
"Y 	c #949494",
"T 	c #8FBC8F",
"R 	c #778899",
"E 	c #5F929E",
"W 	c #509F69",
"Q 	c #347766",
"! 	c #238E23",
"~ 	c #32814B",
"^ 	c #41AC41",
"/ 	c #78D54B",
"( 	c #6B8E23",
") 	c #73DE78",
"_ 	c #62D4A2",
"` 	c #242424",
"' 	c #1F1F1F",
"] 	c #1C1C1C",
"[ 	c #212121",
"{ 	c #1A1A1A",
"} 	c #171717",
"| 	c #141414",
" .	c #080808",
"..	c #0D0D0D",
"X.	c #121212",
"o.	c #0F0F0F",
"                          .   X X X X X X X X X X X X X X X X X X X X   .                           ",
"  o o O O o o o o o o o o + @ # $ % & * = - & & ; # : & : % > : % > , < o 1 o o o o o o o O o o o   ",
"  o o O o O o O o o o o 2 3 4 5 6 & % 7 $ > < < 7 8 < $ # # 9 ; & 0 5 q < + 1 o o O o O o o O o o   ",
"  o O o o o o o O o o 1 w e r 9 > > # 7 5 * ; % = $ r % * * , $ = = t > y , O o o o o o O o o o o   ",
"  O o o O o o O o o 1 u * 5 t r i i 5 ; & % % % > , r % % r & > i p - $ > % a + o o O o o o o o o   ",
"  o O o o O o o o o s t & > r ; = , d < < < $ < 7 @ < $ < $ # f 9 = * r = % * o 1 o o o o o o O o   ",
"  o o o o o O o o + 3 % , > = 5 % , > r r r r r 5 < r % % r % ; , ; 5 = > t ; 7 o 1 o o o o o o o   ",
"  o O o O o o o s 3 : > ; i 6 : & < % r % % % % = $ r % % % % & < % - : i & < : 7 1 1 o o o o o o   ",
"  O o o o O o 1 7 g 4 = - & r ; > 9 < < , $ $ , 9 3 , , $ $ < < f $ * % & i * i g 5 h 1 o o O o o   ",
"  o O o o o o t g j = t > $ $ < t f 5 > > > > 5 > t 5 > > = > 5 , f < < < # $ , i g * k o O o O o   ",
"  O o o O + l % ; 5 7 * % r r r > > % ; ; ; ; ; > , % * ; ; ; ; 5 < & r % % % 7 > ; % 9 + O o O o   ",
"  O O O o O 7 % 0 q > z : : & & > > % % % ; ; ; # 7 ; ; ; ; % % ; < & & & : z = z X : < x 1 o O o   ",
"  o o o 2 w & c 4 0 = : ; > , v b n n n m m m m M M m m m m n n n b N 7 # * & * r 4 g - t + o o o   ",
"  O o o o 0 i 4 - n m m M M B B M B B B B B B B B M B B B B B B B M B M M M M m n V - i 4 C 1 o o   ",
"  o O 1 Z - n m B B M B B B B B B B B B B B B B B B B B B B B B B B B B B B B B B B M n - 9 + O o   ",
"  o o + b B B B B A B A B B B B B B B B B B B B B M B B B B B B B B B B B B A B B A B B B n 2 o o   ",
"  o o + M B B B B B B B A S A S S B S S S S S S S A S S S S S S S S S S A A B B B B B B B M 2 o o   ",
"  O o o b B B B S S S S S S S m S m m S S S S S S m S S S S S S m S S S S S S S S S B B B D 1 O o   ",
"  o o O 2 M S B S S S S A S S S S S S S S S S S S S S S S S S S S S S S S A A S S S B A B + o o o   ",
"  o o O o F B B B A S S S A S S A S m m A A A S A m S A A A B m S S S S A S S S A B B B D + O o o   ",
"  O o O O + G B B B B B B B B M B M M A B B A A B B A A B M B B M B M B B B B B B B B D 2 o o o o   ",
"  O O o o o o o D M M M M M B M H H H H H M M M M M M M M H H M H H M B M M B M M D J 1 O o o o o   ",
"  o o o o O o o 1 + J G G K m L H H L L H L P L L L L L P H L L H H L I D G G + + + o o o o o o o   ",
"  o o o O o o o o o o o o + 2 + + + 1 + h J J U U U U J 1 J o 1 + + + 2 1 1 o o O O o O o o O o o   ",
"  o o O o o o o o o o O o o O O o O O o o o o o o O o o O o O O O O o o o o o o o o o o o O O o o   ",
"  o o o o o o o o o O o o o o o o o o O o O O o o O o O o o o O o o o o o o o o o o o O o o o O o   ",
"  o o o o O o o o O o o O o O o o o o O o o o O o O o O o O o o o o o o o o o o o O o O o O o o o   ",
"  O O o o o O o o o o o 1 o 1 1 1 1 1 1 o 1 o + 1 1 1 1 1 1 1 o 1 1 1 o o o o o o o o o o o o O o   ",
"  o o o o o o 1 1 1 O k Y T T Y R R R R R R R E E E E E R R R R R R T T T Y k O o 1 + o O o o o o   ",
"  O o o O o + W p Q p p ! p p p p p ! ! p ! ! ! ! ~ ! p p p p ! p p p p p ! p p p 6 W 1 o o O O o   ",
"  O o o o 1 x p p p p p ! ! ! ! ! ^ ^ ^ ^ ^ W W W / ^ ^ ^ ^ ^ ^ ^ ! ! ! ! ! p p p p p W + o o o o   ",
"  O o O o + W p p p p p p p ! ( ( ^ ^ ^ W W W / ) ) W W W ^ ^ ^ ^ ( ! ! p p p p p p p , 2 o o o o   ",
"  O o o O + R p p p p ! ! ! ~ ^ ^ W ) W ) ) ) ) _ _ ) ) ) ) W W W ^ ^ ~ ! ! ! p p p p W + o O o o   ",
"  o o o o o O p p p p p p p p ! ( ^ ^ ^ ^ W W W ) ) ) / W W W W W ^ ( ! p p p p p p ` C 1 o o o o   ",
"  o O o o o 2 7 ' p p p p p p p p ! ~ ! ( ( ^ ^ ^ W ^ ^ ^ ^ ( ^ ~ p p p p p p p p p 6 2 o o o O o   ",
"  o O o o o o h p p p p p p p p p p ~ ! ! ! ! ! ~ ~ ~ ! ! ! ! ~ ! p p p p p p p p p R 1 o o o O o   ",
"  o o o o o o + W ' p p p p p p p p p p p p p p p ! p p p p p ! p p p p p p p p ] , 2 o O o O o o   ",
"  o o o o o o O s , ] ' ] p p p p p p p p p p p p p p p p p p p p p p p p ' ] ] p + o O o O o O o   ",
"  o o o o o O o o 1 7 p p p p p p p p p p p p p p p p p p p p p p p p p p p p Q h 1 o o O O o o o   ",
"  o o o O o o O o 1 + W p [ p p p p p p p p p p p p p p p p p p p p p p [ p , o 1 O o o o o o o o   ",
"  o o o o o o o o O o 2 R p { p p p p p p p p p p p p p p p p p p p p } p W + 1 o o o o o o o o o   ",
"  o o o o o o o o O o O + h Q p p p p p p p p p p p p p p p p p p p p p C + o o o o o o o o o o o   ",
"  o o o o o o o o o o O O 2 R p p p p p p p p p p p p p p p p p p p p f s o o o o o o o o o o o o   ",
"  o o o o o o o o o O o O o o p p p p p p ! p p p ! p p p p p p p p p C 1 o o O o o o o o o o o o   ",
"  o o o o o o o O o o O O o 2 W p p p p p ! p p ! ! p p ! p p p p p Q + o O o o o o o o o o o o o   ",
"  o o o o o o o o O O o o o 1 u p p p ! ! ~ ~ ^ ^ ^ ~ ~ ~ ! p ! p p W 2 O O o o o o o o o o o o o   ",
"  o o o o o o o o o o o o o o 1 p p p p p ! ^ ^ ^ W ^ ( ~ p p p p p x 1 o o O o o o o o o o o o o   ",
"  o o o o o o o o o o o O o o + W p p p p ! ! ( ^ ^ ( ( ! p p p p Q + o O o o o o o o o o o o o o   ",
"  o o o o o o o o o o o o o o o x p p ! ! ~ ~ ^ ^ W ^ ~ ~ p ! p p W 2 o o o o o o o o o o o o o o   ",
"                                . |  ...X.| X X X X X X | o... ...  .                               "
};
