/* XPM */
static char * image_name[]={
"50 50 31 2",
"  	c #8E2323",
". 	c #A52A2A",
"X 	c #A1A1A1",
"o 	c #9E9E9E",
"O 	c #A6A6A6",
"+ 	c #A3A3A3",
"@ 	c #ABABAB",
"# 	c #91D2A0",
"$ 	c #F4A460",
"% 	c #ADADAD",
"& 	c #96522D",
"* 	c #BC8F8F",
"= 	c #B0B0B0",
"- 	c #A8A8A8",
"; 	c #B8860B",
": 	c #CD853F",
"> 	c #BDB76B",
", 	c #9C9C9C",
"< 	c #B3B37E",
"1 	c #9BEEB4",
"2 	c #E9967A",
"3 	c #DAAA00",
"4 	c #CDCD1D",
"5 	c #D1C166",
"6 	c #CED85A",
"7 	c #8FBC8F",
"8 	c #B6E2CE",
"9 	c #8B4513",
"0 	c #55562F",
"q 	c #B6E24D",
"w 	c #6B3939",
"                                                          .                                         ",
"  X X o o X X X X X X X X X X X o X X X X o X X X O + X X o o X X X X o X X o o X X X X X X X X X   ",
"  X o o X o X o X X X X X X X X X o X X X X o o O @ # O X X X X X o X $ O X X X X X X X X X X X X   ",
"  X o X X X X X X X X X X X X X X X X o X o X @ # @ @ % X X o o o X $ & * o X X X X X X X X X X X   ",
"  o X X X X X X X X X X X X X X o X o X X X + % = # @ % # @ - - - $ & ; X X X X X X X X X X X X X   ",
"  X o X X o X X X X X X X X X X X X X X o X + % O % # # # # @ ; ; ; ; : X X X o X X X X X X X X X   ",
"  X X X X X o X X X X X X X X X X X X o X X o @ O = % % % O > : : : : : X o X X X X X X X X X X X   ",
"  X o X X X X X X X X X X X X X X X X X o X X + # # X @ , > $ : : : : & $ X o X X X X X X X X X X   ",
"  X X X X X X X X X X X X X X X X X X o X o X O # # # - > $ : : ; ; ; ; & * X X X X X X X X o X X   ",
"  X X X X X X X X o X X X o X X o X o X X X - # # = # < $ : : : : : : ; & ; X o o X X X X X o X X   ",
"  X X X X X X X X X X X X X X X X X o o - @ # # - # @ $ $ : : : : : : ; ; & : X X X X X X o X X X   ",
"  X X X X X X X o X X X X X o X X X + # # @ % # - @ < $ : : : : : : : : ; : & $ X o o X X X o X X   ",
"  X X X X X X X X X o X X o X X X - # @ O @ 1 = X + > $ : : : : : : : : : : : & 2 X X X X X X X X   ",
"  X X X X X X X X X o X X X X X O # O o - % 1 @ - % 2 $ : 3 4 : : : : : : : : ; ; O X o X o X o X   ",
"  X X X X X X X X X X X X X o X # @ + = # # # X % O $ : : 4 4 : : : : : : : : : ; $ o X X o X X X   ",
"  X X X X X X X X X X X X X X = # = - # # % @ X + > $ : : : : 3 3 : : : : : : : : ; o X o X X o X   ",
"  X X X X X X X o X X X o X - 1 # # # @ - = @ @ @ $ $ : : 3 3 3 : 3 : : : : : : : ; * X X X X o X   ",
"  X X X X X X X X X X X X X = # # # 1 = @ - % % > $ : : : : 3 3 3 : : : : : : : : ; ; $ X X X X X   ",
"  X X X X X X X X X + % X X # # @ # - # X + # @ 5 6 : 3 : 3 3 : 3 3 : : : : : : : : & ; X o X X X   ",
"  X X X X X X X o X @ # O O 1 # # = @ # - @ O * $ : : : 3 : 3 : : 3 : : : : : : : : ; X X X X o X   ",
"  X X o X X X X o o O + - # 1 # O O @ - X X O < $ : : 3 : : : : : : : : : : : : : ; ; + X X o X X   ",
"  X X X X X X o X - # # % 1 # X X O = % X + @ < : : ; : : : : : 3 3 : : : : : : : ; & * X X X X X   ",
"  X X X X o X + - = # # 1 1 @ @ - # 1 # % - - < $ : ; ; : : : : : 3 3 : : : : : : : & 2 X o X X X   ",
"  X X X X X O @ @ = # # # # @ % - # @ X + = @ < : : : : : : : : 3 3 : : : : : : : : & $ o X o X X   ",
"  X X X X X @ = @ = # - % # X X O X + O X O - < : : : : : : : : 3 : : : : : : : : : & ; X X X X X   ",
"  o X X X X o @ = @ O % # % % - @ @ # @ - @ @ < $ : : : : : : : : : ; ; ; : : : : ; & & > X X X X   ",
"  X o X X X X o + @ # # = = - @ # # = @ X - O < $ : : : : : : : : : & & ; : : : : : & & : < X X X   ",
"  X X o X X + X - % - - = @ - 1 # O o - X + X * $ : : : : : : : : : : : : : : : : : : ; & : : $ X   ",
"  X X o X X X @ # O o O X X X - % # # % - @ O X $ : : : : : : : : : : : : : : : : : : : : & & 2 X   ",
". X X X X X X @ # X = @ + o + @ - O @ = O % O o > : : : : : : : : : : : : : : : : : : : : & $ X X   ",
"  X X X X X o - @ % @ - - - = % = - - + X O - , > : : : : : : : : : : : : : : : : : : : & & X X X   ",
"  X X X X X X o o @ - o X + % X + - = O - - @ + > : : : : : : : : : : : : : : : : : : : & ; X X X   ",
"  X X X X o X X + O + X o - - X - X O + X X - O > : : : : : : : : : : : : : : : : : : : : & $ X X   ",
"  X X X X X X + O @ - - - % - X O X O X o X O O 2 : : : : : : : 3 : : : : : : : : : : : : & & $ X   ",
"  X X X X X o X X O O + @ % O - % @ @ - + + + - $ : : : : : : : 3 : : : : : : : : : : : : & $ + X   ",
"  X X X o X X X O @ - O @ % + + @ O @ - O O - - $ : : : : : 3 3 : : : : : : : : : : : : : : : o X   ",
"  X X X X X X X o - O + @ = @ @ % O @ - + X X - $ : : : : : 3 : 3 : : : : : : : : : : & & : & : X   ",
"  X X X X o o - O + X X X - X X @ X - % O - - - $ : : 3 : : : : 3 : : : : : : : : : & & & & $ 2 X   ",
"  o X X X X o - @ O O - + - O + - X O - X X - @ $ : : : : : : : : : : : : : : : : ; & & < X X o X   ",
"  X X X X X X + O # # @ - - = % O X X - X X @ O $ : : : : : : : : : : : : : : : : & & $ X o X X X   ",
". X X X X X X # # @ @ O O % + @ % - O @ O O = + > ; : ; & : : : : & ; : : ; : & : & & + X X X o X   ",
"  X X o X X o - 1 # % @ % # - - - o @ # - O # 7 > ; ; ; & ; 3 : ; & & ; ; ; ; ; : & & o o X X X X   ",
"  X o X X X O X % # # # O - # # # = # O X X - + > : : ; & ; ; ; & & & ; & ; & : : : ; X X o X X X   ",
"  X X X X X @ # % % # 8 # - O O # 1 # @ O O % - $ : : : : ; & & & & & & & & & ; : : : < X X o X X   ",
"  X X o X X o - @ + + - % # % - # - O # @ - @ o $ : : : ; & & & & & & & & & & & & : & > X o X X X   ",
"  X o X X o o X X X X X X @ # % % - X - % - % 7 $ : : & & & & 9 0 0 0 & > * O < $ ; $ X o X X o X   ",
"  X X X o X X o X X X X X X O # @ 1 # # # # # # q ; 0 0 0 0 0 & > > < + + o X X X X X X X X o X X   ",
"  X X X X X o X X X o o X X X # # % # % @ - - - % % > w & > X X X X X X o X X o o X o X X X X X X   ",
"  X X X X X X X X X X X X X X + + X + X X X X X X X X > * X X X X X X X X X X X X X X X X X X X X   ",
"                                                                                                    "
};
