/* XPM */
static char * image_name[]={
"50 50 25 2",
"  	c #F4A460",
". 	c #9E9E9E",
"X 	c #A1A1A1",
"o 	c #A3A3A3",
"O 	c #91D2A0",
"+ 	c #62D4A2",
"@ 	c #ABABAB",
"# 	c #5F929E",
"$ 	c #529584",
"% 	c #509F69",
"& 	c #708090",
"* 	c #A8A8A8",
"= 	c #696969",
"- 	c #A6A6A6",
"; 	c #737373",
": 	c #6E6E6E",
"> 	c #6B6B6B",
", 	c #757575",
"< 	c #787878",
"1 	c #707070",
"2 	c #8FBC8F",
"3 	c #CED85A",
"4 	c #778899",
"5 	c #B6E24D",
"6 	c #D1C166",
"                                                                                                    ",
"  . X X X X X X X X X X X X X X X X X X X X X X X . X X X . X X . X X . X X X X X X X X X X X X X   ",
"  X . X . X X X X X X X X X X X X . X X X X X . X o O + + o . X X . X X X X X X X X X X X X X X X   ",
"  X X X X X X X X X X X X X X X . X X X X . X X @ + + # + + X X . X X . X . X X X X X X X X X X X   ",
"  X . X . X X X X X X X X X X X X . X X . X o + + + $ + # + + X X X X X . X X X X X X X X X X X X   ",
"  X X X X X . X X X X X X X X X . X . X X O + + + % + & + # + O X X X . X X X . X X X X X X X X X   ",
"  X X X X X . X X X X X X X X X X X X * + + $ = + # & + $ + # + O X X X X . X X X X X X X X X X .   ",
"  X X X X X . X X X X X X X X X X - + + % ; + & : + # # + # + # + O X X . X . X X X X X X X X X X   ",
"  X X X X . X X X X X X X X X X O + + # > : & + , : + $ # + # + + + O X X X X X X X X . X X X . X   ",
"  X X X . X X . X X X X X X - + + ; : + $ : : $ + : < + & + + # + + + O X X X X . X X X X . X X X   ",
"  X X X X . . X X . X X - O + % > : : < + % : : # + > % + 1 + + + + + + 2 X X X . X X X . X X . X   ",
"  . . X X X . X X X X O + $ # + : : : : & + , : : + + : & + + + $ + # + + * X X X . X X X X X X X   ",
"  X X . X X . X X - + + 1 : : + + : 1 : 1 # + : 1 : + + # + + : + $ + # + + - X X X X . . . . X X   ",
"  . X . X X X o O + % : : : 1 : + # : : : : + + : : # + + > # + 1 + & + # + + - X X X X . X X X X   ",
"  X . X X o O + # + % 1 : 1 : 1 % + % : 1 1 : + + + # ; + $ > + + , + % + + + + o . X X X X X X X   ",
"  . X X * + + ; : $ + : 1 : 1 : : $ + : : : 1 # + # > : % + % : + # % + + + $ + + X X X X X X X X   ",
"  X o O + & : : : : + + : 1 : 1 1 : # + > & + # ; + & : : $ + ; > + + # + % + # + + o X . X X X X   ",
"  O + # : : : : 1 : : + # > 1 : : : > + + + % : 1 & + , 1 : # + # + + & # + & + + + + o X . X X X   ",
"3 + 1 : : : 1 1 1 : : ; + & : : : : $ + + $ : : : : # + : : & + + > , + % # + + + # + + X . X . .   ",
"3 + > 1 : : 1 : : : : : & + 1 : < + + , , + % : 1 1 : # + # + , + + > & + # + + $ + $ + + X . X X   ",
"  + $ : : : : : : : : : : # + # + # : : : # + 1 : 1 : % + + : : : + # > + + , + # # + + + O X X X   ",
"  * + ; > : : 1 1 1 : 1 : , + + : : 1 : 1 : + + : 1 # + % + # : 1 : + + & $ + > + + + # + + O X X   ",
"  X O + > 1 1 : 1 : 1 : # + 4 + % : 1 : : : : + + + # : : , + & : # + + % > # + # + & + + + + O X   ",
"  X X + # : : : : : % + # 1 : $ + 1 : : : : 1 # + # > : : : % + + # : % + % # + # ; + + + + + + O   ",
"  X X - + ; : : : # + % : : 1 : + + : : : & + # , + % : : : $ + + : : > + + % > + + $ + + + + + + 3 ",
"  X X X O + > & + # : : : : : 1 : + # : # + % : : $ + : , + + : # + 1 + # # + # + + + + + # + # + 5 ",
"  X X X X + + + % > : 1 : : 1 : : : + + # 1 : : : : # + + $ : 1 : + + 4 : 1 + + > # + $ + + # + + 6 ",
"  . . X X - + ; : 1 : : 1 1 1 : : # + + : : : 1 : ; # + + : : : # + + $ & + % + + & $ + $ + + + -   ",
"  X X . X X O + > 1 : : : : : % + # : # + : 1 : $ + # : + $ , + # : : + + : # + + + # $ + + O o X   ",
"  X . X X X X + # : : : 1 : # + % : : : + # > # + % : : , + + % > % + # + + # % + + # + + O X X X   ",
"  X X . X X . - + % : : % + # : : 1 1 : : + + # : : : ; # + + > # + % % + + # + % + + + o . X X X   ",
"  X . X X X X X O + = # + & : 1 1 : : : # + + > : : & + # > # + # : # + ; + + % + + O X X X X X X   ",
"  X X X X X X X X + + # 1 : : 1 : : % + # : # + > # + % : & + + # # # % + $ + + + O X X X . X X X   ",
"  X X X X X X X X o + % : : : 1 : # + $ : : : + + # : : # + ; % + # & + % # + + - X X X . X . X X   ",
"  X X X X X X X X . O + > : : 1 + + ; : : : $ + + , ; + # > # + % + + , + + + X X . X X . X . X X   ",
"  X X X X X X X X X X + + : $ + # : : : 1 + + : % + + & ; + # % + + + + + O X X X X . . X . X X X   ",
"  X X X X X X X . X X o + + + % : 1 : % + # > 1 # + + & + % # + % # + + - . . X X . . X X X X X X   ",
"  X X X X X X X . . . X @ + > 1 : : # + % > % + # : + + 1 # # % + + + X . X . X X X X X X X X . X   ",
"  X X X X X X X X X X X X O + = % + # : : # + % % + # + + # & + + O X X X X X X . X X X X . X . X   ",
"  X X X X X X X . X X X X X + + + & > ; + # : # + % $ + + # + + * X X . X X . X X . X X . X X X X   ",
"  X X X X X X X X X X X X X * + 1 > & + $ : + # ; + # , + + + o X X X X X X X X X X X X X X X X X   ",
"  X X X X X X X X X X . X X X O + # + , % + $ % + $ & + + O X X X X X X X X X X X X X X X X X X X   ",
"  X X X X X X X X X X . . X X X + + > # + < # + % $ + + * X . X X X X X X X X X X X X X X X X X X   ",
"  X X X X X X X . X X . X . X X * + + # ; + # , + + + o X X X X X X X X X X X X X X X X X X X X X   ",
"  X X X X X X X X X X X . X X X X O + , + $ & + + O X X X . X X X X X X X X X X X X X X X X X X X   ",
"  X X X X X X X . X . X X . X X . X + + < # + + @ X X . . X . X X X X X X X X X X X X X X X X X X   ",
"  X X X X X X X X . X . X X X X X X - + + + + o . X X X X X X X X X X X X X X X X X X X X X X X X   ",
"  X X X X X X X X X X . . X X X X X X O + O X . X X X . X X . . X X X X X X X X X X X X X X X X X   ",
"  X X X . X X X X X X X X X X X X X X X o X X X X X X X X X X X X X X X X X X X X X X X X X X X X   ",
"                                                                                                    "
};
