/* XPM */
static char * image_name[]={
"100 40 115 2",
"  	c #B8B8B8",
". 	c #B5B5B5",
"X 	c #BABABA",
"o 	c #BDBDBD",
"O 	c #BFBFBF",
"+ 	c #ABABAB",
"@ 	c #B3B3B3",
"# 	c #B0B0B0",
"$ 	c #C2C2C2",
"% 	c #C4C4C4",
"& 	c #ADADAD",
"* 	c #C7C7C7",
"= 	c #474747",
"- 	c #454545",
"; 	c #4A4A4A",
": 	c #424242",
"> 	c #3B3B3B",
", 	c #363636",
"< 	c #A1A1A1",
"1 	c #0F0F0F",
"2 	c #000000",
"3 	c #000001",
"4 	c #9E9E9E",
"5 	c #A8A8A8",
"6 	c #858585",
"7 	c #8C8C8C",
"8 	c #A6A6A6",
"9 	c #0A0A0A",
"0 	c #737373",
"q 	c #030303",
"w 	c #787878",
"e 	c #121212",
"r 	c #4D4D4D",
"t 	c #1A1A1A",
"y 	c #383838",
"u 	c #333333",
"i 	c #7F7F7F",
"p 	c #919191",
"a 	c #8F8F8F",
"s 	c #999999",
"d 	c #A3A3A3",
"f 	c #595959",
"g 	c #0D0D0D",
"h 	c #050505",
"j 	c #616161",
"k 	c #9C9C9C",
"l 	c #949494",
"z 	c #969696",
"x 	c #242424",
"c 	c #1C1C1C",
"v 	c #7D7D7D",
"b 	c #2F4F4F",
"n 	c #525252",
"m 	c #696969",
"M 	c #080808",
"N 	c #5C5C5C",
"B 	c #292929",
"V 	c #636363",
"C 	c #575757",
"Z 	c #3D3D3D",
"A 	c #171717",
"S 	c #878787",
"D 	c #4F4F4F",
"F 	c #828282",
"G 	c #1F1F1F",
"H 	c #5E5E5E",
"J 	c #212121",
"K 	c #6E6E6E",
"L 	c #2B2B2B",
"P 	c #141414",
"I 	c #707070",
"U 	c #545454",
"Y 	c #6B6B6B",
"T 	c #2F2F64",
"R 	c #2E2E2E",
"E 	c #303030",
"W 	c #7A7A7A",
"Q 	c #8A8A8A",
"! 	c #666666",
"~ 	c #262626",
"^ 	c #708090",
"/ 	c #9B7071",
"( 	c #757575",
") 	c #7E7E7E",
"_ 	c #B3B37E",
"` 	c #F5DEB3",
"' 	c #00562D",
"] 	c #C9C9C9",
"[ 	c #6A6A8D",
"{ 	c #509F69",
"} 	c #DEB887",
"| 	c #BFBFC1",
" .	c #B6E2CE",
"..	c #BD52BD",
"X.	c #B6E191",
"o.	c #BEBEC0",
"O.	c #D8BFD8",
"+.	c #BDBEC0",
"@.	c #778899",
"#.	c #BC8F8F",
"$.	c #91535D",
"%.	c #6B3939",
"&.	c #BEBFC1",
"*.	c #8E2323",
"=.	c #B7644D",
"-.	c #A52A2A",
";.	c #D11619",
":.	c #D52079",
">.	c #FF6347",
",.	c #DA322D",
"<.	c #D2691E",
"1.	c #FF7256",
"2.	c #F5280A",
"3.	c #73234E",
"4.	c #A22E61",
"      . X o X X O X . X O .   o X   . . + @ @ @ # # @ @ # # . X X @   O o   o o   o o $ o % % O $ X . X   @ . X X .   @ # X X @   o o X   o   # #   @ @ . . @ .   o X X   .   o   X o X .   X X o   X X ",
".   X .   o X   O X   o o   o o o   .   # +   @ & # . @ # @   X   .   O o   o X X O o $ $ % % o o X @     @   o X   . . .   .   o X X     o   . & @   # # .         X X   . X o   o o   . X     o   X X ",
"    X . @ O o   o o . X o o X o O X . @   @ @ @ # # . @ @ @   X o     o X   o o o o o o $ $ * X   o     .         .     . @   X X   X o   o   X . & . @ # # .   X   X X     o o X o o .   X   X X X X X ",
"    X . # o O   X $ + = - ; - : - : > , > - < @ . # # @ . @ X o X   . o o   o $ $ o   + @ # X o . o X .           @     . . X X o X o o X o     o # # X & # @         o     o o X o o @ X X   o X X X X ",
"  X o   # o O .   $ + 1 2 2 2 2 2 2 3 2 3 1 4 @ @ @ @ # @   o     .   O X o o $ $ O 5 6 7 7 5 X   o o   .   X   @ @ X . . X o o o X o X o o   . o . # @ . & # @       X .   X o X o o @ o X   o X       ",
"  X X X #   O     $ 8 9 3 2 2 2 2 2 2 3 2 9 4 @ @ @ # @ @   X         X o O o o $ $ 0 q q q 0 X X $ X .   o     @ o   #   o o $ X X o o X o o @   X @ @ @ @ @ . # @ X         o X o X . o o   o X     . ",
"X     o .   o X X $ 8 2 2 2 2 2 2 2 2 2 2 q & . . @ # @   X       X   X o O O $ $ $ w 3 e 2 w X $ O   @ $ X . . X o @ . $ o X $ o X $ o . X o   @ X   . @ @ . . @ @ . .   X X X X o o . o o   o X     . ",
"o   . o   .   o o O . r - = t q 9 3 1 y > u i p p a a p p 5 o @ @ < s 4 & o 8 8 @ d f 2 g h j d &   < k < s l s 4 k @ o   s s <     < 8 @ s k k s .   k p p p &   o 8 l z k k < s + o   o X X o   X   . ",
"o X .     . . O o o $ X   @ j 2 x 2 - d 5 7 3 2 2 2 2 2 3 c v + l 3 e , b n q 9 m q 2 2 M q 3 2 f 8 - 2 2 2 3 2 2 9 N # p 2 c B V C 2 Z k A 3 3 9 5 # , 3 3 2 a . S u 2 2 3 2 2 2 0 o o o X X o   o   . ",
"o X   X o   . $ $ o O % O X j 2 > 2 D +   p 2 2 3 2 2 2 B u 2 F l 9 G , 3 2 2 t H 2 2 M J h 2 2 r + u 3 2 3 3 2 A > 2 K a 2 L L 2 3 2 - s x g g A 5 + > 3 P 2 k l 2 e A 2 2 2 2 3 I X o o   X X . o X   ",
"o     X o   . O O $ o % $ o H h U M n #   8 Y f f j f x T n 2 m s g R u 2 3 3 2 i m E M : M y m a X 6 Y 0 W F f L n h r S 2 Z G 2 2 2 , z x x J g 5 # E e R 2 s K 3 M g - 0 K j f z X o X   X X   X o   ",
"o X X o X o   o $ O $ % % $ f A K x ;   X X X + l 6 Y G R H 9 0 < M ; = 3 3 n Q X O ! t N e 0 $ $ O X o # 4 z j e n J N Q q n L 2 q m k < t > u g 8 . R ~ - 2 7 ! 2 2 2 f S 6 ^ & X X o X X   o X o o   ",
"o X X o X O X o $ $ $ * * % N E / Z : X o X a f h 2 2 2 y Y G F + g N f 2 0 $ $ $ $ ! u 0 y ( % * o 5 ^ L 2 2 2 P j > m a e m Z g k o   8 e r U x 8 @ , Z U 9 4 ) 3 2 2 2 2 2 r K s X X   X   O o X o X ",
"o o o o X o o O $ $ $ % * * ! U a U ; $ $ Y f Y u 9 9 ~ K _ u S @ t K m J @ $ $ $ $ Y ~ W ( 6 * ` < N W r P 2 c H F C m p L v n ; o o o + 1 D ( ! # @ V K V c < + = 3 e e A ' 0 ( > @     o o ` o . o o ",
"o $ O X X o o $ $ $ % % * $ m f S C f $ @ 3 Z Y Y I a F S F T S . x 0 m u   $ $ $ $ K 2 j S 4 ] % n B K w ^ s s F a N m s , W D C o   o @ g ~ m [   . [ F ! c z     z ^ ^ ^ w { n q 7 # X $ o }   . X X ",
"o $ $ o X O o O $ % % $ * $ m B U B f | < 3 q L U s + W C = c S X A > Z , X % $ % % w 2 c D ( + & T 2 ~ D 4 @ 4 C f L 0 z A - J C o X X   G 2 L = 7 k C D - g k @ < 8 k 8 4 V = 1 M [ +  .$ o o o o X   ",
"o O $ o o o O O $ $ * $ * * 0 1 G P j O . ~ A P c x R R A A G Q o E A t = o $ O $ % 8 E J c B x [ I c c G L B L J t 1 ..k G A 9 H X.o o $ n 1 t A G ~ c A A c + s e G B R R J c ~ E k   o o o $ $ o   X ",
"o O $ $ o o $ $ $ $ * $ * * [ D C D 0 ` o.S D D = = C n - D n 7 o j = r N o O $ % * % [ f C f f S & N N f U D C f D n Q d b ; ; m o $ o $ + b r ; b ; = = r n + k n = n U f n C V [ o.$ O.$ % * $ $ o X ",
"O $ O $ O o $ % $ $ * % % * z _ F W a % ` X.4 [ w W F W W v v < +.[ W { @.o % % * % $ $ k 6 @.S s ] @ l 6 Q 6 ^ S 6 / k & / / / p o o o O.O & 7 / 0 W [ ( I W @ + [ ( v 6 ^ ^ ^ d * $ * % $ % $ $ $ o o ",
"4 d < < < < < < d 4 d 8 < d d 4 < 4 k < k s z z s k l z s z z s s l p k < s z k k z s z z s k s s k z z s k z p k 4 a a s l l z s z k s k < 4 4 k z s 4 k s k < 4 < k k d 8 5 5 & + 8 d 8 d < 8 d 4 k s ",
"o $ $ o $ $ | | $ $ $ % $ $ % O.` % $ $ $ $ O.o O.$ X o $ $ $ $ $ $ O.* * X.$ ] * $ $ $ $ ` * % % * * * * ` $ O.$ * ` X ` O.O.` $ | o $ o } `  .}   X     o o o o o o o $ % * * * * * % $ $ $ % $ o $ X ",
"o O $ O $ $ $ $ $ $ $ % * % $ $ $ ` ` $ O $ % O o $ o X $ $ $ $ $ $ $ % % ` % * * } #.#.#.#.#.#.} } } ] % } ` $ X.$ % o O.O } 5 _ _ #.#.} o } O.$ o X     X X o } } X.$ O.X.* * $ * % % % | % % $ o $ O ",
"O o $ $ $ o o $ $ O.$ % * $ $ $ X X.$ $ O ` % ` O o.| o $ $ % $ $ $ $  .% % % * % #.2 2 3 2 2 3 3 J $.} * $ | $ O.o % o o _ %.2 3 3 2 3 %./ } } ` o o X .   X X $ $ $ % % ` $ ] $ * * % % $ $ % O O % O ",
"$ O $ $ O o o O $ O.X.$ % $ $  .X o ` % % $ $ $ O o o o $ % % $ $ $ O.$ $ $ % ] * #.2 2 2 2 2 2 3 2 2 J } $ ` $ O.o o.o / 2 3 2 2 2 2 2 2 2 / } $ $ o X     o X  .% $ % % $ ` * * % * $ % % $ % $ $ % o ",
"O $ O O O O o o $ o o $ % $ O O   o o $ $ % $ $ O $ o o  . .% * % O X o O O * * * 5 U C C C C R 2 q h 2 / $ o $ ` o o } 9 2 h 2 2 e q 2 q 2 3 #.$ $ o X   .   X $ % % $ % $ $ * * * % $ % $ $ * % $ $ o ",
"o O o o o O o o O o o O $ O o o X X o $ $ $ $ $ $ o o O.} #.#.#.#.  X X #...#.#.} ` } } } } } } %.q q 2 $.O.o O.` o o } 2 9 1 3 $.} / 3 M 9 3 / o $ O           $ % $ % % $ $ % * * % % * $ $ % % % $ o ",
"X o o o O O o o o o o o O O o X X   X O $ $ $ $ O.o &.$ } 3 2 M 2 / X } 2 3 2 3 #.$ $ | O $ $ } %.2 3 2 $.O.o $ $ o X } 3 %.%.3 #.% #.2 %.%.3 #.o O O X     . X $ $ $ % $ $ $ % % * % % * $ $ $ $ $ $ o ",
"X X o o o o O X   o X X o o X       X o $ o o $ X.X o ` &.C 3 P 9 $.o a 3 t 2 J } X.$ $ o } / c 2 3 2 2 / +.o  .o X   } 2 %.*.2 #.$ + 2 %.%.3 #.O o O o     . X $ $ $ $ o O O $ $ % $ $ % $ O $ O $ $   ",
"X   o o X o o X   o X   X o           X o X o O X o X o o / 2 M %.;   $.%.%.3 $.` o  .} =.A 3 3 3 2 2 G } X o o X     #.2 *.-.2 #.o + 3 *.*.3 #.o X o O       X o o $ $ o o o O $ $ $ $ $ $ O $ o o $ X ",
"      X X X o o   X   . .   . @ . .     X o   X X X X o o + g 3 *.*.#.$.*.1 3 #.$ o } =.*.3 2 3 3 h %.d X   o o .     #.q -.;.3 k $ 5 3 -.-.M #.X   X O o   X X o o o o o   o o O $ $ $ $ O O o o o o   ",
"  . .   X       X   . @ @ . @ @ @ @ .     o       .   X     f 3 *.:./ $.-.2 J } X.} $.>.-.%.q M = /   X   .   X . . . #.h ;.,.*.l } d *.>.-.9 k o X X O o   X o X           X o X X o $ $ o o o o X   . ",
"    @ .     . .   . @ @ @ @ # # # @ . . .   . . . @ .   @ @ / 2 %.<./ >.-.3 $.X X $.>.1.>.,.$.5     . . . . @ . @ @ @ l 3 *.,.,.#.o + >.>.*.q S   X   o o     o     . . . .   X .     o o X X X X   . # ",
"@ . @ @ @   . @ @ @ @ @ # # # # # # @ . . . @ @ @ # @ # # # & M %.,.>.,.%.2 #.. # %.>.>.>.>.5   @ & + < 8 @ # @ @ # + p q 2 *.2.#.  5 ,.*.9 9 / @     X           @ @ @ # @ @   . .   X X     o X   @ # ",
"@ & # # # # @ # # # # @ & & # & # & @ @ . @ @ @ @ # @ # & # # H 2 %.*.%.9 P & @ k g *.*.*.%.3.*.%.%.%.%.( 8 C j $.r s d P 3 q %.*.$.4.%.9 3 A s @         @ @ .   @ # & # @ @ @ @ @ @ @ @ . .     @ @ & ",
"& + # & + & # & + # # # & & # # & & # # # # @ @ # # & & + & & ..%.%.%.%.%.$.# & z %.%.%.%.%.%.%.%.%.%.%./ 4 %.%.%.%...5 $.%.%.%.%.%.%.%.%.%.$.# # . . # # # @ @ @ # # + # @ @ # @ # # # # # .   . # # # ",
"8 + & + + + + 5 + # & + # + + # + & + + + # # # # # & & + 5 # 5 -.;.;.-.*.#.# & l *.-.-.-.-.-.-.-.-.-.;.=.< -.;.-.;...5 8 $.-.-.-.-.-.-.-./ 8 # & # # & & + # # & & & 5 # # & & # & + + & + @ @ # & + & ",
"< 5 & & 5 5 + + & & 5 8 # + + # # + 8 8 & & + + & & # & # 5 & # / <.>.>.=.d + & k =.=.=.=.>.>.=.>.>.>.<./ 8 >.>.>.,.#.+ 5 5 s / =.>.>./ s & # & & & + 5 + + + & 5 + + + & 5 + & & 5 5 5 & & + & # + + + ",
"s d 8 d k k < d 4 k 4 < < 4 < 4 4 < k k 4 4 < 4 k k < d < < < 4 4 k k #.4 k s s k #.#.#.4 #.#.z #.#.#.#.#.#.#.#.#.#.#.#.#.#.#.#.4 #.4 < 4 d d d < 4 k 4 < d < 4 4 < 4 d < s < < 4 4 4 4 d < 4 k 4 < < 4 ",
"+ # # + 5 + + + d 5 # + d + @ 5 < & & + 8 8 + 5 5 + 8 + + & & + + 5 5 + + & 5 d + & + + + 8 d d + + & & & & + 5 8 + & # + & # & 5 5 + & & & + + 5 8 8 + + + 8 8 5 + + # 5 d + + 8 & & & & + 5 < < + & & ",
"# # # # & + + + + + 5 & + + & # + & # & + 8 5 + + # & 8 + & # & 5 8 5 + + + + + + & & 5 d + & + # + & # # & + 8 + # @ # # & & # + & # & & & 5 & + & & + 5 + 5 5 + + & # + + & & + & & + 8 + 5 < 5 & + & "
};
